<?xml version="1.0" encoding="UTF-8" standalone="no"?>
<!-- Created with Inkscape (http://www.inkscape.org/) -->
<svg
   xmlns:svg="http://www.w3.org/2000/svg"
   xmlns="http://www.w3.org/2000/svg"
   version="1.0"
   width="220.5"
   height="183"
   id="svg4834">
  <defs
     id="defs4836" />
  <g
     id="layer1">
    <g
       transform="translate(-121.4455,-48.0545)"
       style="stroke:#000000;stroke-opacity:1"
       id="g6"
       xml:space="preserve">
<g
   style="fill:none;stroke:#000000;stroke-width:0.79701102;stroke-linecap:butt;stroke-linejoin:miter;stroke-miterlimit:10;stroke-dasharray:5.07462, 3.04477, 0, 0;stroke-dashoffset:0;stroke-opacity:1"
   id="g8">
	<path
   d="M 133.402,159.824 L 329.176,119.219"
   style="stroke:#ff0000;stroke-opacity:1"
   id="path10" />
</g>
<g
   style="fill:none;stroke:#000000;stroke-width:0.79701102;stroke-linecap:butt;stroke-linejoin:miter;stroke-miterlimit:10;stroke-dasharray:5.07447, 3.04468, 0, 0;stroke-dashoffset:0;stroke-opacity:1"
   id="g12">
	<path
   d="M 169.355,61.051 L 293.223,217.992"
   style="stroke:#ff0000;stroke-opacity:1"
   id="path14" />
</g>
<g
   style="fill:none;stroke:#000000;stroke-width:0.79701102;stroke-linecap:butt;stroke-linejoin:miter;stroke-miterlimit:10;stroke-opacity:1"
   id="g16">
	<path
   d="M 296.133,210 L 288.141,207.094 L 285.234,215.086"
   style="stroke:#0000ff;stroke-opacity:1"
   id="path18" />
</g>
<g
   style="fill:#7f7f7f;fill-rule:evenodd;stroke:#000000;stroke-width:0;stroke-linecap:butt;stroke-linejoin:miter;stroke-miterlimit:10;stroke-opacity:1"
   id="g20">
	<path
   d="M 169.441,56.773 C 168.902,56.738 168.781,56.617 168.363,55.734 L 165.387,48.941 L 165.148,48.941 L 162.66,54.812 C 161.898,56.559 161.754,56.75 161.18,56.773 L 161.18,57 L 163.547,57 L 163.547,56.773 C 162.973,56.773 162.734,56.617 162.734,56.281 C 162.734,56.141 162.77,55.973 162.828,55.816 L 163.379,54.418 L 166.512,54.418 L 167,55.566 C 167.145,55.887 167.23,56.199 167.23,56.367 C 167.23,56.664 167.027,56.762 166.391,56.773 L 166.391,57 L 169.441,57 L 169.441,56.773 z M 163.582,53.926 L 164.957,50.641 L 166.344,53.926 L 163.582,53.926 z "
   style="fill:#000000;fill-opacity:1;stroke:none;stroke-opacity:1"
   id="path22" />
</g>
<g
   style="fill:#7f7f7f;fill-rule:evenodd;stroke:#000000;stroke-width:0;stroke-linecap:butt;stroke-linejoin:miter;stroke-miterlimit:10;stroke-opacity:1"
   id="g24">
	<path
   d="M 122.203,159.086 L 122.203,159.312 C 123.207,159.371 123.352,159.504 123.352,160.391 L 123.352,165.695 C 123.352,166.582 123.195,166.738 122.203,166.773 L 122.203,167 L 126.195,167 C 127.129,167 127.977,166.75 128.418,166.344 C 128.852,165.961 129.09,165.422 129.09,164.848 C 129.09,164.32 128.875,163.844 128.504,163.496 C 128.145,163.176 127.82,163.031 127.047,162.84 C 127.668,162.684 127.918,162.566 128.203,162.312 C 128.504,162.051 128.684,161.609 128.684,161.117 C 128.684,159.777 127.617,159.086 125.551,159.086 L 122.203,159.086 z M 124.57,163.102 C 125.73,163.102 126.281,163.164 126.711,163.34 C 127.391,163.629 127.715,164.105 127.715,164.859 C 127.715,165.504 127.465,165.973 126.984,166.246 C 126.602,166.461 126.113,166.559 125.324,166.559 C 124.738,166.559 124.57,166.449 124.57,166.066 L 124.57,163.102 z M 124.57,162.625 L 124.57,159.887 C 124.57,159.637 124.652,159.527 124.832,159.527 L 125.359,159.527 C 126.734,159.527 127.465,160.102 127.465,161.164 C 127.465,162.098 126.828,162.625 125.707,162.625 L 124.57,162.625 z "
   style="fill:#000000;fill-opacity:1;stroke:none;stroke-opacity:1"
   id="path26" />
</g>
<g
   style="fill:#7f7f7f;fill-rule:evenodd;stroke:#000000;stroke-width:0;stroke-linecap:butt;stroke-linejoin:miter;stroke-miterlimit:10;stroke-opacity:1"
   id="g28">
	<path
   d="M 300.414,224.621 L 300.305,221.918 L 300.055,221.918 C 299.98,222.168 299.789,222.312 299.551,222.312 C 299.445,222.312 299.266,222.277 299.086,222.207 C 298.5,222.016 297.902,221.918 297.34,221.918 C 296.359,221.918 295.367,222.289 294.625,222.945 C 293.789,223.687 293.336,224.801 293.336,226.113 C 293.336,227.227 293.695,228.254 294.305,228.937 C 295.02,229.715 296.121,230.168 297.305,230.168 C 298.656,230.168 299.84,229.617 300.566,228.648 L 300.352,228.434 C 299.469,229.281 298.68,229.641 297.688,229.641 C 296.934,229.641 296.266,229.402 295.75,228.949 C 295.094,228.363 294.723,227.285 294.723,225.961 C 294.723,223.797 295.832,222.398 297.566,222.398 C 298.25,222.398 298.871,222.648 299.348,223.125 C 299.73,223.508 299.91,223.844 300.137,224.621 L 300.414,224.621 z "
   style="fill:#000000;fill-opacity:1;stroke:none;stroke-opacity:1"
   id="path30" />
</g>
<g
   style="fill:#7f7f7f;fill-rule:evenodd;stroke:#000000;stroke-width:0;stroke-linecap:butt;stroke-linejoin:miter;stroke-miterlimit:10;stroke-opacity:1"
   id="g32">
	<path
   d="M 334.242,118.695 C 334.242,119.559 334.102,119.715 333.191,119.773 L 333.191,120 L 336.586,120 C 337.973,120 339.23,119.605 339.969,118.937 C 340.746,118.23 341.188,117.168 341.188,116.008 C 341.188,114.93 340.832,114 340.172,113.34 C 339.359,112.516 338.059,112.086 336.418,112.086 L 333.191,112.086 L 333.191,112.312 C 334.137,112.398 334.242,112.504 334.242,113.391 L 334.242,118.695 z M 335.461,112.996 C 335.461,112.625 335.594,112.527 336.086,112.527 C 337.113,112.527 337.891,112.719 338.465,113.125 C 339.395,113.77 339.887,114.801 339.887,116.09 C 339.887,117.5 339.395,118.504 338.426,119.066 C 337.816,119.414 337.125,119.559 336.086,119.559 C 335.605,119.559 335.461,119.449 335.461,119.066 L 335.461,112.996 z "
   style="fill:#000000;fill-opacity:1;stroke:none;stroke-opacity:1"
   id="path34" />
</g>
<g
   style="fill:none;stroke:#000000;stroke-width:0.79701102;stroke-linecap:butt;stroke-linejoin:miter;stroke-miterlimit:10;stroke-opacity:1"
   id="g36">
	<path
   d="M 151.379,110.437 L 133.402,159.824 L 293.223,217.992 L 329.176,119.219 L 169.355,61.051 L 151.379,110.437 z "
   style="stroke:#000000;stroke-opacity:1"
   id="path38" />
</g>
</g>  </g>
</svg>
