<?xml version="1.0" encoding="UTF-8" standalone="no"?>
<svg xmlns="http://www.w3.org/2000/svg" width="400" height="400" version="1.0">
  <g fill-rule="evenodd" transform="translate(34.514033 -191.07078)">
    <path fill="#fff" d="M-34.585003 191.00005h400v400h-400z"/>
    <g transform="translate(-1.4285745 -1.0714755)">
      <path fill="#fff" d="M-34.514034 191.07079h400v400h-400z"/>
      <g transform="scale(1 -1) rotate(45 834.7871093 -311.37909715)">
        <path d="M254.19339 353.79254v1.43592h-1.59472l-.00002 33.17736 105.53264-.00005v-34.61323h-103.9379z"/>
        <path fill="maroon" d="M252.5965 353.78317h103.91607v33.172424H252.5965z"/>
      </g>
      <g transform="scale(1 -1) rotate(45 910.33448261 -128.83922754)">
        <path d="M254.19339 353.79254v1.43592h-1.59472l-.00002 33.17736 105.53264-.00005v-34.61323h-103.9379z"/>
        <path fill="maroon" d="M252.5965 353.78317h103.91607v33.172424H252.5965z"/>
      </g>
      <g transform="scale(1 -1) rotate(45 885.1327284 -189.6778546)">
        <path d="M254.19339 353.79254v1.43592h-1.59472v33.17736l105.53262-.00005v-34.61323h-103.9379z"/>
        <path fill="maroon" d="M252.5965 353.78317h103.91607v33.172424H252.5965z"/>
      </g>
      <g transform="scale(1 -1) rotate(45 859.93134588 -250.51664268)">
        <path d="M254.19339 353.79254v1.43592h-1.59472v33.17736l105.53262-.00005v-34.61323h-103.9379z"/>
        <path fill="maroon" d="M252.5965 353.78317h103.91607v33.172424H252.5965z"/>
      </g>
      <g transform="rotate(-135 135.11720342 387.480787)">
        <path d="M254.19339 353.79254v1.43592h-1.59472v33.17736l105.53302-.00005-.0004-34.61323h-103.9379z"/>
        <path fill="maroon" d="M252.5965 353.78317h103.91607v33.172424H252.5965z"/>
      </g>
      <g transform="scale(1 -1) rotate(45 1017.42594756 -386.70462031)">
        <path d="M254.19339 353.79254v1.43592h-1.59472l-.00002 33.17736 105.53264-.00005v-34.61323h-103.9379z"/>
        <path fill="maroon" d="M252.5965 353.78317h103.91607v33.172424H252.5965z"/>
      </g>
      <g transform="rotate(-135 109.94077085 397.9363053)">
        <path d="M254.19339 353.79254v1.43592h-1.59472v33.17736l105.53262-.00005v-34.61323h-103.9379z"/>
        <path fill="maroon" d="M252.5965 353.78317h103.91607v33.172424H252.5965z"/>
      </g>
      <g transform="scale(1 -1) rotate(45 992.17097672 -447.48045941)">
        <path d="M254.19339 353.79254v1.43592h-1.59472v33.17736l105.53262-.00005v-34.61323h-103.9379z"/>
        <path fill="maroon" d="M252.5965 353.78317h103.91607v33.172424H252.5965z"/>
      </g>
      <g transform="rotate(-135 210.68856616 356.21579312)">
        <path d="M254.19339 353.79254v1.43592h-1.59472v33.17736l105.53302-.00005-.0004-34.61323h-103.9379z"/>
        <path fill="maroon" d="M252.5965 353.78317h103.91607v33.172424H252.5965z"/>
      </g>
      <g transform="scale(1 -1) rotate(45 1092.96099623 -204.28187473)">
        <path d="M254.19339 353.79254v1.43592h-1.59472l-.00002 33.17736 105.53264-.00005v-34.61323h-103.9379z"/>
        <path fill="maroon" d="M252.5965 353.78317h103.91607v33.172424H252.5965z"/>
      </g>
      <g transform="rotate(-135 185.48937534 366.6163837)">
        <path d="M254.19339 353.79254v1.43592h-1.59472v33.17736l105.53262-.00005v-34.61323h-103.9379z"/>
        <path fill="maroon" d="M252.5965 353.78317h103.91607v33.172424H252.5965z"/>
      </g>
      <g transform="scale(1 -1) rotate(45 1067.6743092 -265.04459211)">
        <path d="M254.19339 353.79254v1.43592h-1.59472v33.17736l105.53262-.00005v-34.61323h-103.9379z"/>
        <path fill="maroon" d="M252.5965 353.78317h103.91607v33.172424H252.5965z"/>
      </g>
      <g transform="rotate(-135 160.30336144 377.04876639)">
        <path d="M254.19339 353.79254v1.43592h-1.59472v33.17736l105.53262-.00005v-34.61323h-103.9379z"/>
        <path fill="maroon" d="M252.5965 353.78317h103.91607v33.172424H252.5965z"/>
      </g>
      <g transform="scale(1 -1) rotate(45 1042.4874554 -325.84864621)">
        <path d="M254.19339 353.79254v1.43592h-1.59472v33.17736l105.53262-.00005v-34.61323h-103.9379z"/>
        <path fill="maroon" d="M252.5965 353.78317h103.91607v33.172424H252.5965z"/>
      </g>
      <g transform="scale(1 -1) rotate(45 985.98960378 53.65601568)">
        <path d="M254.19339 353.79254v1.43592h-1.59472l-.00002 33.17736 105.53264-.00005v-34.61323h-103.9379z"/>
        <path fill="maroon" d="M252.5965 353.78317h103.91607v33.172424H252.5965z"/>
      </g>
      <g transform="scale(1 -1) rotate(45 960.78792699 -7.1826293)">
        <path d="M254.19339 353.79254v1.43592h-1.59472v33.17736l105.53262-.00005v-34.61323h-103.9379z"/>
        <path fill="maroon" d="M252.5965 353.78317h103.91607v33.172424H252.5965z"/>
      </g>
      <g transform="scale(1 -1) rotate(45 935.58645747 -68.02138842)">
        <path d="M254.19339 353.79254v1.43592h-1.59472v33.17736l105.53262-.00005v-34.61323h-103.9379z"/>
        <path fill="maroon" d="M252.5965 353.78317h103.91607v33.172424H252.5965z"/>
      </g>
      <g transform="scale(1 -1) rotate(45 1036.33524144 175.35726893)">
        <path d="M254.19339 353.79254v1.43592h-1.59472v33.17736l105.53262-.00005v-34.61323h-103.9379z"/>
        <path fill="maroon" d="M252.5965 353.78317h103.91607v33.172424H252.5965z"/>
      </g>
      <g transform="scale(1 -1) rotate(45 1011.13384436 114.5184798)">
        <path d="M254.19339 353.79254v1.43592h-1.59472v33.17736l105.53262-.00005v-34.61323h-103.9379z"/>
        <path fill="maroon" d="M252.5965 353.78317h103.91607v33.172424H252.5965z"/>
      </g>
      <g transform="rotate(-135 286.24877377 324.92388111)">
        <path d="M254.19339 353.79254v1.43592h-1.59472v33.17736l105.53302-.00005-.0004-34.61323h-103.9379z"/>
        <path fill="maroon" d="M252.5965 353.78317h103.91607v33.172424H252.5965z"/>
      </g>
      <g transform="scale(1 -1) rotate(45 1168.54200754 -21.87817882)">
        <path d="M254.19339 353.79254v1.43592h-1.59472l-.00002 33.17736 105.53264-.00005v-34.61323h-103.9379z"/>
        <path fill="maroon" d="M252.5965 353.78317h103.91607v33.172424H252.5965z"/>
      </g>
      <g transform="rotate(-135 261.05683326 335.3419769)">
        <path d="M254.19339 353.79254v1.43592h-1.59472v33.17736l105.53262-.00005v-34.61323h-103.9379z"/>
        <path fill="maroon" d="M252.5965 353.78317h103.91607v33.172424H252.5965z"/>
      </g>
      <g transform="scale(1 -1) rotate(45 1143.28702913 -82.65400205)">
        <path d="M254.19339 353.79254v1.43592h-1.59472v33.17736l105.53262-.00005v-34.61323h-103.9379z"/>
        <path fill="maroon" d="M252.5965 353.78317h103.91607v33.172424H252.5965z"/>
      </g>
      <g transform="rotate(-135 235.87049549 345.77355647)">
        <path d="M254.19339 353.79254v1.43592h-1.59472v33.17736l105.53262-.00005v-34.61323h-103.9379z"/>
        <path fill="maroon" d="M252.5965 353.78317h103.91607v33.172424H252.5965z"/>
      </g>
      <g transform="scale(1 -1) rotate(45 1118.09936106 -143.45773443)">
        <path d="M254.19339 353.79254v1.43592h-1.59472v33.17736l105.53262-.00005v-34.61323h-103.9379z"/>
        <path fill="maroon" d="M252.5965 353.78317h103.91607v33.172424H252.5965z"/>
      </g>
      <g transform="rotate(-135 336.60545082 304.02205575)">
        <path d="M254.19339 353.79254v1.43592h-1.59472v33.17736l105.53262-.00005v-34.61323h-103.9379z"/>
        <path fill="maroon" d="M252.5965 353.78317h103.91607v33.172424H252.5965z"/>
      </g>
      <g transform="scale(1 -1) rotate(45 1218.7903631 99.78186887)">
        <path d="M254.19339 353.79254v1.43592h-1.59472v33.17736l105.53262-.00005v-34.61323h-103.9379z"/>
        <path fill="maroon" d="M252.5965 353.78317h103.91607v33.172424H252.5965z"/>
      </g>
      <g transform="rotate(-135 311.41927909 314.45406447)">
        <path d="M254.19339 353.79254v1.43592h-1.59472v33.17736l105.53262-.00005v-34.61323h-103.9379z"/>
        <path fill="maroon" d="M252.5965 353.78317h103.91607v33.172424H252.5965z"/>
      </g>
      <g transform="scale(1 -1) rotate(45 1193.60351588 38.97779649)">
        <path d="M254.19339 353.79254v1.43592h-1.59472v33.17736l105.53262-.00005v-34.61323h-103.9379z"/>
        <path fill="maroon" d="M252.5965 353.78317h103.91607v33.172424H252.5965z"/>
      </g>
      <g transform="rotate(-135 166.42157896 463.05623499)">
        <path d="M254.19339 353.79254v1.43592h-1.59472v33.17736l105.53302-.00005-.0004-34.61323h-103.9379z"/>
        <path fill="maroon" d="M252.5965 353.78317h103.91607v33.172424H252.5965z"/>
      </g>
      <g transform="scale(1 -1) rotate(45 1199.94952925 -462.3083633)">
        <path d="M254.19339 353.79254v1.43592h-1.59472l-.00002 33.17736 105.53264-.00005v-34.61323h-103.9379z"/>
        <path fill="maroon" d="M252.5965 353.78317h103.91607v33.172424H252.5965z"/>
      </g>
      <g transform="rotate(-135 141.24503663 473.51148829)">
        <path d="M254.19339 353.79254v1.43592h-1.59472v33.17736l105.53262-.00005v-34.61323h-103.9379z"/>
        <path fill="maroon" d="M252.5965 353.78317h103.91607v33.172424H252.5965z"/>
      </g>
      <g transform="scale(1 -1) rotate(45 1174.62560847 -523.0556424)">
        <path d="M254.19339 353.79254v1.43592h-1.59472v33.17736l105.53262-.00005v-34.61323h-103.9379z"/>
        <path fill="maroon" d="M252.5965 353.78317h103.91607v33.172424H252.5965z"/>
      </g>
      <g transform="rotate(-135 242.00112035 431.81098611)">
        <path d="M254.19339 353.79254v1.43592h-1.59472v33.17736l105.53302-.00005-.0004-34.61323h-103.9379z"/>
        <path fill="maroon" d="M252.5965 353.78317h103.91607v33.172424H252.5965z"/>
      </g>
      <g transform="scale(1 -1) rotate(45 1275.46392433 -279.87706272)">
        <path d="M254.19339 353.79254v1.43592h-1.59472l-.00002 33.17736 105.53264-.00005v-34.61323h-103.9379z"/>
        <path fill="maroon" d="M252.5965 353.78317h103.91607v33.172424H252.5965z"/>
      </g>
      <g transform="rotate(-135 216.79372603 442.1917717)">
        <path d="M254.19339 353.79254v1.43592h-1.59472v33.17736l105.53262-.00005v-34.61323h-103.9379z"/>
        <path fill="maroon" d="M252.5965 353.78317h103.91607v33.172424H252.5965z"/>
      </g>
      <g transform="scale(1 -1) rotate(45 1250.12943587 -340.6199801)">
        <path d="M254.19339 353.79254v1.43592h-1.59472v33.17736l105.53262-.00005v-34.61323h-103.9379z"/>
        <path fill="maroon" d="M252.5965 353.78317h103.91607v33.172424H252.5965z"/>
      </g>
      <g transform="rotate(-135 191.60771627 452.62416438)">
        <path d="M254.19339 353.79254v1.43592h-1.59472v33.17736l105.53262-.00005v-34.61323h-103.9379z"/>
        <path fill="maroon" d="M252.5965 353.78317h103.91607v33.172424H252.5965z"/>
      </g>
      <g transform="scale(1 -1) rotate(45 1224.94273899 -401.4240992)">
        <path d="M254.19339 353.79254v1.43592h-1.59472v33.17736l105.53262-.00005v-34.61323h-103.9379z"/>
        <path fill="maroon" d="M252.5965 353.78317h103.91607v33.172424H252.5965z"/>
      </g>
      <g transform="rotate(-135 197.76489265 538.72568797)">
        <path d="M254.19339 353.79254v1.43592h-1.59472v33.17736l105.53302-.00005-.0004-34.61323h-103.9379z"/>
        <path fill="maroon" d="M252.5965 353.78317h103.91607v33.172424H252.5965z"/>
      </g>
      <g transform="rotate(-135 172.54930447 549.08667628)">
        <path d="M254.19339 353.79254v1.43592h-1.59472v33.17736l105.53262-.00005v-34.61323h-103.9379z"/>
        <path fill="maroon" d="M252.5965 353.78317h103.91607v33.172424H252.5965z"/>
      </g>
      <g transform="rotate(-135 273.31367246 507.4061741)">
        <path d="M254.19339 353.79254v1.43592h-1.59472v33.17736l105.53302-.00005-.0004-34.61323h-103.9379z"/>
        <path fill="maroon" d="M252.5965 353.78317h103.91607v33.172424H252.5965z"/>
      </g>
      <g transform="rotate(-135 248.09807878 517.76716468)">
        <path d="M254.19339 353.79254v1.43592h-1.59472v33.17736l105.53262-.00005v-34.61323h-103.9379z"/>
        <path fill="maroon" d="M252.5965 353.78317h103.91607v33.172424H252.5965z"/>
      </g>
      <g transform="rotate(-135 222.9119634 528.19930236)">
        <path d="M254.19339 353.79254v1.43592h-1.59472v33.17736l105.53262-.00005v-34.61323h-103.9379z"/>
        <path fill="maroon" d="M252.5965 353.78317h103.91607v33.172424H252.5965z"/>
      </g>
      <g transform="rotate(-135 317.56486742 400.5276191)">
        <path d="M254.19339 353.79254v1.43592h-1.59472v33.17736l105.53302-.00005-.0004-34.61323h-103.9379z"/>
        <path fill="maroon" d="M252.5965 353.78317h103.91607v33.172424H252.5965z"/>
      </g>
      <g transform="scale(1 -1) rotate(45 1351.06558923 -97.4819218)">
        <path d="M254.19339 353.79254v1.43592h-1.59472l-.00002 33.17736 105.53264-.00005v-34.61323h-103.9379z"/>
        <path fill="maroon" d="M252.5965 353.78317h103.91607v33.172424H252.5965z"/>
      </g>
      <g transform="rotate(-135 292.3611011 410.91716489)">
        <path d="M254.19339 353.79254v1.43592h-1.59472v33.17736l105.53262-.00005v-34.61323h-103.9379z"/>
        <path fill="maroon" d="M252.5965 353.78317h103.91607v33.172424H252.5965z"/>
      </g>
      <g transform="scale(1 -1) rotate(45 1325.74167295 -158.22919004)">
        <path d="M254.19339 353.79254v1.43592h-1.59472v33.17736l105.53262-.00005v-34.61323h-103.9379z"/>
        <path fill="maroon" d="M252.5965 353.78317h103.91607v33.172424H252.5965z"/>
      </g>
      <g transform="rotate(-135 267.17486481 421.34898947)">
        <path d="M254.19339 353.79254v1.43592h-1.59472v33.17736l105.53262-.00005v-34.61323h-103.9379z"/>
        <path fill="maroon" d="M252.5965 353.78317h103.91607v33.172424H252.5965z"/>
      </g>
      <g transform="scale(1 -1) rotate(45 1300.5546205 -219.03317742)">
        <path d="M254.19339 353.79254v1.43592h-1.59472v33.17736l105.53262-.00005v-34.61323h-103.9379z"/>
        <path fill="maroon" d="M252.5965 353.78317h103.91607v33.172424H252.5965z"/>
      </g>
      <g transform="rotate(-135 367.9098015 379.59744374)">
        <path d="M254.19339 353.79254v1.43592h-1.59472v33.17736l105.53262-.00005v-34.61323h-103.9379z"/>
        <path fill="maroon" d="M252.5965 353.78317h103.91607v33.172424H252.5965z"/>
      </g>
      <g transform="scale(1 -1) rotate(45 1401.24550185 24.20647588)">
        <path d="M254.19339 353.79254v1.43592h-1.59472v33.17736l105.53262-.00005v-34.61323h-103.9379z"/>
        <path fill="maroon" d="M252.5965 353.78317h103.91607v33.172424H252.5965z"/>
      </g>
      <g transform="rotate(-135 342.72365877 390.02952246)">
        <path d="M254.19339 353.79254v1.43592h-1.59472v33.17736l105.53262-.00005v-34.61323h-103.9379z"/>
        <path fill="maroon" d="M252.5965 353.78317h103.91607v33.172424H252.5965z"/>
      </g>
      <g transform="scale(1 -1) rotate(45 1376.05879946 -36.5976565)">
        <path d="M254.19339 353.79254v1.43592h-1.59472v33.17736l105.53262-.00005v-34.61323h-103.9379z"/>
        <path fill="maroon" d="M252.5965 353.78317h103.91607v33.172424H252.5965z"/>
      </g>
      <g transform="rotate(-135 348.88096312 476.13136209)">
        <path d="M254.19339 353.79254v1.43592h-1.59472v33.17736l105.53302-.00005-.0004-34.61323h-103.9379z"/>
        <path fill="maroon" d="M252.5965 353.78317h103.91607v33.172424H252.5965z"/>
      </g>
      <g transform="rotate(-135 323.66536895 486.49235288)">
        <path d="M254.19339 353.79254v1.43592h-1.59472v33.17736l105.53262-.00005v-34.61323h-103.9379z"/>
        <path fill="maroon" d="M252.5965 353.78317h103.91607v33.172424H252.5965z"/>
      </g>
      <g transform="rotate(-135 298.47924035 496.92443746)">
        <path d="M254.19339 353.79254v1.43592h-1.59472v33.17736l105.53262-.00005v-34.61323h-103.9379z"/>
        <path fill="maroon" d="M252.5965 353.78317h103.91607v33.172424H252.5965z"/>
      </g>
      <g transform="rotate(-135 399.21415427 455.17283673)">
        <path d="M254.19339 353.79254v1.43592h-1.59472v33.17736l105.53262-.00005v-34.61323h-103.9379z"/>
        <path fill="maroon" d="M252.5965 353.78317h103.91607v33.172424H252.5965z"/>
      </g>
      <g transform="rotate(-135 374.02803638 465.60497545)">
        <path d="M254.19339 353.79254v1.43592h-1.59472v33.17736l105.53262-.00005v-34.61323h-103.9379z"/>
        <path fill="maroon" d="M252.5965 353.78317h103.91607v33.172424H252.5965z"/>
      </g>
    </g>
  </g>
</svg>