<?xml version="1.0" encoding="UTF-8" standalone="no"?>
<svg
   xmlns:dc="http://purl.org/dc/elements/1.1/"
   xmlns:cc="http://creativecommons.org/ns#"
   xmlns:rdf="http://www.w3.org/1999/02/22-rdf-syntax-ns#"
   xmlns:svg="http://www.w3.org/2000/svg"
   xmlns="http://www.w3.org/2000/svg"
   xmlns:xlink="http://www.w3.org/1999/xlink"
   xmlns:sodipodi="http://sodipodi.sourceforge.net/DTD/sodipodi-0.dtd"
   xmlns:inkscape="http://www.inkscape.org/namespaces/inkscape"
   version="1.1"
   id="svg5120"
   viewBox="0 0 157.49875 157.4375"
   height="44.432362mm"
   width="44.449646mm"
   inkscape:version="0.91 r13725"
   sodipodi:docname="Lines parallel.svg">
  <sodipodi:namedview
     pagecolor="#ffffff"
     bordercolor="#666666"
     borderopacity="1"
     objecttolerance="10"
     gridtolerance="10"
     guidetolerance="10"
     inkscape:pageopacity="0"
     inkscape:pageshadow="2"
     inkscape:window-width="1920"
     inkscape:window-height="1148"
     id="namedview6458"
     showgrid="false"
     inkscape:zoom="4.2398335"
     inkscape:cx="152.70931"
     inkscape:cy="91.461723"
     inkscape:window-x="1272"
     inkscape:window-y="-8"
     inkscape:window-maximized="1"
     inkscape:current-layer="svg5120" />
  <defs
     id="defs5122">
    <linearGradient
       inkscape:collect="always"
       id="linearGradient7815">
      <stop
         style="stop-color:#ffba8d;stop-opacity:1"
         offset="0"
         id="stop7817" />
      <stop
         style="stop-color:#ffe9dd;stop-opacity:1"
         offset="1"
         id="stop7819" />
    </linearGradient>
    <linearGradient
       x1="269.35001"
       y1="692.92999"
       x2="53.349998"
       y2="476.78"
       gradientUnits="userSpaceOnUse"
       spreadMethod="pad"
       id="linearGradient7066">
      <stop
         style="stop-opacity:1;stop-color:#c7e29e"
         offset="0"
         id="stop7068" />
      <stop
         style="stop-opacity:1;stop-color:#edf5e2"
         offset="1"
         id="stop7076" />
    </linearGradient>
    <clipPath
       id="clipPath918"
       clipPathUnits="userSpaceOnUse">
      <path
         style="clip-rule:evenodd"
         id="path920"
         d="m 88.92,504 24.24,0 0,11.64 -24.24,0 0,-11.64 z" />
    </clipPath>
    <clipPath
       id="clipPath890"
       clipPathUnits="userSpaceOnUse">
      <path
         style="clip-rule:evenodd"
         id="path892"
         d="m 175.2,535.56 24.36,0 0,14.64 -24.36,0 0,-14.64 z" />
    </clipPath>
    <clipPath
       id="clipPath862"
       clipPathUnits="userSpaceOnUse">
      <path
         style="clip-rule:evenodd"
         id="path864"
         d="m 97.68,613.68 24.36,0 0,14.64 -24.36,0 0,-14.64 z" />
    </clipPath>
    <linearGradient
       id="linearGradient780"
       spreadMethod="pad"
       gradientUnits="userSpaceOnUse"
       y2="476.78"
       x2="53.349998"
       y1="692.92999"
       x1="269.35001">
      <stop
         id="stop782"
         offset="0"
         style="stop-opacity:1;stop-color:#c7e29e" />
      <stop
         id="stop788"
         offset="0.5"
         style="stop-opacity:1;stop-color:#c7e29e" />
      <stop
         id="stop790"
         offset="0.66667"
         style="stop-opacity:1;stop-color:#c7e29e" />
      <stop
         id="stop792"
         offset="0.83333"
         style="stop-opacity:1;stop-color:#dbebc4" />
      <stop
         id="stop794"
         offset="1"
         style="stop-opacity:1;stop-color:#edf5e2" />
    </linearGradient>
    <linearGradient
       id="linearGradient762"
       spreadMethod="pad"
       gradientUnits="userSpaceOnUse"
       y2="527.12421"
       x2="131.3363"
       y1="549.27216"
       x1="125.19749">
      <stop
         id="stop764"
         offset="0"
         style="stop-opacity:1;stop-color:#97d4eb" />
      <stop
         id="stop772"
         offset="1"
         style="stop-opacity:1;stop-color:#e0f1f8" />
    </linearGradient>
    <linearGradient
       inkscape:collect="always"
       xlink:href="#linearGradient780"
       id="linearGradient7062"
       x1="125.32773"
       y1="584.85999"
       x2="197.38"
       y2="584.85999"
       gradientUnits="userSpaceOnUse" />
    <linearGradient
       inkscape:collect="always"
       xlink:href="#linearGradient7066"
       id="linearGradient7064"
       gradientUnits="userSpaceOnUse"
       x1="125.32773"
       y1="548.83612"
       x2="160.9559"
       y2="585.26025" />
    <linearGradient
       inkscape:collect="always"
       xlink:href="#linearGradient7815"
       id="linearGradient7821"
       x1="125.39684"
       y1="549.24335"
       x2="103.66954"
       y2="556.3147"
       gradientUnits="userSpaceOnUse" />
  </defs>
  <metadata
     id="metadata5125">
    <rdf:RDF>
      <cc:Work
         rdf:about="">
        <dc:format>image/svg+xml</dc:format>
        <dc:type
           rdf:resource="http://purl.org/dc/dcmitype/StillImage" />
        <dc:title />
      </cc:Work>
    </rdf:RDF>
  </metadata>
  <path
     inkscape:connector-curvature="0"
     d="M 62.89875,153.75 119.14875,7.5"
     style="fill:none;stroke:#ff0000;stroke-width:0.9375;stroke-linecap:butt;stroke-linejoin:round;stroke-miterlimit:10;stroke-dasharray:none;stroke-opacity:1"
     id="path740" />
  <path
     inkscape:connector-curvature="0"
     d="M 61.96125,153.75 118.21125,7.5"
     style="fill:none;stroke:#4f81bd;stroke-width:0.9375;stroke-linecap:butt;stroke-linejoin:round;stroke-miterlimit:10;stroke-dasharray:none;stroke-opacity:1"
     id="path742" />
  <path
     inkscape:connector-curvature="0"
     d="M 33.73625,153.75 89.98625,7.5"
     style="fill:none;stroke:#ff0000;stroke-width:0.9375;stroke-linecap:butt;stroke-linejoin:round;stroke-miterlimit:10;stroke-dasharray:none;stroke-opacity:1"
     id="path744" />
  <path
     inkscape:connector-curvature="0"
     d="M 44.98625,153.75 101.23625,7.5"
     style="fill:none;stroke:#4f81bd;stroke-width:0.9375;stroke-linecap:butt;stroke-linejoin:round;stroke-miterlimit:10;stroke-dasharray:none;stroke-opacity:1"
     id="path746" />
  <g
     transform="matrix(1.25,0,0,-1.25,-100.51375,787.2875)"
     id="g748">
    <path
       inkscape:connector-curvature="0"
       d="m 89.373,512.85 35.997,36.01 c -0.15,24.07 0.16,47.92 0,72 L 89.373,512.85 Z"
       style="fill:url(#linearGradient7821);fill-opacity:1;fill-rule:evenodd;stroke:none"
       id="path756" />
  </g>
  <path
     inkscape:connector-curvature="0"
     d="m 11.2025,146.225 44.99625,-45.0125 c -0.1875,-30.0875 0.2,-59.9 0,-90 L 11.2025,146.225 Z"
     style="fill:none;stroke:#b66d31;stroke-width:0.625;stroke-linecap:butt;stroke-linejoin:round;stroke-miterlimit:10;stroke-dasharray:none;stroke-opacity:1"
     id="path758" />
  <g
     transform="matrix(1.25,0,0,-1.25,-100.51375,787.2875)"
     id="g760">
    <path
       inkscape:connector-curvature="0"
       d="m 89.373,512.86 35.997,36 72.01,0 -108.007,-36 z"
       style="fill:url(#linearGradient762);fill-opacity:1;fill-rule:evenodd;stroke:none"
       id="path774" />
  </g>
  <path
     inkscape:connector-curvature="0"
     d="m 11.2025,146.2125 44.99625,-45 90.0125,0 -135.00875,45 z"
     style="fill:none;stroke:#357d91;stroke-width:0.625;stroke-linecap:butt;stroke-linejoin:round;stroke-miterlimit:10;stroke-dasharray:none;stroke-opacity:1"
     id="path776" />
  <g
     transform="matrix(1.25,0,0,-1.25,-100.51375,787.2875)"
     id="g778"
     style="fill-opacity:1;fill:url(#linearGradient7062)">
    <path
       inkscape:connector-curvature="0"
       d="m 197.38,548.86 -72.01,72 c -0.15,-23.93 0.16,-48.08 0,-72 l 72.01,0 z"
       style="fill:url(#linearGradient7064);fill-opacity:1;fill-rule:evenodd;stroke:none"
       id="path796" />
  </g>
  <path
     inkscape:connector-curvature="0"
     d="m 146.21125,101.2125 -90.0125,-90 c -0.1875,29.9125 0.2,60.1 0,90 l 90.0125,0 z"
     style="fill:none;stroke:#71893f;stroke-width:0.625;stroke-linecap:butt;stroke-linejoin:round;stroke-miterlimit:10;stroke-dasharray:none;stroke-opacity:1"
     id="path798" />
  <path
     inkscape:connector-curvature="0"
     d="m 55.87375,100.8875 -51.785,51.75 0.6625,0.6625 51.785,-51.75 -0.6625,-0.6625 z m -53.22,48.55 -2.65375,7.95 7.955,-2.65 -5.30125,-5.3 z"
     style="fill:#000000;fill-opacity:1;fill-rule:nonzero;stroke:none"
     id="path800" />
  <path
     inkscape:connector-curvature="0"
     d="m 56.24875,100.75 95,0 0,0.9375 -95,0 0,-0.9375 z m 93.75,-3.2875 7.5,3.75 -7.5,3.75 0,-7.5 z"
     style="fill:#000000;fill-opacity:1;fill-rule:nonzero;stroke:none"
     id="path802" />
  <path
     inkscape:connector-curvature="0"
     d="m 56.66125,101.1375 0.0375,-94.8875 -0.9375,0 -0.0375,94.8875 0.9375,0 z m 3.325,-93.6375 -3.75,-7.5 -3.75,7.5 7.5,0 z"
     style="fill:#000000;fill-opacity:1;fill-rule:nonzero;stroke:none"
     id="path804" />
  <path
     inkscape:connector-curvature="0"
     d="m 44.23625,120.375 c 0,-1.25 1,-2.25 2.25,-2.25 1.2375,0 2.25,1 2.25,2.25 0,1.2375 -1.0125,2.25 -2.25,2.25 -1.25,0 -2.25,-1.0125 -2.25,-2.25 z"
     style="fill:#ffffff;fill-opacity:1;fill-rule:evenodd;stroke:none"
     id="path806" />
  <path
     inkscape:connector-curvature="0"
     d="m 44.23625,120.375 c 0,-1.25 1,-2.25 2.25,-2.25 1.2375,0 2.25,1 2.25,2.25 0,1.2375 -1.0125,2.25 -2.25,2.25 -1.25,0 -2.25,-1.0125 -2.25,-2.25 z"
     style="fill:none;stroke:#000000;stroke-width:0.625;stroke-linecap:butt;stroke-linejoin:round;stroke-miterlimit:10;stroke-dasharray:none;stroke-opacity:1"
     id="path808" />
  <path
     inkscape:connector-curvature="0"
     d="m 58.02375,113.625 c 0,-1.25 1,-2.25 2.25,-2.25 1.2375,0 2.25,1 2.25,2.25 0,1.2375 -1.0125,2.25 -2.25,2.25 -1.25,0 -2.25,-1.0125 -2.25,-2.25 z"
     style="fill:#ffffff;fill-opacity:1;fill-rule:evenodd;stroke:none"
     id="path810" />
  <path
     inkscape:connector-curvature="0"
     d="m 58.02375,113.625 c 0,-1.25 1,-2.25 2.25,-2.25 1.2375,0 2.25,1 2.25,2.25 0,1.2375 -1.0125,2.25 -2.25,2.25 -1.25,0 -2.25,-1.0125 -2.25,-2.25 z"
     style="fill:none;stroke:#000000;stroke-width:0.625;stroke-linecap:butt;stroke-linejoin:round;stroke-miterlimit:10;stroke-dasharray:none;stroke-opacity:1"
     id="path812" />
  <path
     inkscape:connector-curvature="0"
     d="m 73.29875,74.0625 c 0,-1.25 1,-2.25 2.25,-2.25 1.2375,0 2.25,1 2.25,2.25 0,1.2375 -1.0125,2.25 -2.25,2.25 -1.25,0 -2.25,-1.0125 -2.25,-2.25 z"
     style="fill:#ffffff;fill-opacity:1;fill-rule:evenodd;stroke:none"
     id="path814" />
  <path
     inkscape:connector-curvature="0"
     d="m 73.29875,74.0625 c 0,-1.25 1,-2.25 2.25,-2.25 1.2375,0 2.25,1 2.25,2.25 0,1.2375 -1.0125,2.25 -2.25,2.25 -1.25,0 -2.25,-1.0125 -2.25,-2.25 z"
     style="fill:none;stroke:#000000;stroke-width:0.625;stroke-linecap:butt;stroke-linejoin:round;stroke-miterlimit:10;stroke-dasharray:none;stroke-opacity:1"
     id="path816" />
  <path
     inkscape:connector-curvature="0"
     d="m 59.54875,115.8625 16.9375,-44.05"
     style="fill:none;stroke:#4f81bd;stroke-width:0.9375;stroke-linecap:butt;stroke-linejoin:round;stroke-miterlimit:10;stroke-dasharray:none;stroke-opacity:1"
     id="path818" />
  <path
     inkscape:connector-curvature="0"
     d="m 73.29875,74.0625 c 0,-1.2375 1,-2.25 2.25,-2.25 1.2375,0 2.25,1.0125 2.25,2.25"
     style="fill:none;stroke:#000000;stroke-width:0.625;stroke-linecap:butt;stroke-linejoin:round;stroke-miterlimit:10;stroke-dasharray:none;stroke-opacity:1"
     id="path820" />
  <path
     inkscape:connector-curvature="0"
     d="m 66.36125,62.8125 c 0,-1.25 1,-2.25 2.25,-2.25 1.2375,0 2.25,1 2.25,2.25 0,1.2375 -1.0125,2.25 -2.25,2.25 -1.25,0 -2.25,-1.0125 -2.25,-2.25 z"
     style="fill:#ffffff;fill-opacity:1;fill-rule:evenodd;stroke:none"
     id="path822" />
  <path
     inkscape:connector-curvature="0"
     d="m 66.36125,62.8125 c 0,-1.25 1,-2.25 2.25,-2.25 1.2375,0 2.25,1 2.25,2.25 0,1.2375 -1.0125,2.25 -2.25,2.25 -1.25,0 -2.25,-1.0125 -2.25,-2.25 z"
     style="fill:none;stroke:#000000;stroke-width:0.625;stroke-linecap:butt;stroke-linejoin:round;stroke-miterlimit:10;stroke-dasharray:none;stroke-opacity:1"
     id="path824" />
  <path
     inkscape:connector-curvature="0"
     d="M 45.69875,122.625 69.47375,60.8"
     style="fill:none;stroke:#ff0000;stroke-width:0.9375;stroke-linecap:butt;stroke-linejoin:round;stroke-miterlimit:10;stroke-dasharray:none;stroke-opacity:1"
     id="path826" />
  <path
     inkscape:connector-curvature="0"
     d="m 66.36125,62.8125 c 0,-1.2375 1,-2.25 2.25,-2.25 1.2375,0 2.25,1.0125 2.25,2.25"
     style="fill:none;stroke:#000000;stroke-width:0.625;stroke-linecap:butt;stroke-linejoin:round;stroke-miterlimit:10;stroke-dasharray:none;stroke-opacity:1"
     id="path828" />
  <path
     inkscape:connector-curvature="0"
     d="m 48.73625,120.375 c 0,1.2375 -1.0125,2.25 -2.25,2.25 -1.25,0 -2.25,-1.0125 -2.25,-2.25"
     style="fill:none;stroke:#000000;stroke-width:0.625;stroke-linecap:butt;stroke-linejoin:round;stroke-miterlimit:10;stroke-dasharray:none;stroke-opacity:1"
     id="path830" />
  <path
     inkscape:connector-curvature="0"
     d="m 62.52375,113.6125 c 0,1.2375 -1.0125,2.25 -2.25,2.25 -1.25,0 -2.25,-1.0125 -2.25,-2.25"
     style="fill:none;stroke:#000000;stroke-width:0.625;stroke-linecap:butt;stroke-linejoin:round;stroke-miterlimit:10;stroke-dasharray:none;stroke-opacity:1"
     id="path832" />
  <path
     inkscape:connector-curvature="0"
     d="m 73.01125,120.375 c 0,-1.25 1.0125,-2.25 2.25,-2.25 1.25,0 2.25,1 2.25,2.25 0,1.2375 -1,2.25 -2.25,2.25 -1.2375,0 -2.25,-1.0125 -2.25,-2.25 z"
     style="fill:#ffffff;fill-opacity:1;fill-rule:evenodd;stroke:none"
     id="path834" />
  <path
     inkscape:connector-curvature="0"
     d="m 73.01125,120.375 c 0,-1.25 1.0125,-2.25 2.25,-2.25 1.25,0 2.25,1 2.25,2.25 0,1.2375 -1,2.25 -2.25,2.25 -1.2375,0 -2.25,-1.0125 -2.25,-2.25 z"
     style="fill:none;stroke:#000000;stroke-width:0.625;stroke-linecap:butt;stroke-linejoin:round;stroke-miterlimit:10;stroke-dasharray:none;stroke-opacity:1"
     id="path836" />
  <path
     inkscape:connector-curvature="0"
     d="m 95.13625,62.8125 c 0,-1.25 1.0125,-2.25 2.25,-2.25 1.25,0 2.25,1 2.25,2.25 0,1.2375 -1,2.25 -2.25,2.25 -1.2375,0 -2.25,-1.0125 -2.25,-2.25 z"
     style="fill:#ffffff;fill-opacity:1;fill-rule:evenodd;stroke:none"
     id="path838" />
  <path
     inkscape:connector-curvature="0"
     d="m 95.13625,62.8125 c 0,-1.25 1.0125,-2.25 2.25,-2.25 1.25,0 2.25,1 2.25,2.25 0,1.2375 -1,2.25 -2.25,2.25 -1.2375,0 -2.25,-1.0125 -2.25,-2.25 z"
     style="fill:none;stroke:#000000;stroke-width:0.625;stroke-linecap:butt;stroke-linejoin:round;stroke-miterlimit:10;stroke-dasharray:none;stroke-opacity:1"
     id="path840" />
  <path
     inkscape:connector-curvature="0"
     d="M 74.073621,122.20919 97.689184,60.786372"
     style="fill:none;stroke:#4f81bd;stroke-width:0.93121308;stroke-linecap:butt;stroke-linejoin:round;stroke-miterlimit:10;stroke-dasharray:none;stroke-opacity:1"
     id="path842" />
  <path
     inkscape:connector-curvature="0"
     d="M 74.86125,122.625 98.63625,60.8"
     style="fill:none;stroke:#ff0000;stroke-width:0.9375;stroke-linecap:butt;stroke-linejoin:round;stroke-miterlimit:10;stroke-dasharray:none;stroke-opacity:1"
     id="path844" />
  <path
     inkscape:connector-curvature="0"
     d="m 77.51125,120.375 c 0,1.2375 -1,2.25 -2.25,2.25 -1.2375,0 -2.25,-1.0125 -2.25,-2.25"
     style="fill:none;stroke:#000000;stroke-width:0.625;stroke-linecap:butt;stroke-linejoin:round;stroke-miterlimit:10;stroke-dasharray:none;stroke-opacity:1"
     id="path846" />
  <path
     inkscape:connector-curvature="0"
     d="m 95.13625,62.8125 c 0,-1.2375 1.0125,-2.25 2.25,-2.25 1.25,0 2.25,1.0125 2.25,2.25"
     style="fill:none;stroke:#000000;stroke-width:0.625;stroke-linecap:butt;stroke-linejoin:round;stroke-miterlimit:10;stroke-dasharray:none;stroke-opacity:1"
     id="path848" />
  <g
     transform="matrix(1.25,0,0,-1.25,-100.51375,787.2875)"
     id="g858">
    <g
       id="g860"
       clip-path="url(#clipPath862)">
      <g
         transform="matrix(1,0,0,-1,117.74,617.86)"
         style="font-variant:normal;font-weight:normal;font-size:11.06400013px;font-family:Calibri;-inkscape-font-specification:Calibri;writing-mode:lr-tb;fill:#000000;fill-opacity:1;fill-rule:nonzero;stroke:none"
         id="text866">
        <path
           d="m 3.927504,-0.37816407 q 0,0.10264454 -0.016207,0.17827735 -0.016207,0.0702305 -0.037816,0.11885156 -0.021609,0.04321875 -0.059426,0.06482813 Q 3.7762383,0 3.7330196,0 L 0.7401211,0 Q 0.62667188,0 0.55103907,-0.07563281 0.4808086,-0.15126563 0.4808086,-0.32954297 l 0,-0.18367969 q 0,-0.0756328 0.0108047,-0.1350586 0.0108047,-0.0594258 0.0324141,-0.11885156 0.0216094,-0.0594258 0.0594258,-0.12425391 0.0378164,-0.0702305 0.0918399,-0.15666797 l 2.14473052,-3.3386485 -2.0799024,0 q -0.0864375,0 -0.14046094,-0.086437 -0.0486211,-0.09184 -0.0486211,-0.2917265 0,-0.097242 0.0108047,-0.1674727 0.0108047,-0.075633 0.0324141,-0.1188516 0.0270117,-0.048621 0.0594258,-0.064828 0.0378164,-0.021609 0.0864375,-0.021609 l 2.7876094,0 q 0.059426,0 0.1026445,0.016207 0.048621,0.016207 0.081035,0.054023 0.032414,0.037816 0.048621,0.097242 0.021609,0.059426 0.021609,0.1512656 l 0,0.172875 q 0,0.075633 -0.010805,0.140461 -0.010805,0.064828 -0.032414,0.1296562 -0.021609,0.059426 -0.059426,0.1296563 -0.037816,0.07023 -0.09184,0.1566679 l -2.1339258,3.33864851 2.2797891,0 q 0.043219,0 0.075633,0.0216094 0.037816,0.016207 0.059426,0.0594258 0.027012,0.0432188 0.043219,0.11885156 0.016207,0.0702305 0.016207,0.172875 z"
           style=""
           id="path8224" />
      </g>
    </g>
  </g>
  <g
     transform="matrix(1.25,0,0,-1.25,-100.51375,787.2875)"
     id="g886">
    <g
       id="g888"
       clip-path="url(#clipPath890)">
      <g
         transform="matrix(1,0,0,-1,194.69,539.71)"
         style="font-variant:normal;font-weight:normal;font-size:11.03999996px;font-family:Calibri;-inkscape-font-specification:Calibri;writing-mode:lr-tb;fill:#000000;fill-opacity:1;fill-rule:nonzero;stroke:none"
         id="text894">
        <path
           d="m 3.0349219,0 -0.646875,1.7842969 q -0.032344,0.08625 -0.1671094,0.129375 -0.129375,0.048516 -0.3989063,0.048516 -0.1401562,0 -0.2264062,-0.016172 -0.08625,-0.010781 -0.1347656,-0.043125 -0.043125,-0.032344 -0.048516,-0.08625 -0.00539,-0.053906 0.026953,-0.129375 L 2.1077344,0 Q 2.0592187,-0.0215625 2.0160937,-0.07007812 1.9729687,-0.11859375 1.9567969,-0.1725 L 0.22640625,-4.8084375 q -0.043125,-0.1132031 -0.043125,-0.1778906 0,-0.064688 0.043125,-0.1024219 0.043125,-0.037734 0.14015625,-0.048516 0.0970313,-0.016172 0.25875,-0.016172 0.16171875,0 0.25335937,0.010781 0.0916406,0.00539 0.14554683,0.026953 0.053906,0.021562 0.075469,0.064687 0.026953,0.037734 0.053906,0.1078125 l 1.3853907,3.8920312 0.016172,0 1.336875,-3.9135937 q 0.032344,-0.1024219 0.075469,-0.129375 0.048516,-0.032344 0.1401562,-0.043125 0.091641,-0.016172 0.2641407,-0.016172 0.1509375,0 0.2479687,0.016172 0.097031,0.010781 0.1401563,0.048516 0.048516,0.037734 0.048516,0.1024219 0,0.064687 -0.032344,0.1617187 L 3.0349219,0 Z"
           style=""
           id="path8230" />
      </g>
    </g>
  </g>
  <g
     transform="matrix(1.25,0,0,-1.25,-100.51375,787.2875)"
     id="g914">
    <g
       id="g916"
       clip-path="url(#clipPath918)">
      <g
         transform="matrix(1,0,0,-1,88.944,505.15)"
         style="font-variant:normal;font-weight:normal;font-size:11.03999996px;font-family:Calibri;-inkscape-font-specification:Calibri;writing-mode:lr-tb;fill:#000000;fill-opacity:1;fill-rule:nonzero;stroke:none"
         id="text922">
        <path
           d="m 4.5011719,-0.2371875 q 0.043125,0.0754687 0.043125,0.129375 0,0.04851563 -0.053906,0.08085938 -0.048516,0.03234374 -0.1563281,0.04312499 -0.1024219,0.01617188 -0.2695313,0.01617188 -0.1617187,0 -0.25875,-0.01078125 Q 3.7141406,0.01617187 3.6548437,0 3.6009375,-0.0215625 3.5685937,-0.04851562 3.5416406,-0.08085937 3.5200781,-0.11859375 L 2.3557031,-2.0430469 1.1967187,-0.11859375 Q 1.1751562,-0.08085937 1.1428125,-0.04851562 1.1158594,-0.0215625 1.0565625,0 1.0026562,0.01617187 0.91101562,0.0215625 0.819375,0.03234375 0.6684375,0.03234375 q -0.15632813,0 -0.25875,-0.01617188 -0.0970312,-0.01078125 -0.14554688,-0.04312499 -0.043125,-0.03234375 -0.043125,-0.08085938 0.005391,-0.0539062 0.0539063,-0.129375 L 1.7842969,-2.6036719 0.35578125,-4.8839062 q -0.043125,-0.075469 -0.0485156,-0.1239844 0,-0.053906 0.0485156,-0.08625 0.0539062,-0.037734 0.15632812,-0.048516 0.1078125,-0.010781 0.2803125,-0.010781 0.15632813,0 0.24796873,0.010781 0.097031,0.00539 0.1509375,0.021562 0.053906,0.016172 0.080859,0.043125 0.026953,0.026953 0.048516,0.064687 l 1.1050781,1.8058593 1.12125,-1.8058593 q 0.021562,-0.032344 0.048516,-0.059297 0.026953,-0.026953 0.070078,-0.043125 0.048516,-0.021562 0.129375,-0.026953 0.08625,-0.010781 0.2317969,-0.010781 0.1563281,0 0.2533593,0.010781 0.1024219,0.010781 0.1509375,0.043125 0.048516,0.026953 0.043125,0.080859 -0.00539,0.053906 -0.053906,0.1347657 l -1.4177344,2.2532812 1.4985938,2.3934375 z"
           style=""
           id="path8227" />
      </g>
    </g>
  </g>
</svg>
