<?xml version="1.0" encoding="UTF-8" standalone="no"?>
<svg id="Polynomialdeg2"
   version="1.1"
   baseProfile="full"
   xmlns="http://www.w3.org/2000/svg"
   xmlns:xlink="http://www.w3.org/1999/xlink"
   width="233"
   height="179">

  <title>Polynomialdeg2.svg - a polynomial of degree 2</title>
  <desc>
     f(x) = x * x - x - 2

     from Wikimedia Commons
     plotted with cubic bezier-curves
     the bezier-controll-points are calculated to give a very accurate result.
     acuracy is 0.000001

     symbols in "Computer Modern" (TeX) font embedded
     created with a plain text editor using GNU/Linux

     about: http://commons.wikimedia.org/wiki/Image:Polynomialdeg5.svg
     source: http://commons.wikimedia.org/
     rights: GNU Free Documentation license,
             Creative Commons Attribution ShareAlike license
  </desc>



  <rect id="background"
     x="0" y="0" width="233" height="179" fill="white" stroke="none"/>

  <g transform="translate(103.5,109.5)">
    <path id="axes"
       fill="none" stroke="black" stroke-linecap="butt" stroke-width="1"
       d="M -103.5,0 H 129.5 M 0,-109.5 V 69.5"/>

    <path id="xticks"
       fill="none" stroke="black" stroke-linecap="square" stroke-width="1"
       d="M -92,-3 V 3 M -69,-3 V 3 M -46,-3 V 3 M -23,-3 V 3 M 23,-3 V 3 M 46,-3 V 3 M 69,-3 V 3 M 92,-3 V 3 M 115,-3 V 3"/>

    <path id="yticks"
       fill="none" stroke="black" stroke-linecap="square" stroke-width="1"
       d="M -3,-108 H 3 M -3,-90 H 3 M -3,-72 H 3 M -3,-54 H 3 M -3,-36 H 3 M -3,-18 H 3 M -3,18 H 3 M -3,36 H 3 M -3,54 H 3"/>
  </g>

  <path id="polynomial" transform="translate(103.5,109.5) scale(23,23)"
     fill="none" stroke="red" stroke-width="0.043478px" stroke-linecap="square"
     d="M -2.386751,-4.760870
        C -0.453237,3.975507 1.471285,3.893962 3.386751,-4.760870" />

</svg>

