<?xml version="1.0" encoding="UTF-8"?>
<!DOCTYPE svg PUBLIC "-//W3C//DTD SVG 1.1//EN" "http://www.w3.org/Graphics/SVG/1.1/DTD/svg11.dtd">
<svg version="1.1" width="145.34mm" height="145.4mm" viewBox="0 0 14534 14540" preserveAspectRatio="xMidYMid" fill-rule="evenodd" clip-path="url(#presentation_clip_path)" stroke-width="28.222" stroke-linejoin="round" xmlns="http://www.w3.org/2000/svg" xmlns:ooo="http://xml.openoffice.org/svg/export" xmlns:xlink="http://www.w3.org/1999/xlink" xml:space="preserve">
 <defs class="ClipPathGroup">
  <clipPath id="presentation_clip_path" clipPathUnits="userSpaceOnUse">
   <rect x="0" y="0" width="14534" height="14540"/>
  </clipPath>
 </defs>
 <defs class="TextShapeIndex">
  
 </defs>
 <defs class="EmbeddedBulletChars">
  <g id="bullet-char-template57356" transform="scale(0.00048828125,-0.00048828125)">
   <path d="M 580,1141 L 1163,571 580,0 -4,571 580,1141 Z"/>
  </g>
  <g id="bullet-char-template57354" transform="scale(0.00048828125,-0.00048828125)">
   <path d="M 8,1128 L 1137,1128 1137,0 8,0 8,1128 Z"/>
  </g>
  <g id="bullet-char-template10146" transform="scale(0.00048828125,-0.00048828125)">
   <path d="M 174,0 L 602,739 174,1481 1456,739 174,0 Z M 1358,739 L 309,1346 659,739 1358,739 Z"/>
  </g>
  <g id="bullet-char-template10132" transform="scale(0.00048828125,-0.00048828125)">
   <path d="M 2015,739 L 1276,0 717,0 1260,543 174,543 174,936 1260,936 717,1481 1274,1481 2015,739 Z"/>
  </g>
  <g id="bullet-char-template10007" transform="scale(0.00048828125,-0.00048828125)">
   <path d="M 0,-2 C -7,14 -16,27 -25,37 L 356,567 C 262,823 215,952 215,954 215,979 228,992 255,992 264,992 276,990 289,987 310,991 331,999 354,1012 L 381,999 492,748 772,1049 836,1024 860,1049 C 881,1039 901,1025 922,1006 886,937 835,863 770,784 769,783 710,716 594,584 L 774,223 C 774,196 753,168 711,139 L 727,119 C 717,90 699,76 672,76 641,76 570,178 457,381 L 164,-76 C 142,-110 111,-127 72,-127 30,-127 9,-110 8,-76 1,-67 -2,-52 -2,-32 -2,-23 -1,-13 0,-2 Z"/>
  </g>
  <g id="bullet-char-template10004" transform="scale(0.00048828125,-0.00048828125)">
   <path d="M 285,-33 C 182,-33 111,30 74,156 52,228 41,333 41,471 41,549 55,616 82,672 116,743 169,778 240,778 293,778 328,747 346,684 L 369,508 C 377,444 397,411 428,410 L 1163,1116 C 1174,1127 1196,1133 1229,1133 1271,1133 1292,1118 1292,1087 L 1292,965 C 1292,929 1282,901 1262,881 L 442,47 C 390,-6 338,-33 285,-33 Z"/>
  </g>
  <g id="bullet-char-template9679" transform="scale(0.00048828125,-0.00048828125)">
   <path d="M 813,0 C 632,0 489,54 383,161 276,268 223,411 223,592 223,773 276,916 383,1023 489,1130 632,1184 813,1184 992,1184 1136,1130 1245,1023 1353,916 1407,772 1407,592 1407,412 1353,268 1245,161 1136,54 992,0 813,0 Z"/>
  </g>
  <g id="bullet-char-template8226" transform="scale(0.00048828125,-0.00048828125)">
   <path d="M 346,457 C 273,457 209,483 155,535 101,586 74,649 74,723 74,796 101,859 155,911 209,963 273,989 346,989 419,989 480,963 531,910 582,859 608,796 608,723 608,648 583,586 532,535 482,483 420,457 346,457 Z"/>
  </g>
  <g id="bullet-char-template8211" transform="scale(0.00048828125,-0.00048828125)">
   <path d="M -4,459 L 1135,459 1135,606 -4,606 -4,459 Z"/>
  </g>
 </defs>
 <defs class="TextEmbeddedBitmaps"/>
 <g>
  <g id="id2" class="Master_Slide">
   <g id="bg-id2" class="Background"/>
   <g id="bo-id2" class="BackgroundObjects"/>
  </g>
 </g>
 <g class="SlideGroup">
  <g>
   <g id="id1" class="Slide" clip-path="url(#presentation_clip_path)">
    <g class="Page">
     <g class="Group">
      <g class="com.sun.star.drawing.EllipseShape">
       <g id="id3">
        <path fill="rgb(255,255,255)" stroke="none" d="M 7263,14323 C 5964,14323 4860,14027 3735,13378 2610,12728 1802,11920 1152,10795 503,9670 207,8566 207,7267 207,5968 503,4864 1152,3739 1802,2614 2610,1806 3735,1156 4860,507 5964,211 7263,211 8562,211 9666,507 10791,1156 11916,1806 12724,2614 13374,3739 14023,4864 14319,5968 14319,7267 14319,8566 14023,9670 13374,10795 12724,11920 11916,12728 10791,13378 9666,14027 8562,14323 7263,14323 L 7263,14323 Z"/>
        <path fill="none" stroke="rgb(192,192,192)" stroke-width="71" d="M 7263,14323 C 5964,14323 4860,14027 3735,13378 2610,12728 1802,11920 1152,10795 503,9670 207,8566 207,7267 207,5968 503,4864 1152,3739 1802,2614 2610,1806 3735,1156 4860,507 5964,211 7263,211 8562,211 9666,507 10791,1156 11916,1806 12724,2614 13374,3739 14023,4864 14319,5968 14319,7267 14319,8566 14023,9670 13374,10795 12724,11920 11916,12728 10791,13378 9666,14027 8562,14323 7263,14323 L 7263,14323 Z"/>
       </g>
      </g>
      <g class="com.sun.star.drawing.EllipseShape">
       <g id="id4">
        <path fill="rgb(255,255,255)" stroke="none" d="M 7263,7266 L 7263,3738 C 7912,3738 8465,3886 9027,4211 L 7263,7266 Z"/>
        <path fill="none" stroke="rgb(192,192,192)" stroke-width="71" d="M 7263,7266 L 7263,3738 C 7912,3738 8465,3886 9027,4211 L 7263,7266 Z"/>
       </g>
      </g>
      <g class="com.sun.star.drawing.TextShape">
       <g id="id5">
        <text class="TextShape"><tspan class="TextParagraph" font-family="Nimbus Sans L, sans-serif" font-size="776px" font-weight="400"><tspan class="TextPosition" x="7391" y="5045"><tspan fill="rgb(192,192,192)" stroke="none">30°</tspan></tspan></tspan></text>
       </g>
      </g>
      <g class="com.sun.star.drawing.PolyLineShape">
       <g id="id6">
        <path fill="none" stroke="rgb(192,192,192)" stroke-width="71" d="M 7265,7268 L 7265,213 7265,7268 10792,1158 7265,7268 13375,3741 7265,7268 14320,7268 7265,7268 13375,10796 7265,7268 10792,13379 7265,7268 7265,14324 7265,7268 3737,13379 7265,7268 1154,10796 7265,7268 209,7268 7265,7268 1154,3741 7265,7268 3737,1158 7265,7268 Z"/>
       </g>
      </g>
      <g class="com.sun.star.drawing.EllipseShape">
       <g id="id7">
        <path fill="rgb(255,255,255)" stroke="none" d="M 7265,7444 C 7232,7444 7205,7437 7177,7420 7148,7404 7128,7384 7112,7356 7095,7327 7088,7300 7088,7267 7088,7234 7095,7207 7112,7179 7128,7150 7148,7130 7177,7114 7205,7097 7232,7090 7265,7090 7298,7090 7325,7097 7354,7114 7382,7130 7402,7150 7418,7179 7435,7207 7442,7234 7442,7267 7442,7300 7435,7327 7418,7356 7402,7384 7382,7404 7354,7420 7325,7437 7298,7444 7265,7444 L 7265,7444 Z"/>
        <path fill="none" stroke="rgb(192,192,192)" stroke-width="71" d="M 7265,7444 C 7232,7444 7205,7437 7177,7420 7148,7404 7128,7384 7112,7356 7095,7327 7088,7300 7088,7267 7088,7234 7095,7207 7112,7179 7128,7150 7148,7130 7177,7114 7205,7097 7232,7090 7265,7090 7298,7090 7325,7097 7354,7114 7382,7130 7402,7150 7418,7179 7435,7207 7442,7234 7442,7267 7442,7300 7435,7327 7418,7356 7402,7384 7382,7404 7354,7420 7325,7437 7298,7444 7265,7444 L 7265,7444 Z"/>
       </g>
      </g>
      <g class="com.sun.star.drawing.EllipseShape">
       <g id="id8">
        <path fill="rgb(255,255,255)" stroke="none" d="M 7263,212 L 8946,663 C 8904,818 8852,944 8772,1083 8611,1361 8412,1560 8134,1721 7856,1881 7584,1954 7263,1954 6942,1954 6670,1881 6392,1721 6114,1560 5915,1361 5754,1083 5674,944 5622,818 5580,663 L 7263,212 Z"/>
        <path fill="none" stroke="rgb(0,0,0)" stroke-width="71" d="M 7263,212 L 8946,663 C 8904,818 8852,944 8772,1083 8611,1361 8412,1560 8134,1721 7856,1881 7584,1954 7263,1954 6942,1954 6670,1881 6392,1721 6114,1560 5915,1361 5754,1083 5674,944 5622,818 5580,663 L 7263,212 Z"/>
       </g>
      </g>
      <g class="com.sun.star.drawing.TextShape">
       <g id="id9">
        <text class="TextShape"><tspan class="TextParagraph" font-family="Nimbus Sans L, sans-serif" font-size="776px" font-weight="400"><tspan class="TextPosition" x="6376" y="1505"><tspan fill="rgb(0,0,0)" stroke="none">150°</tspan></tspan></tspan></text>
       </g>
      </g>
      <g class="com.sun.star.drawing.PolyLineShape">
       <g id="id10">
        <path fill="none" stroke="rgb(0,0,0)" stroke-width="141" d="M 7266,214 L 10792,1157 13374,3741 14320,7268 13375,10798 10792,13378 7265,14324 3738,13378 1154,10796 209,7268 1154,3740 3737,1158 7264,212"/>
       </g>
      </g>
      <g class="com.sun.star.drawing.EllipseShape">
       <g id="id11">
        <path fill="rgb(255,255,255)" stroke="none" d="M 7140,89 C 7163,66 7187,51 7219,43 7250,35 7279,35 7310,43 7342,51 7367,66 7390,89 7413,112 7427,137 7436,168 7444,200 7444,228 7436,260 7427,291 7413,316 7390,339 7367,362 7342,377 7310,385 7279,393 7250,393 7219,385 7187,377 7163,362 7140,339 7116,316 7102,291 7094,260 7085,228 7085,200 7094,168 7102,137 7116,112 7140,89 L 7140,89 Z"/>
        <path fill="none" stroke="rgb(0,0,0)" stroke-width="71" d="M 7140,89 C 7163,66 7187,51 7219,43 7250,35 7279,35 7310,43 7342,51 7367,66 7390,89 7413,112 7427,137 7436,168 7444,200 7444,228 7436,260 7427,291 7413,316 7390,339 7367,362 7342,377 7310,385 7279,393 7250,393 7219,385 7187,377 7163,362 7140,339 7116,316 7102,291 7094,260 7085,228 7085,200 7094,168 7102,137 7116,112 7140,89 L 7140,89 Z"/>
       </g>
      </g>
      <g class="com.sun.star.drawing.EllipseShape">
       <g id="id12">
        <path fill="rgb(255,255,255)" stroke="none" d="M 10621,1113 C 10630,1082 10644,1057 10667,1034 10690,1011 10715,997 10746,988 10778,980 10807,980 10838,988 10870,997 10894,1011 10917,1034 10940,1057 10955,1082 10963,1113 10972,1145 10972,1173 10963,1205 10955,1236 10940,1261 10917,1284 10894,1307 10869,1322 10838,1330 10807,1339 10778,1339 10746,1330 10715,1322 10690,1307 10667,1284 10644,1261 10630,1236 10621,1205 10613,1173 10613,1145 10621,1113 L 10621,1113 Z"/>
        <path fill="none" stroke="rgb(0,0,0)" stroke-width="71" d="M 10621,1113 C 10630,1082 10644,1057 10667,1034 10690,1011 10715,997 10746,988 10778,980 10807,980 10838,988 10870,997 10894,1011 10917,1034 10940,1057 10955,1082 10963,1113 10972,1145 10972,1173 10963,1205 10955,1236 10940,1261 10917,1284 10894,1307 10869,1322 10838,1330 10807,1339 10778,1339 10746,1330 10715,1322 10690,1307 10667,1284 10644,1261 10630,1236 10621,1205 10613,1173 10613,1145 10621,1113 L 10621,1113 Z"/>
       </g>
      </g>
      <g class="com.sun.star.drawing.EllipseShape">
       <g id="id13">
        <path fill="rgb(255,255,255)" stroke="none" d="M 13250,3617 C 13273,3594 13297,3580 13329,3571 13360,3563 13389,3563 13420,3571 13452,3579 13477,3594 13500,3617 13523,3640 13537,3665 13546,3696 13554,3728 13554,3756 13546,3788 13537,3819 13523,3844 13500,3867 13477,3890 13452,3905 13421,3913 13389,3921 13360,3921 13329,3913 13297,3905 13273,3890 13250,3867 13227,3844 13212,3819 13204,3788 13195,3756 13195,3728 13204,3696 13212,3665 13226,3640 13250,3617 L 13250,3617 Z"/>
        <path fill="none" stroke="rgb(0,0,0)" stroke-width="71" d="M 13250,3617 C 13273,3594 13297,3580 13329,3571 13360,3563 13389,3563 13420,3571 13452,3579 13477,3594 13500,3617 13523,3640 13537,3665 13546,3696 13554,3728 13554,3756 13546,3788 13537,3819 13523,3844 13500,3867 13477,3890 13452,3905 13421,3913 13389,3921 13360,3921 13329,3913 13297,3905 13273,3890 13250,3867 13227,3844 13212,3819 13204,3788 13195,3756 13195,3728 13204,3696 13212,3665 13226,3640 13250,3617 L 13250,3617 Z"/>
       </g>
      </g>
      <g class="com.sun.star.drawing.EllipseShape">
       <g id="id14">
        <path fill="rgb(255,255,255)" stroke="none" d="M 14274,7099 C 14306,7090 14335,7090 14366,7099 14397,7107 14422,7122 14445,7145 14468,7168 14483,7193 14491,7224 14500,7256 14500,7284 14491,7316 14483,7347 14468,7372 14445,7395 14422,7418 14398,7432 14366,7441 14335,7449 14306,7449 14274,7441 14243,7432 14218,7418 14195,7395 14172,7372 14158,7347 14149,7316 14141,7284 14141,7256 14149,7224 14158,7193 14172,7168 14195,7145 14218,7122 14243,7107 14274,7099 L 14274,7099 Z"/>
        <path fill="none" stroke="rgb(0,0,0)" stroke-width="71" d="M 14274,7099 C 14306,7090 14335,7090 14366,7099 14397,7107 14422,7122 14445,7145 14468,7168 14483,7193 14491,7224 14500,7256 14500,7284 14491,7316 14483,7347 14468,7372 14445,7395 14422,7418 14398,7432 14366,7441 14335,7449 14306,7449 14274,7441 14243,7432 14218,7418 14195,7395 14172,7372 14158,7347 14149,7316 14141,7284 14141,7256 14149,7224 14158,7193 14172,7168 14195,7145 14218,7122 14243,7107 14274,7099 L 14274,7099 Z"/>
       </g>
      </g>
      <g class="com.sun.star.drawing.EllipseShape">
       <g id="id15">
        <path fill="rgb(255,255,255)" stroke="none" d="M 13422,10626 C 13453,10635 13478,10649 13501,10672 13524,10695 13538,10720 13547,10751 13555,10783 13555,10812 13547,10843 13538,10875 13524,10899 13501,10922 13478,10945 13453,10960 13422,10968 13390,10977 13362,10977 13330,10968 13299,10960 13274,10945 13251,10922 13228,10899 13213,10875 13205,10843 13196,10812 13196,10783 13205,10751 13213,10720 13228,10695 13251,10672 13274,10649 13299,10635 13330,10626 13362,10618 13390,10618 13422,10626 L 13422,10626 Z"/>
        <path fill="none" stroke="rgb(0,0,0)" stroke-width="71" d="M 13422,10626 C 13453,10635 13478,10649 13501,10672 13524,10695 13538,10720 13547,10751 13555,10783 13555,10812 13547,10843 13538,10875 13524,10899 13501,10922 13478,10945 13453,10960 13422,10968 13390,10977 13362,10977 13330,10968 13299,10960 13274,10945 13251,10922 13228,10899 13213,10875 13205,10843 13196,10812 13196,10783 13205,10751 13213,10720 13228,10695 13251,10672 13274,10649 13299,10635 13330,10626 13362,10618 13390,10618 13422,10626 L 13422,10626 Z"/>
       </g>
      </g>
      <g class="com.sun.star.drawing.EllipseShape">
       <g id="id16">
        <path fill="rgb(255,255,255)" stroke="none" d="M 10919,13254 C 10942,13277 10957,13301 10965,13333 10973,13364 10973,13393 10965,13424 10957,13456 10942,13481 10919,13504 10896,13527 10871,13541 10840,13550 10808,13558 10780,13558 10748,13550 10717,13541 10692,13527 10669,13504 10646,13481 10631,13456 10623,13424 10615,13393 10615,13364 10623,13333 10631,13301 10646,13277 10669,13254 10692,13230 10717,13216 10748,13208 10780,13199 10808,13199 10840,13208 10871,13216 10896,13230 10919,13254 L 10919,13254 Z"/>
        <path fill="none" stroke="rgb(0,0,0)" stroke-width="71" d="M 10919,13254 C 10942,13277 10957,13301 10965,13333 10973,13364 10973,13393 10965,13424 10957,13456 10942,13481 10919,13504 10896,13527 10871,13541 10840,13550 10808,13558 10780,13558 10748,13550 10717,13541 10692,13527 10669,13504 10646,13481 10631,13456 10623,13424 10615,13393 10615,13364 10623,13333 10631,13301 10646,13277 10669,13254 10692,13230 10717,13216 10748,13208 10780,13199 10808,13199 10840,13208 10871,13216 10896,13230 10919,13254 L 10919,13254 Z"/>
       </g>
      </g>
      <g class="com.sun.star.drawing.EllipseShape">
       <g id="id17">
        <path fill="rgb(255,255,255)" stroke="none" d="M 7437,14279 C 7446,14311 7446,14340 7437,14371 7429,14402 7414,14427 7391,14450 7368,14473 7343,14488 7312,14496 7280,14505 7252,14505 7220,14496 7189,14488 7164,14473 7141,14450 7118,14427 7104,14403 7095,14371 7087,14340 7087,14311 7095,14279 7104,14248 7118,14223 7141,14200 7164,14177 7189,14163 7220,14154 7252,14146 7280,14146 7312,14154 7343,14163 7368,14177 7391,14200 7414,14223 7429,14248 7437,14279 L 7437,14279 Z"/>
        <path fill="none" stroke="rgb(0,0,0)" stroke-width="71" d="M 7437,14279 C 7446,14311 7446,14340 7437,14371 7429,14402 7414,14427 7391,14450 7368,14473 7343,14488 7312,14496 7280,14505 7252,14505 7220,14496 7189,14488 7164,14473 7141,14450 7118,14427 7104,14403 7095,14371 7087,14340 7087,14311 7095,14279 7104,14248 7118,14223 7141,14200 7164,14177 7189,14163 7220,14154 7252,14146 7280,14146 7312,14154 7343,14163 7368,14177 7391,14200 7414,14223 7429,14248 7437,14279 L 7437,14279 Z"/>
       </g>
      </g>
      <g class="com.sun.star.drawing.EllipseShape">
       <g id="id18">
        <path fill="rgb(255,255,255)" stroke="none" d="M 3911,13426 C 3902,13457 3888,13482 3865,13505 3842,13528 3817,13542 3786,13551 3754,13559 3725,13559 3694,13551 3662,13542 3638,13528 3615,13505 3592,13482 3577,13457 3569,13426 3560,13394 3560,13366 3569,13334 3577,13303 3592,13278 3615,13255 3638,13232 3663,13217 3694,13209 3725,13200 3754,13200 3786,13209 3817,13217 3842,13232 3865,13255 3888,13278 3902,13303 3911,13334 3919,13366 3919,13394 3911,13426 L 3911,13426 Z"/>
        <path fill="none" stroke="rgb(0,0,0)" stroke-width="71" d="M 3911,13426 C 3902,13457 3888,13482 3865,13505 3842,13528 3817,13542 3786,13551 3754,13559 3725,13559 3694,13551 3662,13542 3638,13528 3615,13505 3592,13482 3577,13457 3569,13426 3560,13394 3560,13366 3569,13334 3577,13303 3592,13278 3615,13255 3638,13232 3663,13217 3694,13209 3725,13200 3754,13200 3786,13209 3817,13217 3842,13232 3865,13255 3888,13278 3902,13303 3911,13334 3919,13366 3919,13394 3911,13426 L 3911,13426 Z"/>
       </g>
      </g>
      <g class="com.sun.star.drawing.EllipseShape">
       <g id="id19">
        <path fill="rgb(255,255,255)" stroke="none" d="M 1282,10922 C 1259,10945 1235,10960 1203,10968 1172,10976 1143,10976 1112,10968 1080,10960 1055,10945 1032,10922 1009,10899 995,10874 986,10843 978,10811 978,10783 986,10751 995,10720 1009,10695 1032,10672 1055,10649 1080,10634 1112,10626 1143,10618 1172,10618 1203,10626 1235,10634 1259,10649 1282,10672 1306,10695 1320,10720 1328,10751 1337,10783 1337,10811 1328,10843 1320,10874 1306,10899 1282,10922 L 1282,10922 Z"/>
        <path fill="none" stroke="rgb(0,0,0)" stroke-width="71" d="M 1282,10922 C 1259,10945 1235,10960 1203,10968 1172,10976 1143,10976 1112,10968 1080,10960 1055,10945 1032,10922 1009,10899 995,10874 986,10843 978,10811 978,10783 986,10751 995,10720 1009,10695 1032,10672 1055,10649 1080,10634 1112,10626 1143,10618 1172,10618 1203,10626 1235,10634 1259,10649 1282,10672 1306,10695 1320,10720 1328,10751 1337,10783 1337,10811 1328,10843 1320,10874 1306,10899 1282,10922 L 1282,10922 Z"/>
       </g>
      </g>
      <g class="com.sun.star.drawing.EllipseShape">
       <g id="id20">
        <path fill="rgb(255,255,255)" stroke="none" d="M 260,7440 C 228,7449 199,7449 168,7440 136,7432 112,7417 89,7394 66,7371 51,7346 43,7315 34,7283 34,7255 43,7223 51,7192 66,7167 89,7144 112,7121 136,7107 168,7098 199,7090 228,7090 260,7098 291,7107 316,7121 339,7144 362,7167 376,7192 385,7223 393,7255 393,7283 385,7315 376,7346 362,7371 339,7394 316,7417 291,7432 260,7440 L 260,7440 Z"/>
        <path fill="none" stroke="rgb(0,0,0)" stroke-width="71" d="M 260,7440 C 228,7449 199,7449 168,7440 136,7432 112,7417 89,7394 66,7371 51,7346 43,7315 34,7283 34,7255 43,7223 51,7192 66,7167 89,7144 112,7121 136,7107 168,7098 199,7090 228,7090 260,7098 291,7107 316,7121 339,7144 362,7167 376,7192 385,7223 393,7255 393,7283 385,7315 376,7346 362,7371 339,7394 316,7417 291,7432 260,7440 L 260,7440 Z"/>
       </g>
      </g>
      <g class="com.sun.star.drawing.EllipseShape">
       <g id="id21">
        <path fill="rgb(255,255,255)" stroke="none" d="M 1110,3915 C 1079,3906 1054,3892 1031,3869 1008,3846 994,3821 985,3790 977,3758 977,3729 985,3698 994,3666 1008,3642 1031,3619 1054,3596 1079,3581 1110,3573 1142,3564 1170,3564 1202,3573 1233,3581 1258,3596 1281,3619 1304,3642 1319,3666 1327,3698 1336,3729 1336,3758 1327,3790 1319,3821 1304,3846 1281,3869 1258,3892 1233,3906 1202,3915 1170,3923 1142,3923 1110,3915 L 1110,3915 Z"/>
        <path fill="none" stroke="rgb(0,0,0)" stroke-width="71" d="M 1110,3915 C 1079,3906 1054,3892 1031,3869 1008,3846 994,3821 985,3790 977,3758 977,3729 985,3698 994,3666 1008,3642 1031,3619 1054,3596 1079,3581 1110,3573 1142,3564 1170,3564 1202,3573 1233,3581 1258,3596 1281,3619 1304,3642 1319,3666 1327,3698 1336,3729 1336,3758 1327,3790 1319,3821 1304,3846 1281,3869 1258,3892 1233,3906 1202,3915 1170,3923 1142,3923 1110,3915 L 1110,3915 Z"/>
       </g>
      </g>
      <g class="com.sun.star.drawing.EllipseShape">
       <g id="id22">
        <path fill="rgb(255,255,255)" stroke="none" d="M 3613,1286 C 3590,1263 3575,1239 3567,1207 3559,1176 3559,1147 3567,1115 3575,1084 3590,1059 3613,1036 3636,1013 3661,999 3692,990 3724,982 3752,982 3784,990 3815,999 3840,1013 3863,1036 3886,1059 3901,1084 3909,1116 3917,1147 3917,1176 3909,1207 3900,1239 3886,1263 3863,1286 3840,1310 3815,1324 3784,1332 3752,1341 3724,1341 3692,1332 3661,1324 3636,1309 3613,1286 L 3613,1286 Z"/>
        <path fill="none" stroke="rgb(0,0,0)" stroke-width="71" d="M 3613,1286 C 3590,1263 3575,1239 3567,1207 3559,1176 3559,1147 3567,1115 3575,1084 3590,1059 3613,1036 3636,1013 3661,999 3692,990 3724,982 3752,982 3784,990 3815,999 3840,1013 3863,1036 3886,1059 3901,1084 3909,1116 3917,1147 3917,1176 3909,1207 3900,1239 3886,1263 3863,1286 3840,1310 3815,1324 3784,1332 3752,1341 3724,1341 3692,1332 3661,1324 3636,1309 3613,1286 L 3613,1286 Z"/>
       </g>
      </g>
     </g>
    </g>
   </g>
  </g>
 </g>
</svg>