<?xml version="1.0" encoding="UTF-8"?>
<!DOCTYPE svg PUBLIC "-//W3C//DTD SVG 1.1//EN" "http://www.w3.org/Graphics/SVG/1.1/DTD/svg11.dtd">
<svg version="1.1" width="143.21mm" height="145.4mm" viewBox="0 0 14321 14540" preserveAspectRatio="xMidYMid" fill-rule="evenodd" clip-path="url(#presentation_clip_path)" stroke-width="28.222" stroke-linejoin="round" xmlns="http://www.w3.org/2000/svg" xmlns:ooo="http://xml.openoffice.org/svg/export" xmlns:xlink="http://www.w3.org/1999/xlink" xml:space="preserve">
 <defs class="ClipPathGroup">
  <clipPath id="presentation_clip_path" clipPathUnits="userSpaceOnUse">
   <rect x="0" y="0" width="14321" height="14540"/>
  </clipPath>
 </defs>
 <defs class="TextShapeIndex">
  
 </defs>
 <defs class="EmbeddedBulletChars">
  <g id="bullet-char-template57356" transform="scale(0.00048828125,-0.00048828125)">
   <path d="M 580,1141 L 1163,571 580,0 -4,571 580,1141 Z"/>
  </g>
  <g id="bullet-char-template57354" transform="scale(0.00048828125,-0.00048828125)">
   <path d="M 8,1128 L 1137,1128 1137,0 8,0 8,1128 Z"/>
  </g>
  <g id="bullet-char-template10146" transform="scale(0.00048828125,-0.00048828125)">
   <path d="M 174,0 L 602,739 174,1481 1456,739 174,0 Z M 1358,739 L 309,1346 659,739 1358,739 Z"/>
  </g>
  <g id="bullet-char-template10132" transform="scale(0.00048828125,-0.00048828125)">
   <path d="M 2015,739 L 1276,0 717,0 1260,543 174,543 174,936 1260,936 717,1481 1274,1481 2015,739 Z"/>
  </g>
  <g id="bullet-char-template10007" transform="scale(0.00048828125,-0.00048828125)">
   <path d="M 0,-2 C -7,14 -16,27 -25,37 L 356,567 C 262,823 215,952 215,954 215,979 228,992 255,992 264,992 276,990 289,987 310,991 331,999 354,1012 L 381,999 492,748 772,1049 836,1024 860,1049 C 881,1039 901,1025 922,1006 886,937 835,863 770,784 769,783 710,716 594,584 L 774,223 C 774,196 753,168 711,139 L 727,119 C 717,90 699,76 672,76 641,76 570,178 457,381 L 164,-76 C 142,-110 111,-127 72,-127 30,-127 9,-110 8,-76 1,-67 -2,-52 -2,-32 -2,-23 -1,-13 0,-2 Z"/>
  </g>
  <g id="bullet-char-template10004" transform="scale(0.00048828125,-0.00048828125)">
   <path d="M 285,-33 C 182,-33 111,30 74,156 52,228 41,333 41,471 41,549 55,616 82,672 116,743 169,778 240,778 293,778 328,747 346,684 L 369,508 C 377,444 397,411 428,410 L 1163,1116 C 1174,1127 1196,1133 1229,1133 1271,1133 1292,1118 1292,1087 L 1292,965 C 1292,929 1282,901 1262,881 L 442,47 C 390,-6 338,-33 285,-33 Z"/>
  </g>
  <g id="bullet-char-template9679" transform="scale(0.00048828125,-0.00048828125)">
   <path d="M 813,0 C 632,0 489,54 383,161 276,268 223,411 223,592 223,773 276,916 383,1023 489,1130 632,1184 813,1184 992,1184 1136,1130 1245,1023 1353,916 1407,772 1407,592 1407,412 1353,268 1245,161 1136,54 992,0 813,0 Z"/>
  </g>
  <g id="bullet-char-template8226" transform="scale(0.00048828125,-0.00048828125)">
   <path d="M 346,457 C 273,457 209,483 155,535 101,586 74,649 74,723 74,796 101,859 155,911 209,963 273,989 346,989 419,989 480,963 531,910 582,859 608,796 608,723 608,648 583,586 532,535 482,483 420,457 346,457 Z"/>
  </g>
  <g id="bullet-char-template8211" transform="scale(0.00048828125,-0.00048828125)">
   <path d="M -4,459 L 1135,459 1135,606 -4,606 -4,459 Z"/>
  </g>
 </defs>
 <defs class="TextEmbeddedBitmaps"/>
 <g>
  <g id="id2" class="Master_Slide">
   <g id="bg-id2" class="Background"/>
   <g id="bo-id2" class="BackgroundObjects"/>
  </g>
 </g>
 <g class="SlideGroup">
  <g>
   <g id="id1" class="Slide" clip-path="url(#presentation_clip_path)">
    <g class="Page">
     <g class="Group">
      <g class="com.sun.star.drawing.EllipseShape">
       <g id="id3">
        <path fill="rgb(255,255,255)" stroke="none" d="M 7157,14324 C 5858,14324 4754,14028 3629,13379 2504,12729 1696,11921 1046,10796 397,9671 101,8567 101,7268 101,5969 397,4865 1046,3740 1696,2615 2504,1807 3629,1157 4754,508 5858,212 7157,212 8456,212 9560,508 10685,1157 11810,1807 12618,2615 13268,3740 13917,4865 14213,5969 14213,7268 14213,8567 13917,9671 13268,10796 12618,11921 11810,12729 10685,13379 9560,14028 8456,14324 7157,14324 L 7157,14324 Z"/>
        <path fill="none" stroke="rgb(192,192,192)" stroke-width="71" d="M 7157,14324 C 5858,14324 4754,14028 3629,13379 2504,12729 1696,11921 1046,10796 397,9671 101,8567 101,7268 101,5969 397,4865 1046,3740 1696,2615 2504,1807 3629,1157 4754,508 5858,212 7157,212 8456,212 9560,508 10685,1157 11810,1807 12618,2615 13268,3740 13917,4865 14213,5969 14213,7268 14213,8567 13917,9671 13268,10796 12618,11921 11810,12729 10685,13379 9560,14028 8456,14324 7157,14324 L 7157,14324 Z"/>
       </g>
      </g>
      <g class="com.sun.star.drawing.EllipseShape">
       <g id="id4">
        <path fill="rgb(255,255,255)" stroke="none" d="M 7157,7268 L 7156,2681 C 7719,2681 8196,2765 8725,2958 L 7157,7268 Z"/>
        <path fill="none" stroke="rgb(192,192,192)" stroke-width="71" d="M 7157,7268 L 7156,2681 C 7719,2681 8196,2765 8725,2958 L 7157,7268 Z"/>
       </g>
      </g>
      <g class="com.sun.star.drawing.TextShape">
       <g id="id5">
        <text class="TextShape"><tspan class="TextParagraph" font-family="Nimbus Sans L, sans-serif" font-size="776px" font-weight="400"><tspan class="TextPosition" x="7263" y="3801"><tspan fill="rgb(192,192,192)" stroke="none">20°</tspan></tspan></tspan></text>
       </g>
      </g>
      <g class="com.sun.star.drawing.PolyLineShape">
       <g id="id6">
        <path fill="none" stroke="rgb(192,192,192)" stroke-width="71" d="M 7158,7269 L 7158,214 7158,7269 9571,639 7158,7269 11693,1865 7158,7269 13268,3742 7158,7269 14106,6044 7158,7269 14106,8495 7158,7269 13268,10797 7158,7269 11693,12674 7158,7269 9571,13900 7158,7269 7158,14325 7158,7269 4745,13900 7158,7269 2623,12674 7158,7269 1048,10797 7158,7269 210,8495 7158,7269 210,6044 7158,7269 1048,3742 7158,7269 2623,1865 7158,7269 4745,639 7158,7269 Z"/>
       </g>
      </g>
      <g class="com.sun.star.drawing.EllipseShape">
       <g id="id7">
        <path fill="rgb(255,255,255)" stroke="none" d="M 7159,7445 C 7126,7445 7099,7438 7071,7421 7042,7405 7022,7385 7006,7357 6989,7328 6982,7301 6982,7268 6982,7235 6989,7208 7006,7180 7022,7151 7042,7131 7071,7115 7099,7098 7126,7091 7159,7091 7192,7091 7219,7098 7248,7115 7276,7131 7296,7151 7312,7180 7329,7208 7336,7235 7336,7268 7336,7301 7329,7328 7312,7357 7296,7385 7276,7405 7248,7421 7219,7438 7192,7445 7159,7445 L 7159,7445 Z"/>
        <path fill="none" stroke="rgb(192,192,192)" stroke-width="71" d="M 7159,7445 C 7126,7445 7099,7438 7071,7421 7042,7405 7022,7385 7006,7357 6989,7328 6982,7301 6982,7268 6982,7235 6989,7208 7006,7180 7022,7151 7042,7131 7071,7115 7099,7098 7126,7091 7159,7091 7192,7091 7219,7098 7248,7115 7276,7131 7296,7151 7312,7180 7329,7208 7336,7235 7336,7268 7336,7301 7329,7328 7312,7357 7296,7385 7276,7405 7248,7421 7219,7438 7192,7445 7159,7445 L 7159,7445 Z"/>
       </g>
      </g>
      <g class="com.sun.star.drawing.EllipseShape">
       <g id="id8">
        <path fill="rgb(255,255,255)" stroke="none" d="M 7158,213 L 8823,507 C 8787,711 8726,879 8622,1059 8467,1328 8273,1522 8004,1677 7734,1833 7469,1904 7158,1904 6847,1904 6582,1833 6313,1677 6043,1522 5849,1328 5694,1059 5590,879 5529,711 5493,507 L 7158,213 Z"/>
        <path fill="none" stroke="rgb(0,0,0)" stroke-width="71" d="M 7158,213 L 8823,507 C 8787,711 8726,879 8622,1059 8467,1328 8273,1522 8004,1677 7734,1833 7469,1904 7158,1904 6847,1904 6582,1833 6313,1677 6043,1522 5849,1328 5694,1059 5590,879 5529,711 5493,507 L 7158,213 Z"/>
       </g>
      </g>
      <g class="com.sun.star.drawing.TextShape">
       <g id="id9">
        <text class="TextShape"><tspan class="TextParagraph" font-family="Nimbus Sans L, sans-serif" font-size="776px" font-weight="400"><tspan class="TextPosition" x="6270" y="1437"><tspan fill="rgb(0,0,0)" stroke="none">160°</tspan></tspan></tspan></text>
       </g>
      </g>
      <g class="com.sun.star.drawing.PolyLineShape">
       <g id="id10">
        <path fill="none" stroke="rgb(0,0,0)" stroke-width="141" d="M 7160,215 L 9571,638 11693,1865 13268,3741 14106,6043 14106,8491 13268,10795 11694,12672 9571,13898 7159,14323 4745,13897 2623,12672 1048,10795 210,8491 210,6041 1048,3740 2623,1863 4745,636 7158,213"/>
       </g>
      </g>
      <g class="com.sun.star.drawing.EllipseShape">
       <g id="id11">
        <path fill="rgb(255,255,255)" stroke="none" d="M 7034,90 C 7057,67 7081,52 7113,44 7144,36 7173,36 7204,44 7236,52 7261,67 7284,90 7307,113 7321,138 7330,169 7338,201 7338,229 7330,261 7321,292 7307,317 7284,340 7261,363 7236,378 7204,386 7173,394 7144,394 7113,386 7081,378 7057,363 7034,340 7010,317 6996,292 6988,261 6979,229 6979,201 6988,169 6996,138 7010,113 7034,90 L 7034,90 Z"/>
        <path fill="none" stroke="rgb(0,0,0)" stroke-width="71" d="M 7034,90 C 7057,67 7081,52 7113,44 7144,36 7173,36 7204,44 7236,52 7261,67 7284,90 7307,113 7321,138 7330,169 7338,201 7338,229 7330,261 7321,292 7307,317 7284,340 7261,363 7236,378 7204,386 7173,394 7144,394 7113,386 7081,378 7057,363 7034,340 7010,317 6996,292 6988,261 6979,229 6979,201 6988,169 6996,138 7010,113 7034,90 L 7034,90 Z"/>
       </g>
      </g>
      <g class="com.sun.star.drawing.EllipseShape">
       <g id="id12">
        <path fill="rgb(255,255,255)" stroke="none" d="M 9399,610 C 9404,578 9416,552 9437,527 9458,502 9482,485 9512,474 9543,463 9572,461 9604,466 9636,472 9662,484 9687,505 9712,526 9728,549 9739,580 9750,611 9753,639 9747,671 9742,703 9729,729 9708,754 9688,779 9664,796 9633,807 9603,818 9574,821 9542,815 9510,809 9484,797 9459,776 9434,755 9418,732 9407,701 9395,670 9393,642 9399,610 L 9399,610 Z"/>
        <path fill="none" stroke="rgb(0,0,0)" stroke-width="71" d="M 9399,610 C 9404,578 9416,552 9437,527 9458,502 9482,485 9512,474 9543,463 9572,461 9604,466 9636,472 9662,484 9687,505 9712,526 9728,549 9739,580 9750,611 9753,639 9747,671 9742,703 9729,729 9708,754 9688,779 9664,796 9633,807 9603,818 9574,821 9542,815 9510,809 9484,797 9459,776 9434,755 9418,732 9407,701 9395,670 9393,642 9399,610 L 9399,610 Z"/>
       </g>
      </g>
      <g class="com.sun.star.drawing.EllipseShape">
       <g id="id13">
        <path fill="rgb(255,255,255)" stroke="none" d="M 11542,1777 C 11558,1749 11579,1729 11607,1712 11635,1696 11663,1689 11695,1689 11728,1689 11756,1696 11784,1712 11812,1729 11832,1749 11849,1777 11865,1805 11872,1833 11872,1866 11872,1898 11865,1926 11848,1954 11832,1982 11812,2003 11784,2019 11755,2035 11728,2043 11695,2043 11662,2043 11635,2035 11607,2019 11578,2003 11558,1982 11542,1954 11526,1926 11518,1898 11518,1865 11518,1833 11526,1805 11542,1777 L 11542,1777 Z"/>
        <path fill="none" stroke="rgb(0,0,0)" stroke-width="71" d="M 11542,1777 C 11558,1749 11579,1729 11607,1712 11635,1696 11663,1689 11695,1689 11728,1689 11756,1696 11784,1712 11812,1729 11832,1749 11849,1777 11865,1805 11872,1833 11872,1866 11872,1898 11865,1926 11848,1954 11832,1982 11812,2003 11784,2019 11755,2035 11728,2043 11695,2043 11662,2043 11635,2035 11607,2019 11578,2003 11558,1982 11542,1954 11526,1926 11518,1898 11518,1865 11518,1833 11526,1805 11542,1777 L 11542,1777 Z"/>
       </g>
      </g>
      <g class="com.sun.star.drawing.EllipseShape">
       <g id="id14">
        <path fill="rgb(255,255,255)" stroke="none" d="M 13156,3607 C 13181,3586 13207,3574 13239,3568 13271,3562 13299,3565 13330,3576 13361,3587 13384,3603 13405,3628 13426,3653 13438,3679 13444,3711 13450,3744 13447,3772 13436,3803 13425,3833 13408,3857 13383,3878 13358,3899 13333,3911 13300,3917 13268,3922 13240,3920 13209,3909 13179,3897 13155,3881 13134,3856 13113,3831 13101,3805 13095,3773 13090,3741 13092,3712 13103,3682 13114,3651 13131,3628 13156,3607 L 13156,3607 Z"/>
        <path fill="none" stroke="rgb(0,0,0)" stroke-width="71" d="M 13156,3607 C 13181,3586 13207,3574 13239,3568 13271,3562 13299,3565 13330,3576 13361,3587 13384,3603 13405,3628 13426,3653 13438,3679 13444,3711 13450,3744 13447,3772 13436,3803 13425,3833 13408,3857 13383,3878 13358,3899 13333,3911 13300,3917 13268,3922 13240,3920 13209,3909 13179,3897 13155,3881 13134,3856 13113,3831 13101,3805 13095,3773 13090,3741 13092,3712 13103,3682 13114,3651 13131,3628 13156,3607 L 13156,3607 Z"/>
       </g>
      </g>
      <g class="com.sun.star.drawing.EllipseShape">
       <g id="id15">
        <path fill="rgb(255,255,255)" stroke="none" d="M 14047,5879 C 14077,5868 14106,5865 14138,5871 14170,5877 14196,5889 14221,5910 14246,5931 14262,5954 14273,5985 14285,6015 14287,6044 14281,6076 14276,6108 14264,6134 14243,6159 14222,6184 14198,6200 14168,6212 14137,6223 14108,6225 14076,6220 14044,6214 14018,6202 13993,6181 13968,6160 13952,6136 13941,6106 13930,6075 13927,6047 13933,6014 13938,5982 13951,5956 13972,5931 13992,5906 14016,5890 14047,5879 L 14047,5879 Z"/>
        <path fill="none" stroke="rgb(0,0,0)" stroke-width="71" d="M 14047,5879 C 14077,5868 14106,5865 14138,5871 14170,5877 14196,5889 14221,5910 14246,5931 14262,5954 14273,5985 14285,6015 14287,6044 14281,6076 14276,6108 14264,6134 14243,6159 14222,6184 14198,6200 14168,6212 14137,6223 14108,6225 14076,6220 14044,6214 14018,6202 13993,6181 13968,6160 13952,6136 13941,6106 13930,6075 13927,6047 13933,6014 13938,5982 13951,5956 13972,5931 13992,5906 14016,5890 14047,5879 L 14047,5879 Z"/>
       </g>
      </g>
      <g class="com.sun.star.drawing.EllipseShape">
       <g id="id16">
        <path fill="rgb(255,255,255)" stroke="none" d="M 14107,8315 C 14140,8315 14167,8322 14196,8339 14224,8355 14244,8375 14260,8404 14277,8432 14284,8459 14284,8492 14284,8525 14277,8552 14260,8581 14244,8609 14224,8629 14196,8645 14167,8662 14140,8669 14107,8669 14074,8669 14047,8662 14019,8645 13990,8629 13970,8609 13954,8581 13937,8552 13930,8525 13930,8492 13930,8459 13937,8432 13954,8404 13970,8375 13990,8355 14019,8339 14047,8322 14074,8315 14107,8315 L 14107,8315 Z"/>
        <path fill="none" stroke="rgb(0,0,0)" stroke-width="71" d="M 14107,8315 C 14140,8315 14167,8322 14196,8339 14224,8355 14244,8375 14260,8404 14277,8432 14284,8459 14284,8492 14284,8525 14277,8552 14260,8581 14244,8609 14224,8629 14196,8645 14167,8662 14140,8669 14107,8669 14074,8669 14047,8662 14019,8645 13990,8629 13970,8609 13954,8581 13937,8552 13930,8525 13930,8492 13930,8459 13937,8432 13954,8404 13970,8375 13990,8355 14019,8339 14047,8322 14074,8315 14107,8315 L 14107,8315 Z"/>
       </g>
      </g>
      <g class="com.sun.star.drawing.EllipseShape">
       <g id="id17">
        <path fill="rgb(255,255,255)" stroke="none" d="M 13331,10630 C 13361,10641 13385,10657 13406,10682 13427,10707 13439,10733 13444,10765 13450,10797 13448,10826 13436,10857 13425,10887 13409,10911 13384,10932 13359,10953 13333,10965 13301,10970 13269,10976 13240,10974 13210,10963 13179,10951 13156,10935 13135,10910 13114,10885 13101,10859 13096,10827 13090,10795 13093,10766 13104,10736 13115,10705 13131,10682 13156,10661 13181,10640 13207,10628 13239,10622 13271,10616 13300,10619 13331,10630 L 13331,10630 Z"/>
        <path fill="none" stroke="rgb(0,0,0)" stroke-width="71" d="M 13331,10630 C 13361,10641 13385,10657 13406,10682 13427,10707 13439,10733 13444,10765 13450,10797 13448,10826 13436,10857 13425,10887 13409,10911 13384,10932 13359,10953 13333,10965 13301,10970 13269,10976 13240,10974 13210,10963 13179,10951 13156,10935 13135,10910 13114,10885 13101,10859 13096,10827 13090,10795 13093,10766 13104,10736 13115,10705 13131,10682 13156,10661 13181,10640 13207,10628 13239,10622 13271,10616 13300,10619 13331,10630 L 13331,10630 Z"/>
       </g>
      </g>
      <g class="com.sun.star.drawing.EllipseShape">
       <g id="id18">
        <path fill="rgb(255,255,255)" stroke="none" d="M 11808,12539 C 11833,12560 11849,12583 11861,12614 11872,12645 11874,12673 11868,12705 11863,12737 11851,12763 11830,12788 11809,12813 11785,12830 11755,12841 11724,12852 11696,12855 11663,12849 11631,12843 11605,12831 11580,12810 11555,12789 11539,12766 11528,12735 11517,12705 11514,12676 11520,12644 11526,12612 11538,12586 11559,12561 11580,12536 11603,12519 11634,12508 11664,12497 11693,12495 11725,12500 11757,12506 11783,12518 11808,12539 L 11808,12539 Z"/>
        <path fill="none" stroke="rgb(0,0,0)" stroke-width="71" d="M 11808,12539 C 11833,12560 11849,12583 11861,12614 11872,12645 11874,12673 11868,12705 11863,12737 11851,12763 11830,12788 11809,12813 11785,12830 11755,12841 11724,12852 11696,12855 11663,12849 11631,12843 11605,12831 11580,12810 11555,12789 11539,12766 11528,12735 11517,12705 11514,12676 11520,12644 11526,12612 11538,12586 11559,12561 11580,12536 11603,12519 11634,12508 11664,12497 11693,12495 11725,12500 11757,12506 11783,12518 11808,12539 L 11808,12539 Z"/>
       </g>
      </g>
      <g class="com.sun.star.drawing.EllipseShape">
       <g id="id19">
        <path fill="rgb(255,255,255)" stroke="none" d="M 9726,13813 C 9742,13841 9750,13869 9750,13901 9750,13934 9742,13961 9726,13990 9710,14018 9689,14038 9661,14054 9633,14071 9605,14078 9573,14078 9540,14078 9512,14071 9484,14055 9456,14038 9436,14018 9419,13990 9403,13962 9396,13934 9396,13901 9396,13869 9403,13841 9419,13813 9436,13785 9456,13764 9484,13748 9512,13732 9540,13724 9573,13724 9605,13724 9633,13732 9661,13748 9689,13764 9710,13784 9726,13813 L 9726,13813 Z"/>
        <path fill="none" stroke="rgb(0,0,0)" stroke-width="71" d="M 9726,13813 C 9742,13841 9750,13869 9750,13901 9750,13934 9742,13961 9726,13990 9710,14018 9689,14038 9661,14054 9633,14071 9605,14078 9573,14078 9540,14078 9512,14071 9484,14055 9456,14038 9436,14018 9419,13990 9403,13962 9396,13934 9396,13901 9396,13869 9403,13841 9419,13813 9436,13785 9456,13764 9484,13748 9512,13732 9540,13724 9573,13724 9605,13724 9633,13732 9661,13748 9689,13764 9710,13784 9726,13813 L 9726,13813 Z"/>
       </g>
      </g>
      <g class="com.sun.star.drawing.EllipseShape">
       <g id="id20">
        <path fill="rgb(255,255,255)" stroke="none" d="M 7335,14295 C 7341,14327 7338,14356 7327,14387 7316,14417 7299,14441 7274,14462 7249,14483 7223,14495 7191,14500 7159,14506 7131,14503 7100,14492 7069,14481 7046,14465 7025,14440 7004,14415 6992,14389 6986,14357 6981,14325 6983,14296 6994,14265 7005,14235 7022,14211 7047,14190 7072,14169 7098,14157 7130,14152 7162,14146 7191,14149 7221,14160 7252,14171 7275,14187 7296,14212 7317,14237 7329,14263 7335,14295 L 7335,14295 Z"/>
        <path fill="none" stroke="rgb(0,0,0)" stroke-width="71" d="M 7335,14295 C 7341,14327 7338,14356 7327,14387 7316,14417 7299,14441 7274,14462 7249,14483 7223,14495 7191,14500 7159,14506 7131,14503 7100,14492 7069,14481 7046,14465 7025,14440 7004,14415 6992,14389 6986,14357 6981,14325 6983,14296 6994,14265 7005,14235 7022,14211 7047,14190 7072,14169 7098,14157 7130,14152 7162,14146 7191,14149 7221,14160 7252,14171 7275,14187 7296,14212 7317,14237 7329,14263 7335,14295 L 7335,14295 Z"/>
       </g>
      </g>
      <g class="com.sun.star.drawing.EllipseShape">
       <g id="id21">
        <path fill="rgb(255,255,255)" stroke="none" d="M 4921,13931 C 4916,13963 4904,13989 4883,14014 4862,14039 4838,14056 4808,14067 4777,14078 4748,14080 4716,14075 4684,14069 4658,14057 4633,14036 4608,14015 4592,13992 4581,13961 4570,13930 4567,13902 4573,13870 4578,13838 4590,13812 4611,13787 4632,13762 4656,13745 4686,13734 4717,13723 4746,13720 4778,13726 4810,13732 4836,13744 4861,13765 4886,13786 4902,13809 4913,13840 4924,13870 4927,13899 4921,13931 L 4921,13931 Z"/>
        <path fill="none" stroke="rgb(0,0,0)" stroke-width="71" d="M 4921,13931 C 4916,13963 4904,13989 4883,14014 4862,14039 4838,14056 4808,14067 4777,14078 4748,14080 4716,14075 4684,14069 4658,14057 4633,14036 4608,14015 4592,13992 4581,13961 4570,13930 4567,13902 4573,13870 4578,13838 4590,13812 4611,13787 4632,13762 4656,13745 4686,13734 4717,13723 4746,13720 4778,13726 4810,13732 4836,13744 4861,13765 4886,13786 4902,13809 4913,13840 4924,13870 4927,13899 4921,13931 L 4921,13931 Z"/>
       </g>
      </g>
      <g class="com.sun.star.drawing.EllipseShape">
       <g id="id22">
        <path fill="rgb(255,255,255)" stroke="none" d="M 2778,12765 C 2762,12793 2741,12813 2713,12830 2685,12846 2657,12853 2625,12853 2592,12853 2564,12846 2536,12830 2508,12813 2488,12793 2471,12765 2455,12737 2448,12709 2448,12676 2448,12644 2455,12616 2472,12588 2488,12560 2508,12539 2536,12523 2565,12507 2592,12499 2625,12499 2657,12499 2685,12507 2713,12523 2742,12539 2762,12560 2778,12588 2794,12616 2802,12644 2802,12676 2802,12709 2794,12737 2778,12765 L 2778,12765 Z"/>
        <path fill="none" stroke="rgb(0,0,0)" stroke-width="71" d="M 2778,12765 C 2762,12793 2741,12813 2713,12830 2685,12846 2657,12853 2625,12853 2592,12853 2564,12846 2536,12830 2508,12813 2488,12793 2471,12765 2455,12737 2448,12709 2448,12676 2448,12644 2455,12616 2472,12588 2488,12560 2508,12539 2536,12523 2565,12507 2592,12499 2625,12499 2657,12499 2685,12507 2713,12523 2742,12539 2762,12560 2778,12588 2794,12616 2802,12644 2802,12676 2802,12709 2794,12737 2778,12765 L 2778,12765 Z"/>
       </g>
      </g>
      <g class="com.sun.star.drawing.EllipseShape">
       <g id="id23">
        <path fill="rgb(255,255,255)" stroke="none" d="M 1164,10933 C 1139,10954 1113,10966 1081,10972 1049,10978 1020,10975 990,10964 959,10953 936,10937 915,10912 894,10887 882,10861 876,10829 870,10796 873,10768 884,10737 895,10707 912,10683 937,10662 962,10641 988,10629 1020,10624 1052,10618 1080,10620 1111,10631 1142,10643 1165,10659 1186,10684 1207,10709 1219,10735 1225,10767 1230,10799 1228,10828 1217,10858 1206,10889 1189,10912 1164,10933 L 1164,10933 Z"/>
        <path fill="none" stroke="rgb(0,0,0)" stroke-width="71" d="M 1164,10933 C 1139,10954 1113,10966 1081,10972 1049,10978 1020,10975 990,10964 959,10953 936,10937 915,10912 894,10887 882,10861 876,10829 870,10796 873,10768 884,10737 895,10707 912,10683 937,10662 962,10641 988,10629 1020,10624 1052,10618 1080,10620 1111,10631 1142,10643 1165,10659 1186,10684 1207,10709 1219,10735 1225,10767 1230,10799 1228,10828 1217,10858 1206,10889 1189,10912 1164,10933 L 1164,10933 Z"/>
       </g>
      </g>
      <g class="com.sun.star.drawing.EllipseShape">
       <g id="id24">
        <path fill="rgb(255,255,255)" stroke="none" d="M 273,8659 C 243,8670 214,8673 182,8667 150,8661 124,8649 99,8628 74,8607 58,8584 47,8553 35,8523 33,8494 39,8462 44,8430 56,8404 77,8379 98,8354 122,8338 152,8326 183,8315 212,8313 244,8318 276,8324 302,8336 327,8357 352,8378 368,8402 379,8432 390,8463 393,8491 387,8524 382,8556 369,8582 348,8607 328,8632 304,8648 273,8659 L 273,8659 Z"/>
        <path fill="none" stroke="rgb(0,0,0)" stroke-width="71" d="M 273,8659 C 243,8670 214,8673 182,8667 150,8661 124,8649 99,8628 74,8607 58,8584 47,8553 35,8523 33,8494 39,8462 44,8430 56,8404 77,8379 98,8354 122,8338 152,8326 183,8315 212,8313 244,8318 276,8324 302,8336 327,8357 352,8378 368,8402 379,8432 390,8463 393,8491 387,8524 382,8556 369,8582 348,8607 328,8632 304,8648 273,8659 L 273,8659 Z"/>
       </g>
      </g>
      <g class="com.sun.star.drawing.EllipseShape">
       <g id="id25">
        <path fill="rgb(255,255,255)" stroke="none" d="M 213,6221 C 180,6221 153,6214 125,6197 96,6181 76,6161 60,6133 43,6104 36,6077 36,6044 36,6011 43,5984 60,5956 76,5927 96,5907 124,5891 153,5874 180,5867 213,5867 246,5867 273,5874 301,5891 330,5907 350,5927 366,5956 383,5984 390,6011 390,6044 390,6077 383,6104 366,6133 350,6161 330,6181 302,6197 273,6214 246,6221 213,6221 L 213,6221 Z"/>
        <path fill="none" stroke="rgb(0,0,0)" stroke-width="71" d="M 213,6221 C 180,6221 153,6214 125,6197 96,6181 76,6161 60,6133 43,6104 36,6077 36,6044 36,6011 43,5984 60,5956 76,5927 96,5907 124,5891 153,5874 180,5867 213,5867 246,5867 273,5874 301,5891 330,5907 350,5927 366,5956 383,5984 390,6011 390,6044 390,6077 383,6104 366,6133 350,6161 330,6181 302,6197 273,6214 246,6221 213,6221 L 213,6221 Z"/>
       </g>
      </g>
      <g class="com.sun.star.drawing.EllipseShape">
       <g id="id26">
        <path fill="rgb(255,255,255)" stroke="none" d="M 989,3908 C 959,3897 935,3881 914,3856 893,3831 881,3805 875,3773 870,3740 872,3712 883,3681 895,3651 911,3627 936,3606 961,3585 987,3573 1019,3568 1051,3562 1080,3564 1110,3576 1141,3587 1164,3603 1185,3628 1206,3653 1218,3679 1224,3711 1230,3743 1227,3772 1216,3802 1205,3833 1188,3857 1163,3877 1139,3898 1113,3911 1080,3916 1048,3922 1020,3919 989,3908 L 989,3908 Z"/>
        <path fill="none" stroke="rgb(0,0,0)" stroke-width="71" d="M 989,3908 C 959,3897 935,3881 914,3856 893,3831 881,3805 875,3773 870,3740 872,3712 883,3681 895,3651 911,3627 936,3606 961,3585 987,3573 1019,3568 1051,3562 1080,3564 1110,3576 1141,3587 1164,3603 1185,3628 1206,3653 1218,3679 1224,3711 1230,3743 1227,3772 1216,3802 1205,3833 1188,3857 1163,3877 1139,3898 1113,3911 1080,3916 1048,3922 1020,3919 989,3908 L 989,3908 Z"/>
       </g>
      </g>
      <g class="com.sun.star.drawing.EllipseShape">
       <g id="id27">
        <path fill="rgb(255,255,255)" stroke="none" d="M 2512,2002 C 2487,1981 2471,1957 2459,1927 2448,1896 2446,1868 2451,1836 2457,1803 2469,1778 2490,1753 2511,1728 2535,1711 2565,1700 2596,1689 2624,1686 2657,1692 2689,1698 2715,1710 2740,1731 2765,1752 2781,1775 2792,1806 2803,1837 2806,1865 2800,1897 2794,1929 2782,1955 2761,1980 2740,2005 2717,2022 2686,2033 2656,2044 2627,2046 2595,2041 2563,2035 2537,2023 2512,2002 L 2512,2002 Z"/>
        <path fill="none" stroke="rgb(0,0,0)" stroke-width="71" d="M 2512,2002 C 2487,1981 2471,1957 2459,1927 2448,1896 2446,1868 2451,1836 2457,1803 2469,1778 2490,1753 2511,1728 2535,1711 2565,1700 2596,1689 2624,1686 2657,1692 2689,1698 2715,1710 2740,1731 2765,1752 2781,1775 2792,1806 2803,1837 2806,1865 2800,1897 2794,1929 2782,1955 2761,1980 2740,2005 2717,2022 2686,2033 2656,2044 2627,2046 2595,2041 2563,2035 2537,2023 2512,2002 L 2512,2002 Z"/>
       </g>
      </g>
      <g class="com.sun.star.drawing.EllipseShape">
       <g id="id28">
        <path fill="rgb(255,255,255)" stroke="none" d="M 4594,729 C 4578,701 4570,673 4570,641 4570,608 4578,581 4594,552 4610,524 4631,504 4659,488 4687,471 4715,464 4747,464 4780,464 4808,471 4836,487 4864,504 4884,524 4901,552 4917,580 4924,608 4924,641 4924,673 4917,701 4901,729 4884,757 4864,778 4836,794 4808,810 4780,818 4747,818 4715,818 4687,810 4659,794 4631,778 4610,758 4594,729 L 4594,729 Z"/>
        <path fill="none" stroke="rgb(0,0,0)" stroke-width="71" d="M 4594,729 C 4578,701 4570,673 4570,641 4570,608 4578,581 4594,552 4610,524 4631,504 4659,488 4687,471 4715,464 4747,464 4780,464 4808,471 4836,487 4864,504 4884,524 4901,552 4917,580 4924,608 4924,641 4924,673 4917,701 4901,729 4884,757 4864,778 4836,794 4808,810 4780,818 4747,818 4715,818 4687,810 4659,794 4631,778 4610,758 4594,729 L 4594,729 Z"/>
       </g>
      </g>
     </g>
    </g>
   </g>
  </g>
 </g>
</svg>