<?xml version="1.0" encoding="UTF-8"?>
<!DOCTYPE svg PUBLIC "-//W3C//DTD SVG 1.1//EN" "http://www.w3.org/Graphics/SVG/1.1/DTD/svg11.dtd">
<svg version="1.1" width="141.89mm" height="143.56mm" viewBox="0 0 14189 14356" preserveAspectRatio="xMidYMid" fill-rule="evenodd" clip-path="url(#presentation_clip_path)" stroke-width="28.222" stroke-linejoin="round" xmlns="http://www.w3.org/2000/svg" xmlns:ooo="http://xml.openoffice.org/svg/export" xmlns:xlink="http://www.w3.org/1999/xlink" xml:space="preserve">
 <defs class="ClipPathGroup">
  <clipPath id="presentation_clip_path" clipPathUnits="userSpaceOnUse">
   <rect x="0" y="0" width="14189" height="14356"/>
  </clipPath>
 </defs>
 <defs class="TextShapeIndex">
  
 </defs>
 <defs class="EmbeddedBulletChars">
  <g id="bullet-char-template57356" transform="scale(0.00048828125,-0.00048828125)">
   <path d="M 580,1141 L 1163,571 580,0 -4,571 580,1141 Z"/>
  </g>
  <g id="bullet-char-template57354" transform="scale(0.00048828125,-0.00048828125)">
   <path d="M 8,1128 L 1137,1128 1137,0 8,0 8,1128 Z"/>
  </g>
  <g id="bullet-char-template10146" transform="scale(0.00048828125,-0.00048828125)">
   <path d="M 174,0 L 602,739 174,1481 1456,739 174,0 Z M 1358,739 L 309,1346 659,739 1358,739 Z"/>
  </g>
  <g id="bullet-char-template10132" transform="scale(0.00048828125,-0.00048828125)">
   <path d="M 2015,739 L 1276,0 717,0 1260,543 174,543 174,936 1260,936 717,1481 1274,1481 2015,739 Z"/>
  </g>
  <g id="bullet-char-template10007" transform="scale(0.00048828125,-0.00048828125)">
   <path d="M 0,-2 C -7,14 -16,27 -25,37 L 356,567 C 262,823 215,952 215,954 215,979 228,992 255,992 264,992 276,990 289,987 310,991 331,999 354,1012 L 381,999 492,748 772,1049 836,1024 860,1049 C 881,1039 901,1025 922,1006 886,937 835,863 770,784 769,783 710,716 594,584 L 774,223 C 774,196 753,168 711,139 L 727,119 C 717,90 699,76 672,76 641,76 570,178 457,381 L 164,-76 C 142,-110 111,-127 72,-127 30,-127 9,-110 8,-76 1,-67 -2,-52 -2,-32 -2,-23 -1,-13 0,-2 Z"/>
  </g>
  <g id="bullet-char-template10004" transform="scale(0.00048828125,-0.00048828125)">
   <path d="M 285,-33 C 182,-33 111,30 74,156 52,228 41,333 41,471 41,549 55,616 82,672 116,743 169,778 240,778 293,778 328,747 346,684 L 369,508 C 377,444 397,411 428,410 L 1163,1116 C 1174,1127 1196,1133 1229,1133 1271,1133 1292,1118 1292,1087 L 1292,965 C 1292,929 1282,901 1262,881 L 442,47 C 390,-6 338,-33 285,-33 Z"/>
  </g>
  <g id="bullet-char-template9679" transform="scale(0.00048828125,-0.00048828125)">
   <path d="M 813,0 C 632,0 489,54 383,161 276,268 223,411 223,592 223,773 276,916 383,1023 489,1130 632,1184 813,1184 992,1184 1136,1130 1245,1023 1353,916 1407,772 1407,592 1407,412 1353,268 1245,161 1136,54 992,0 813,0 Z"/>
  </g>
  <g id="bullet-char-template8226" transform="scale(0.00048828125,-0.00048828125)">
   <path d="M 346,457 C 273,457 209,483 155,535 101,586 74,649 74,723 74,796 101,859 155,911 209,963 273,989 346,989 419,989 480,963 531,910 582,859 608,796 608,723 608,648 583,586 532,535 482,483 420,457 346,457 Z"/>
  </g>
  <g id="bullet-char-template8211" transform="scale(0.00048828125,-0.00048828125)">
   <path d="M -4,459 L 1135,459 1135,606 -4,606 -4,459 Z"/>
  </g>
 </defs>
 <defs class="TextEmbeddedBitmaps"/>
 <g>
  <g id="id2" class="Master_Slide">
   <g id="bg-id2" class="Background"/>
   <g id="bo-id2" class="BackgroundObjects"/>
  </g>
 </g>
 <g class="SlideGroup">
  <g>
   <g id="id1" class="Slide" clip-path="url(#presentation_clip_path)">
    <g class="Page">
     <g class="Group">
      <g class="com.sun.star.drawing.EllipseShape">
       <g id="id3">
        <path fill="rgb(255,255,255)" stroke="none" d="M 7093,14321 C 5794,14321 4690,14025 3565,13376 2440,12726 1632,11918 982,10793 333,9668 37,8564 37,7265 37,5966 333,4862 982,3737 1632,2612 2440,1804 3565,1154 4690,505 5794,209 7093,209 8392,209 9496,505 10621,1154 11746,1804 12554,2612 13204,3737 13853,4862 14149,5966 14149,7265 14149,8564 13853,9668 13204,10793 12554,11918 11746,12726 10621,13376 9496,14025 8392,14321 7093,14321 L 7093,14321 Z"/>
        <path fill="none" stroke="rgb(192,192,192)" stroke-width="71" d="M 7093,14321 C 5794,14321 4690,14025 3565,13376 2440,12726 1632,11918 982,10793 333,9668 37,8564 37,7265 37,5966 333,4862 982,3737 1632,2612 2440,1804 3565,1154 4690,505 5794,209 7093,209 8392,209 9496,505 10621,1154 11746,1804 12554,2612 13204,3737 13853,4862 14149,5966 14149,7265 14149,8564 13853,9668 13204,10793 12554,11918 11746,12726 10621,13376 9496,14025 8392,14321 7093,14321 L 7093,14321 Z"/>
       </g>
      </g>
      <g class="com.sun.star.drawing.EllipseShape">
       <g id="id4">
        <path fill="rgb(255,255,255)" stroke="none" d="M 7093,7265 L 9548,5307 C 9651,5436 9730,5552 9812,5695 10101,6196 10233,6687 10233,7265 10233,7513 10209,7722 10154,7964 L 7093,7265 Z"/>
        <path fill="none" stroke="rgb(192,192,192)" stroke-width="71" d="M 7093,7265 L 9548,5307 C 9651,5436 9730,5552 9812,5695 10101,6196 10233,6687 10233,7265 10233,7513 10209,7722 10154,7964 L 7093,7265 Z"/>
       </g>
      </g>
      <g class="com.sun.star.drawing.TextShape">
       <g id="id5">
        <text class="TextShape"><tspan class="TextParagraph" font-family="DejaVu Sans, sans-serif" font-size="635px" font-weight="400"><tspan class="TextPosition" x="8275" y="7138"><tspan fill="rgb(192,192,192)" stroke="none">51³⁄₇°</tspan></tspan></tspan></text>
       </g>
      </g>
      <g class="com.sun.star.drawing.PolyLineShape">
       <g id="id6">
        <path fill="none" stroke="rgb(192,192,192)" stroke-width="71" d="M 7092,7266 L 7092,210 7092,7266 12608,2867 7092,7266 13971,8836 7092,7266 10153,13623 7092,7266 4030,13623 7092,7266 213,8836 7092,7266 1576,2867 7092,7266 Z"/>
       </g>
      </g>
      <g class="com.sun.star.drawing.EllipseShape">
       <g id="id7">
        <path fill="rgb(255,255,255)" stroke="none" d="M 7095,7444 C 7062,7444 7035,7437 7007,7420 6978,7404 6958,7384 6942,7356 6925,7327 6918,7300 6918,7267 6918,7234 6925,7207 6942,7179 6958,7150 6978,7130 7007,7114 7035,7097 7062,7090 7095,7090 7128,7090 7155,7097 7184,7114 7212,7130 7232,7150 7248,7179 7265,7207 7272,7234 7272,7267 7272,7300 7265,7327 7248,7356 7232,7384 7212,7404 7184,7420 7155,7437 7128,7444 7095,7444 L 7095,7444 Z"/>
        <path fill="none" stroke="rgb(192,192,192)" stroke-width="71" d="M 7095,7444 C 7062,7444 7035,7437 7007,7420 6978,7404 6958,7384 6942,7356 6925,7327 6918,7300 6918,7267 6918,7234 6925,7207 6942,7179 6958,7150 6978,7130 7007,7114 7035,7097 7062,7090 7095,7090 7128,7090 7155,7097 7184,7114 7212,7130 7232,7150 7248,7179 7265,7207 7272,7234 7272,7267 7272,7300 7265,7327 7248,7356 7232,7384 7212,7404 7184,7420 7155,7437 7128,7444 7095,7444 L 7095,7444 Z"/>
       </g>
      </g>
      <g class="com.sun.star.drawing.EllipseShape">
       <g id="id8">
        <path fill="rgb(255,255,255)" stroke="none" d="M 7095,211 L 8923,1091 C 8900,1139 8879,1179 8852,1226 8665,1549 8433,1781 8110,1968 7786,2155 7469,2240 7095,2240 6721,2240 6404,2155 6081,1968 5757,1781 5525,1549 5338,1226 5311,1179 5290,1140 5267,1092 L 7095,211 Z"/>
        <path fill="none" stroke="rgb(0,0,0)" stroke-width="71" d="M 7095,211 L 8923,1091 C 8900,1139 8879,1179 8852,1226 8665,1549 8433,1781 8110,1968 7786,2155 7469,2240 7095,2240 6721,2240 6404,2155 6081,1968 5757,1781 5525,1549 5338,1226 5311,1179 5290,1140 5267,1092 L 7095,211 Z"/>
       </g>
      </g>
      <g class="com.sun.star.drawing.TextShape">
       <g id="id9">
        <text class="TextShape"><tspan class="TextParagraph" font-family="DejaVu Sans, sans-serif" font-size="635px" font-weight="400"><tspan class="TextPosition" x="5958" y="1610"><tspan fill="rgb(0,0,0)" stroke="none">128 ⁴⁄₇°</tspan></tspan></tspan></text>
       </g>
      </g>
      <g class="com.sun.star.drawing.PolyLineShape">
       <g id="id10">
        <path fill="none" stroke="rgb(0,0,0)" stroke-width="141" d="M 7094,215 L 12610,2869 13975,8836 10157,13625 4032,13625 217,8836 1580,2866 7094,212"/>
       </g>
      </g>
      <g class="com.sun.star.drawing.EllipseShape">
       <g id="id11">
        <path fill="rgb(255,255,255)" stroke="none" d="M 6935,135 C 6950,106 6969,84 6996,66 7023,48 7050,39 7083,37 7115,36 7144,41 7173,56 7202,70 7223,89 7241,117 7259,144 7268,171 7270,204 7272,236 7266,264 7252,293 7237,322 7218,344 7191,362 7164,380 7137,389 7104,391 7072,393 7043,387 7014,372 6985,358 6964,339 6946,312 6928,284 6919,257 6917,225 6915,192 6921,164 6935,135 L 6935,135 Z"/>
        <path fill="none" stroke="rgb(0,0,0)" stroke-width="71" d="M 6935,135 C 6950,106 6969,84 6996,66 7023,48 7050,39 7083,37 7115,36 7144,41 7173,56 7202,70 7223,89 7241,117 7259,144 7268,171 7270,204 7272,236 7266,264 7252,293 7237,322 7218,344 7191,362 7164,380 7137,389 7104,391 7072,393 7043,387 7014,372 6985,358 6964,339 6946,312 6928,284 6919,257 6917,225 6915,192 6921,164 6935,135 L 6935,135 Z"/>
       </g>
      </g>
      <g class="com.sun.star.drawing.EllipseShape">
       <g id="id12">
        <path fill="rgb(255,255,255)" stroke="none" d="M 12450,2794 C 12464,2765 12483,2743 12510,2724 12537,2706 12564,2697 12596,2694 12629,2692 12657,2697 12687,2711 12716,2725 12738,2744 12756,2771 12774,2798 12784,2825 12786,2857 12789,2890 12783,2918 12769,2947 12755,2977 12736,2999 12709,3017 12683,3035 12655,3045 12623,3047 12590,3050 12562,3044 12533,3030 12504,3016 12482,2997 12464,2970 12445,2943 12436,2916 12433,2884 12431,2851 12436,2823 12450,2794 L 12450,2794 Z"/>
        <path fill="none" stroke="rgb(0,0,0)" stroke-width="71" d="M 12450,2794 C 12464,2765 12483,2743 12510,2724 12537,2706 12564,2697 12596,2694 12629,2692 12657,2697 12687,2711 12716,2725 12738,2744 12756,2771 12774,2798 12784,2825 12786,2857 12789,2890 12783,2918 12769,2947 12755,2977 12736,2999 12709,3017 12683,3035 12655,3045 12623,3047 12590,3050 12562,3044 12533,3030 12504,3016 12482,2997 12464,2970 12445,2943 12436,2916 12433,2884 12431,2851 12436,2823 12450,2794 L 12450,2794 Z"/>
       </g>
      </g>
      <g class="com.sun.star.drawing.EllipseShape">
       <g id="id13">
        <path fill="rgb(255,255,255)" stroke="none" d="M 13936,8666 C 13967,8659 13996,8660 14027,8670 14058,8679 14083,8695 14105,8718 14127,8742 14140,8768 14148,8799 14155,8831 14154,8860 14144,8891 14135,8922 14119,8946 14095,8969 14072,8991 14046,9004 14014,9011 13983,9019 13954,9018 13923,9008 13892,8998 13867,8983 13845,8959 13823,8935 13810,8910 13802,8878 13795,8847 13796,8818 13806,8787 13815,8756 13831,8731 13855,8709 13878,8687 13904,8674 13936,8666 L 13936,8666 Z"/>
        <path fill="none" stroke="rgb(0,0,0)" stroke-width="71" d="M 13936,8666 C 13967,8659 13996,8660 14027,8670 14058,8679 14083,8695 14105,8718 14127,8742 14140,8768 14148,8799 14155,8831 14154,8860 14144,8891 14135,8922 14119,8946 14095,8969 14072,8991 14046,9004 14014,9011 13983,9019 13954,9018 13923,9008 13892,8998 13867,8983 13845,8959 13823,8935 13810,8910 13802,8878 13795,8847 13796,8818 13806,8787 13815,8756 13831,8731 13855,8709 13878,8687 13904,8674 13936,8666 L 13936,8666 Z"/>
       </g>
      </g>
      <g class="com.sun.star.drawing.EllipseShape">
       <g id="id14">
        <path fill="rgb(255,255,255)" stroke="none" d="M 10268,13487 C 10294,13507 10311,13530 10323,13561 10335,13591 10338,13619 10333,13652 10328,13684 10317,13710 10296,13736 10276,13761 10253,13778 10223,13790 10192,13802 10164,13805 10132,13800 10099,13795 10073,13784 10048,13764 10022,13743 10005,13720 9993,13690 9981,13660 9978,13631 9983,13599 9988,13567 9999,13540 10020,13515 10040,13489 10063,13472 10093,13460 10124,13449 10152,13445 10184,13450 10217,13455 10243,13467 10268,13487 L 10268,13487 Z"/>
        <path fill="none" stroke="rgb(0,0,0)" stroke-width="71" d="M 10268,13487 C 10294,13507 10311,13530 10323,13561 10335,13591 10338,13619 10333,13652 10328,13684 10317,13710 10296,13736 10276,13761 10253,13778 10223,13790 10192,13802 10164,13805 10132,13800 10099,13795 10073,13784 10048,13764 10022,13743 10005,13720 9993,13690 9981,13660 9978,13631 9983,13599 9988,13567 9999,13540 10020,13515 10040,13489 10063,13472 10093,13460 10124,13449 10152,13445 10184,13450 10217,13455 10243,13467 10268,13487 L 10268,13487 Z"/>
       </g>
      </g>
      <g class="com.sun.star.drawing.EllipseShape">
       <g id="id15">
        <path fill="rgb(255,255,255)" stroke="none" d="M 4211,13624 C 4211,13657 4204,13684 4187,13712 4171,13741 4151,13761 4122,13777 4094,13794 4067,13801 4034,13801 4001,13801 3974,13794 3945,13777 3917,13761 3897,13741 3881,13712 3864,13684 3857,13657 3857,13624 3857,13591 3864,13564 3881,13535 3897,13507 3917,13487 3945,13471 3974,13454 4001,13447 4034,13447 4067,13447 4094,13454 4122,13471 4151,13487 4171,13507 4187,13535 4204,13564 4211,13591 4211,13624 L 4211,13624 Z"/>
        <path fill="none" stroke="rgb(0,0,0)" stroke-width="71" d="M 4211,13624 C 4211,13657 4204,13684 4187,13712 4171,13741 4151,13761 4122,13777 4094,13794 4067,13801 4034,13801 4001,13801 3974,13794 3945,13777 3917,13761 3897,13741 3881,13712 3864,13684 3857,13657 3857,13624 3857,13591 3864,13564 3881,13535 3897,13507 3917,13487 3945,13471 3974,13454 4001,13447 4034,13447 4067,13447 4094,13454 4122,13471 4151,13487 4171,13507 4187,13535 4204,13564 4211,13591 4211,13624 L 4211,13624 Z"/>
       </g>
      </g>
      <g class="com.sun.star.drawing.EllipseShape">
       <g id="id16">
        <path fill="rgb(255,255,255)" stroke="none" d="M 327,8974 C 302,8995 275,9006 243,9011 211,9016 182,9013 152,9001 122,8989 99,8972 78,8946 58,8921 47,8895 42,8862 37,8830 40,8802 52,8771 64,8741 81,8718 106,8698 132,8677 158,8666 190,8661 223,8656 251,8659 281,8671 312,8683 335,8700 355,8726 375,8751 387,8778 392,8810 397,8842 393,8870 381,8901 370,8931 353,8954 327,8974 L 327,8974 Z"/>
        <path fill="none" stroke="rgb(0,0,0)" stroke-width="71" d="M 327,8974 C 302,8995 275,9006 243,9011 211,9016 182,9013 152,9001 122,8989 99,8972 78,8946 58,8921 47,8895 42,8862 37,8830 40,8802 52,8771 64,8741 81,8718 106,8698 132,8677 158,8666 190,8661 223,8656 251,8659 281,8671 312,8683 335,8700 355,8726 375,8751 387,8778 392,8810 397,8842 393,8870 381,8901 370,8931 353,8954 327,8974 L 327,8974 Z"/>
       </g>
      </g>
      <g class="com.sun.star.drawing.EllipseShape">
       <g id="id17">
        <path fill="rgb(255,255,255)" stroke="none" d="M 1544,3040 C 1512,3032 1487,3019 1463,2997 1439,2975 1424,2950 1414,2919 1404,2888 1403,2859 1411,2828 1418,2796 1431,2770 1453,2747 1476,2723 1500,2707 1531,2698 1562,2688 1591,2687 1623,2694 1654,2702 1680,2715 1704,2737 1727,2759 1743,2784 1752,2815 1762,2846 1763,2875 1756,2906 1748,2938 1735,2963 1713,2987 1691,3011 1666,3026 1635,3036 1604,3046 1576,3047 1544,3040 L 1544,3040 Z"/>
        <path fill="none" stroke="rgb(0,0,0)" stroke-width="71" d="M 1544,3040 C 1512,3032 1487,3019 1463,2997 1439,2975 1424,2950 1414,2919 1404,2888 1403,2859 1411,2828 1418,2796 1431,2770 1453,2747 1476,2723 1500,2707 1531,2698 1562,2688 1591,2687 1623,2694 1654,2702 1680,2715 1704,2737 1727,2759 1743,2784 1752,2815 1762,2846 1763,2875 1756,2906 1748,2938 1735,2963 1713,2987 1691,3011 1666,3026 1635,3036 1604,3046 1576,3047 1544,3040 L 1544,3040 Z"/>
       </g>
      </g>
     </g>
    </g>
   </g>
  </g>
 </g>
</svg>