<?xml version="1.0" encoding="UTF-8"?>
<!DOCTYPE svg PUBLIC "-//W3C//DTD SVG 1.1//EN" "http://www.w3.org/Graphics/SVG/1.1/DTD/svg11.dtd">
<svg version="1.1" width="143.25mm" height="143.58mm" viewBox="0 0 14325 14358" preserveAspectRatio="xMidYMid" fill-rule="evenodd" clip-path="url(#presentation_clip_path)" stroke-width="28.222" stroke-linejoin="round" xmlns="http://www.w3.org/2000/svg" xmlns:ooo="http://xml.openoffice.org/svg/export" xmlns:xlink="http://www.w3.org/1999/xlink" xml:space="preserve">
 <defs class="ClipPathGroup">
  <clipPath id="presentation_clip_path" clipPathUnits="userSpaceOnUse">
   <rect x="0" y="0" width="14325" height="14358"/>
  </clipPath>
 </defs>
 <defs class="TextShapeIndex">
  
 </defs>
 <defs class="EmbeddedBulletChars">
  <g id="bullet-char-template57356" transform="scale(0.00048828125,-0.00048828125)">
   <path d="M 580,1141 L 1163,571 580,0 -4,571 580,1141 Z"/>
  </g>
  <g id="bullet-char-template57354" transform="scale(0.00048828125,-0.00048828125)">
   <path d="M 8,1128 L 1137,1128 1137,0 8,0 8,1128 Z"/>
  </g>
  <g id="bullet-char-template10146" transform="scale(0.00048828125,-0.00048828125)">
   <path d="M 174,0 L 602,739 174,1481 1456,739 174,0 Z M 1358,739 L 309,1346 659,739 1358,739 Z"/>
  </g>
  <g id="bullet-char-template10132" transform="scale(0.00048828125,-0.00048828125)">
   <path d="M 2015,739 L 1276,0 717,0 1260,543 174,543 174,936 1260,936 717,1481 1274,1481 2015,739 Z"/>
  </g>
  <g id="bullet-char-template10007" transform="scale(0.00048828125,-0.00048828125)">
   <path d="M 0,-2 C -7,14 -16,27 -25,37 L 356,567 C 262,823 215,952 215,954 215,979 228,992 255,992 264,992 276,990 289,987 310,991 331,999 354,1012 L 381,999 492,748 772,1049 836,1024 860,1049 C 881,1039 901,1025 922,1006 886,937 835,863 770,784 769,783 710,716 594,584 L 774,223 C 774,196 753,168 711,139 L 727,119 C 717,90 699,76 672,76 641,76 570,178 457,381 L 164,-76 C 142,-110 111,-127 72,-127 30,-127 9,-110 8,-76 1,-67 -2,-52 -2,-32 -2,-23 -1,-13 0,-2 Z"/>
  </g>
  <g id="bullet-char-template10004" transform="scale(0.00048828125,-0.00048828125)">
   <path d="M 285,-33 C 182,-33 111,30 74,156 52,228 41,333 41,471 41,549 55,616 82,672 116,743 169,778 240,778 293,778 328,747 346,684 L 369,508 C 377,444 397,411 428,410 L 1163,1116 C 1174,1127 1196,1133 1229,1133 1271,1133 1292,1118 1292,1087 L 1292,965 C 1292,929 1282,901 1262,881 L 442,47 C 390,-6 338,-33 285,-33 Z"/>
  </g>
  <g id="bullet-char-template9679" transform="scale(0.00048828125,-0.00048828125)">
   <path d="M 813,0 C 632,0 489,54 383,161 276,268 223,411 223,592 223,773 276,916 383,1023 489,1130 632,1184 813,1184 992,1184 1136,1130 1245,1023 1353,916 1407,772 1407,592 1407,412 1353,268 1245,161 1136,54 992,0 813,0 Z"/>
  </g>
  <g id="bullet-char-template8226" transform="scale(0.00048828125,-0.00048828125)">
   <path d="M 346,457 C 273,457 209,483 155,535 101,586 74,649 74,723 74,796 101,859 155,911 209,963 273,989 346,989 419,989 480,963 531,910 582,859 608,796 608,723 608,648 583,586 532,535 482,483 420,457 346,457 Z"/>
  </g>
  <g id="bullet-char-template8211" transform="scale(0.00048828125,-0.00048828125)">
   <path d="M -4,459 L 1135,459 1135,606 -4,606 -4,459 Z"/>
  </g>
 </defs>
 <defs class="TextEmbeddedBitmaps"/>
 <g>
  <g id="id2" class="Master_Slide">
   <g id="bg-id2" class="Background"/>
   <g id="bo-id2" class="BackgroundObjects"/>
  </g>
 </g>
 <g class="SlideGroup">
  <g>
   <g id="id1" class="Slide" clip-path="url(#presentation_clip_path)">
    <g class="Page">
     <g class="Group">
      <g class="com.sun.star.drawing.EllipseShape">
       <g id="id3">
        <path fill="rgb(255,255,255)" stroke="none" d="M 7160,14323 C 5861,14323 4757,14027 3632,13378 2507,12728 1699,11920 1049,10795 400,9670 104,8566 104,7267 104,5968 400,4864 1049,3739 1699,2614 2507,1806 3632,1156 4757,507 5861,211 7160,211 8459,211 9563,507 10688,1156 11813,1806 12621,2614 13271,3739 13920,4864 14216,5968 14216,7267 14216,8566 13920,9670 13271,10795 12621,11920 11813,12728 10688,13378 9563,14027 8459,14323 7160,14323 L 7160,14323 Z"/>
        <path fill="none" stroke="rgb(192,192,192)" stroke-width="71" d="M 7160,14323 C 5861,14323 4757,14027 3632,13378 2507,12728 1699,11920 1049,10795 400,9670 104,8566 104,7267 104,5968 400,4864 1049,3739 1699,2614 2507,1806 3632,1156 4757,507 5861,211 7160,211 8459,211 9563,507 10688,1156 11813,1806 12621,2614 13271,3739 13920,4864 14216,5968 14216,7267 14216,8566 13920,9670 13271,10795 12621,11920 11813,12728 10688,13378 9563,14027 8459,14323 7160,14323 L 7160,14323 Z"/>
       </g>
      </g>
      <g class="com.sun.star.drawing.EllipseShape">
       <g id="id4">
        <path fill="rgb(255,255,255)" stroke="none" d="M 7160,7267 L 7160,4268 C 7712,4268 8181,4394 8659,4670 8819,4762 8947,4851 9088,4970 L 7160,7267 Z"/>
        <path fill="none" stroke="rgb(192,192,192)" stroke-width="71" d="M 7160,7267 L 7160,4268 C 7712,4268 8181,4394 8659,4670 8819,4762 8947,4851 9088,4970 L 7160,7267 Z"/>
       </g>
      </g>
      <g class="com.sun.star.drawing.TextShape">
       <g id="id5">
        <text class="TextShape"><tspan class="TextParagraph" font-family="Nimbus Sans L, sans-serif" font-size="776px" font-weight="400"><tspan class="TextPosition" x="7296" y="5730"><tspan fill="rgb(192,192,192)" stroke="none">40°</tspan></tspan></tspan></text>
       </g>
      </g>
      <g class="com.sun.star.drawing.PolyLineShape">
       <g id="id6">
        <path fill="none" stroke="rgb(192,192,192)" stroke-width="71" d="M 7161,7268 L 7161,212 7161,7268 11696,1863 7161,7268 14109,6042 7161,7268 13271,10795 7161,7268 9574,13898 7161,7268 4748,13898 7161,7268 1051,10795 7161,7268 213,6042 7161,7268 2626,1863 7161,7268 Z"/>
       </g>
      </g>
      <g class="com.sun.star.drawing.EllipseShape">
       <g id="id7">
        <path fill="rgb(255,255,255)" stroke="none" d="M 7162,7444 C 7129,7444 7102,7437 7074,7420 7045,7404 7025,7384 7009,7356 6992,7327 6985,7300 6985,7267 6985,7234 6992,7207 7009,7179 7025,7150 7045,7130 7074,7114 7102,7097 7129,7090 7162,7090 7195,7090 7222,7097 7251,7114 7279,7130 7299,7150 7315,7179 7332,7207 7339,7234 7339,7267 7339,7300 7332,7327 7315,7356 7299,7384 7279,7404 7251,7420 7222,7437 7195,7444 7162,7444 L 7162,7444 Z"/>
        <path fill="none" stroke="rgb(192,192,192)" stroke-width="71" d="M 7162,7444 C 7129,7444 7102,7437 7074,7420 7045,7404 7025,7384 7009,7356 6992,7327 6985,7300 6985,7267 6985,7234 6992,7207 7009,7179 7025,7150 7045,7130 7074,7114 7102,7097 7129,7090 7162,7090 7195,7090 7222,7097 7251,7114 7279,7130 7299,7150 7315,7179 7332,7207 7339,7234 7339,7267 7339,7300 7332,7327 7315,7356 7299,7384 7279,7404 7251,7420 7222,7437 7195,7444 7162,7444 L 7162,7444 Z"/>
       </g>
      </g>
      <g class="com.sun.star.drawing.EllipseShape">
       <g id="id8">
        <path fill="rgb(255,255,255)" stroke="none" d="M 7162,212 L 8848,825 C 8810,929 8771,1013 8716,1109 8550,1395 8345,1600 8059,1766 7773,1931 7492,2006 7162,2006 6831,2006 6550,1931 6264,1766 5978,1600 5773,1395 5607,1109 5552,1013 5513,929 5475,825 L 7162,212 Z"/>
        <path fill="none" stroke="rgb(0,0,0)" stroke-width="71" d="M 7162,212 L 8848,825 C 8810,929 8771,1013 8716,1109 8550,1395 8345,1600 8059,1766 7773,1931 7492,2006 7162,2006 6831,2006 6550,1931 6264,1766 5978,1600 5773,1395 5607,1109 5552,1013 5513,929 5475,825 L 7162,212 Z"/>
       </g>
      </g>
      <g class="com.sun.star.drawing.TextShape">
       <g id="id9">
        <text class="TextShape"><tspan class="TextParagraph" font-family="Nimbus Sans L, sans-serif" font-size="776px" font-weight="400"><tspan class="TextPosition" x="6273" y="1574"><tspan fill="rgb(0,0,0)" stroke="none">140°</tspan></tspan></tspan></text>
       </g>
      </g>
      <g class="com.sun.star.drawing.PolyLineShape">
       <g id="id10">
        <path fill="none" stroke="rgb(0,0,0)" stroke-width="141" d="M 7163,214 L 11696,1866 14109,6042 13272,10796 9573,13898 4747,13897 1049,10794 211,6041 2624,1861 7159,212"/>
       </g>
      </g>
      <g class="com.sun.star.drawing.EllipseShape">
       <g id="id11">
        <path fill="rgb(255,255,255)" stroke="none" d="M 7037,89 C 7060,66 7084,51 7116,43 7147,35 7176,35 7207,43 7239,51 7264,66 7287,89 7310,112 7324,137 7333,168 7341,200 7341,228 7333,260 7324,291 7310,316 7287,339 7264,362 7239,377 7207,385 7176,393 7147,393 7116,385 7084,377 7060,362 7037,339 7013,316 6999,291 6991,260 6982,228 6982,200 6991,168 6999,137 7013,112 7037,89 L 7037,89 Z"/>
        <path fill="none" stroke="rgb(0,0,0)" stroke-width="71" d="M 7037,89 C 7060,66 7084,51 7116,43 7147,35 7176,35 7207,43 7239,51 7264,66 7287,89 7310,112 7324,137 7333,168 7341,200 7341,228 7333,260 7324,291 7310,316 7287,339 7264,362 7239,377 7207,385 7176,393 7147,393 7116,385 7084,377 7060,362 7037,339 7013,316 6999,291 6991,260 6982,228 6982,200 6991,168 6999,137 7013,112 7037,89 L 7037,89 Z"/>
       </g>
      </g>
      <g class="com.sun.star.drawing.EllipseShape">
       <g id="id12">
        <path fill="rgb(255,255,255)" stroke="none" d="M 11531,1804 C 11542,1773 11558,1750 11583,1729 11608,1708 11634,1696 11666,1690 11699,1685 11727,1687 11758,1698 11788,1710 11812,1726 11833,1751 11854,1776 11866,1802 11871,1834 11877,1866 11875,1895 11863,1925 11852,1956 11836,1979 11811,2000 11786,2021 11760,2033 11728,2039 11696,2045 11667,2042 11637,2031 11606,2020 11582,2003 11561,1978 11541,1953 11528,1927 11523,1895 11517,1863 11520,1835 11531,1804 L 11531,1804 Z"/>
        <path fill="none" stroke="rgb(0,0,0)" stroke-width="71" d="M 11531,1804 C 11542,1773 11558,1750 11583,1729 11608,1708 11634,1696 11666,1690 11699,1685 11727,1687 11758,1698 11788,1710 11812,1726 11833,1751 11854,1776 11866,1802 11871,1834 11877,1866 11875,1895 11863,1925 11852,1956 11836,1979 11811,2000 11786,2021 11760,2033 11728,2039 11696,2045 11667,2042 11637,2031 11606,2020 11582,2003 11561,1978 11541,1953 11528,1927 11523,1895 11517,1863 11520,1835 11531,1804 L 11531,1804 Z"/>
       </g>
      </g>
      <g class="com.sun.star.drawing.EllipseShape">
       <g id="id13">
        <path fill="rgb(255,255,255)" stroke="none" d="M 14023,5891 C 14051,5875 14079,5867 14111,5867 14144,5867 14171,5875 14200,5891 14228,5907 14248,5927 14265,5956 14281,5984 14288,6012 14288,6044 14288,6077 14281,6104 14265,6133 14248,6161 14228,6181 14200,6198 14171,6214 14144,6221 14111,6221 14079,6221 14051,6214 14023,6198 13994,6181 13974,6161 13958,6133 13942,6104 13934,6077 13934,6044 13934,6012 13942,5984 13958,5956 13974,5927 13994,5907 14023,5891 L 14023,5891 Z"/>
        <path fill="none" stroke="rgb(0,0,0)" stroke-width="71" d="M 14023,5891 C 14051,5875 14079,5867 14111,5867 14144,5867 14171,5875 14200,5891 14228,5907 14248,5927 14265,5956 14281,5984 14288,6012 14288,6044 14288,6077 14281,6104 14265,6133 14248,6161 14228,6181 14200,6198 14171,6214 14144,6221 14111,6221 14079,6221 14051,6214 14023,6198 13994,6181 13974,6161 13958,6133 13942,6104 13934,6077 13934,6044 13934,6012 13942,5984 13958,5956 13974,5927 13994,5907 14023,5891 L 14023,5891 Z"/>
       </g>
      </g>
      <g class="com.sun.star.drawing.EllipseShape">
       <g id="id14">
        <path fill="rgb(255,255,255)" stroke="none" d="M 13303,10621 C 13335,10626 13361,10638 13386,10659 13411,10680 13428,10704 13439,10734 13450,10765 13452,10794 13447,10826 13441,10858 13429,10884 13408,10909 13387,10934 13364,10950 13333,10961 13302,10972 13274,10975 13242,10969 13210,10964 13184,10952 13159,10931 13134,10910 13117,10886 13106,10856 13095,10825 13092,10796 13098,10764 13104,10732 13116,10706 13137,10681 13158,10656 13181,10640 13212,10629 13242,10618 13271,10615 13303,10621 L 13303,10621 Z"/>
        <path fill="none" stroke="rgb(0,0,0)" stroke-width="71" d="M 13303,10621 C 13335,10626 13361,10638 13386,10659 13411,10680 13428,10704 13439,10734 13450,10765 13452,10794 13447,10826 13441,10858 13429,10884 13408,10909 13387,10934 13364,10950 13333,10961 13302,10972 13274,10975 13242,10969 13210,10964 13184,10952 13159,10931 13134,10910 13117,10886 13106,10856 13095,10825 13092,10796 13098,10764 13104,10732 13116,10706 13137,10681 13158,10656 13181,10640 13212,10629 13242,10618 13271,10615 13303,10621 L 13303,10621 Z"/>
       </g>
      </g>
      <g class="com.sun.star.drawing.EllipseShape">
       <g id="id15">
        <path fill="rgb(255,255,255)" stroke="none" d="M 9712,13786 C 9733,13811 9745,13837 9751,13869 9757,13901 9754,13930 9743,13960 9732,13991 9716,14014 9691,14035 9666,14056 9640,14068 9608,14074 9575,14080 9547,14077 9516,14066 9486,14055 9462,14038 9441,14013 9420,13988 9408,13962 9402,13930 9397,13898 9399,13870 9410,13839 9422,13809 9438,13785 9463,13764 9488,13743 9514,13731 9546,13725 9578,13720 9607,13722 9637,13733 9668,13744 9691,13761 9712,13786 L 9712,13786 Z"/>
        <path fill="none" stroke="rgb(0,0,0)" stroke-width="71" d="M 9712,13786 C 9733,13811 9745,13837 9751,13869 9757,13901 9754,13930 9743,13960 9732,13991 9716,14014 9691,14035 9666,14056 9640,14068 9608,14074 9575,14080 9547,14077 9516,14066 9486,14055 9462,14038 9441,14013 9420,13988 9408,13962 9402,13930 9397,13898 9399,13870 9410,13839 9422,13809 9438,13785 9463,13764 9488,13743 9514,13731 9546,13725 9578,13720 9607,13722 9637,13733 9668,13744 9691,13761 9712,13786 L 9712,13786 Z"/>
       </g>
      </g>
      <g class="com.sun.star.drawing.EllipseShape">
       <g id="id16">
        <path fill="rgb(255,255,255)" stroke="none" d="M 4928,13900 C 4928,13933 4921,13960 4904,13989 4888,14017 4868,14037 4840,14053 4811,14070 4784,14077 4751,14077 4718,14077 4691,14070 4663,14053 4634,14037 4614,14017 4598,13989 4581,13960 4574,13933 4574,13900 4574,13867 4581,13840 4598,13812 4614,13783 4634,13763 4663,13747 4691,13730 4718,13723 4751,13723 4784,13723 4811,13730 4840,13747 4868,13763 4888,13783 4904,13812 4921,13840 4928,13867 4928,13900 L 4928,13900 Z"/>
        <path fill="none" stroke="rgb(0,0,0)" stroke-width="71" d="M 4928,13900 C 4928,13933 4921,13960 4904,13989 4888,14017 4868,14037 4840,14053 4811,14070 4784,14077 4751,14077 4718,14077 4691,14070 4663,14053 4634,14037 4614,14017 4598,13989 4581,13960 4574,13933 4574,13900 4574,13867 4581,13840 4598,13812 4614,13783 4634,13763 4663,13747 4691,13730 4718,13723 4751,13723 4784,13723 4811,13730 4840,13747 4868,13763 4888,13783 4904,13812 4921,13840 4928,13867 4928,13900 L 4928,13900 Z"/>
       </g>
      </g>
      <g class="com.sun.star.drawing.EllipseShape">
       <g id="id17">
        <path fill="rgb(255,255,255)" stroke="none" d="M 1189,10909 C 1168,10934 1144,10950 1114,10962 1083,10973 1055,10975 1023,10970 991,10964 965,10952 940,10931 915,10910 898,10886 887,10856 876,10825 873,10797 879,10764 885,10732 897,10706 918,10681 939,10656 962,10640 993,10629 1023,10618 1052,10615 1084,10621 1116,10627 1142,10639 1167,10660 1192,10681 1209,10704 1220,10735 1231,10765 1233,10794 1228,10826 1222,10858 1210,10884 1189,10909 L 1189,10909 Z"/>
        <path fill="none" stroke="rgb(0,0,0)" stroke-width="71" d="M 1189,10909 C 1168,10934 1144,10950 1114,10962 1083,10973 1055,10975 1023,10970 991,10964 965,10952 940,10931 915,10910 898,10886 887,10856 876,10825 873,10797 879,10764 885,10732 897,10706 918,10681 939,10656 962,10640 993,10629 1023,10618 1052,10615 1084,10621 1116,10627 1142,10639 1167,10660 1192,10681 1209,10704 1220,10735 1231,10765 1233,10794 1228,10826 1222,10858 1210,10884 1189,10909 L 1189,10909 Z"/>
       </g>
      </g>
      <g class="com.sun.star.drawing.EllipseShape">
       <g id="id18">
        <path fill="rgb(255,255,255)" stroke="none" d="M 246,6217 C 214,6223 185,6220 155,6209 124,6198 100,6181 79,6156 59,6131 46,6105 41,6073 35,6041 38,6013 49,5982 60,5951 76,5928 101,5907 126,5886 152,5874 184,5868 216,5863 245,5865 276,5876 306,5887 330,5904 351,5929 372,5954 384,5980 389,6012 395,6044 393,6072 381,6103 370,6134 354,6157 329,6178 304,6199 278,6211 246,6217 L 246,6217 Z"/>
        <path fill="none" stroke="rgb(0,0,0)" stroke-width="71" d="M 246,6217 C 214,6223 185,6220 155,6209 124,6198 100,6181 79,6156 59,6131 46,6105 41,6073 35,6041 38,6013 49,5982 60,5951 76,5928 101,5907 126,5886 152,5874 184,5868 216,5863 245,5865 276,5876 306,5887 330,5904 351,5929 372,5954 384,5980 389,6012 395,6044 393,6072 381,6103 370,6134 354,6157 329,6178 304,6199 278,6211 246,6217 L 246,6217 Z"/>
       </g>
      </g>
      <g class="com.sun.star.drawing.EllipseShape">
       <g id="id19">
        <path fill="rgb(255,255,255)" stroke="none" d="M 2539,2019 C 2511,2003 2491,1982 2474,1954 2458,1926 2451,1898 2451,1866 2451,1833 2458,1805 2474,1777 2491,1749 2511,1729 2539,1712 2567,1696 2595,1689 2628,1689 2660,1689 2688,1696 2716,1713 2744,1729 2765,1749 2781,1777 2797,1806 2805,1833 2805,1866 2805,1898 2797,1926 2781,1954 2765,1983 2744,2003 2716,2019 2688,2035 2660,2043 2628,2043 2595,2043 2567,2035 2539,2019 L 2539,2019 Z"/>
        <path fill="none" stroke="rgb(0,0,0)" stroke-width="71" d="M 2539,2019 C 2511,2003 2491,1982 2474,1954 2458,1926 2451,1898 2451,1866 2451,1833 2458,1805 2474,1777 2491,1749 2511,1729 2539,1712 2567,1696 2595,1689 2628,1689 2660,1689 2688,1696 2716,1713 2744,1729 2765,1749 2781,1777 2797,1806 2805,1833 2805,1866 2805,1898 2797,1926 2781,1954 2765,1983 2744,2003 2716,2019 2688,2035 2660,2043 2628,2043 2595,2043 2567,2035 2539,2019 L 2539,2019 Z"/>
       </g>
      </g>
     </g>
    </g>
   </g>
  </g>
 </g>
</svg>