<?xml version="1.0" encoding="UTF-8"?>
<!DOCTYPE svg PUBLIC "-//W3C//DTD SVG 1.1//EN" "http://www.w3.org/Graphics/SVG/1.1/DTD/svg11.dtd">
<svg version="1.1" width="144.36mm" height="143.58mm" viewBox="0 0 14436 14358" preserveAspectRatio="xMidYMid" fill-rule="evenodd" clip-path="url(#presentation_clip_path)" stroke-width="28.222" stroke-linejoin="round" xmlns="http://www.w3.org/2000/svg" xmlns:ooo="http://xml.openoffice.org/svg/export" xmlns:xlink="http://www.w3.org/1999/xlink" xml:space="preserve">
 <defs class="ClipPathGroup">
  <clipPath id="presentation_clip_path" clipPathUnits="userSpaceOnUse">
   <rect x="0" y="0" width="14436" height="14358"/>
  </clipPath>
 </defs>
 <defs class="TextShapeIndex">
  
 </defs>
 <defs class="EmbeddedBulletChars">
  <g id="bullet-char-template57356" transform="scale(0.00048828125,-0.00048828125)">
   <path d="M 580,1141 L 1163,571 580,0 -4,571 580,1141 Z"/>
  </g>
  <g id="bullet-char-template57354" transform="scale(0.00048828125,-0.00048828125)">
   <path d="M 8,1128 L 1137,1128 1137,0 8,0 8,1128 Z"/>
  </g>
  <g id="bullet-char-template10146" transform="scale(0.00048828125,-0.00048828125)">
   <path d="M 174,0 L 602,739 174,1481 1456,739 174,0 Z M 1358,739 L 309,1346 659,739 1358,739 Z"/>
  </g>
  <g id="bullet-char-template10132" transform="scale(0.00048828125,-0.00048828125)">
   <path d="M 2015,739 L 1276,0 717,0 1260,543 174,543 174,936 1260,936 717,1481 1274,1481 2015,739 Z"/>
  </g>
  <g id="bullet-char-template10007" transform="scale(0.00048828125,-0.00048828125)">
   <path d="M 0,-2 C -7,14 -16,27 -25,37 L 356,567 C 262,823 215,952 215,954 215,979 228,992 255,992 264,992 276,990 289,987 310,991 331,999 354,1012 L 381,999 492,748 772,1049 836,1024 860,1049 C 881,1039 901,1025 922,1006 886,937 835,863 770,784 769,783 710,716 594,584 L 774,223 C 774,196 753,168 711,139 L 727,119 C 717,90 699,76 672,76 641,76 570,178 457,381 L 164,-76 C 142,-110 111,-127 72,-127 30,-127 9,-110 8,-76 1,-67 -2,-52 -2,-32 -2,-23 -1,-13 0,-2 Z"/>
  </g>
  <g id="bullet-char-template10004" transform="scale(0.00048828125,-0.00048828125)">
   <path d="M 285,-33 C 182,-33 111,30 74,156 52,228 41,333 41,471 41,549 55,616 82,672 116,743 169,778 240,778 293,778 328,747 346,684 L 369,508 C 377,444 397,411 428,410 L 1163,1116 C 1174,1127 1196,1133 1229,1133 1271,1133 1292,1118 1292,1087 L 1292,965 C 1292,929 1282,901 1262,881 L 442,47 C 390,-6 338,-33 285,-33 Z"/>
  </g>
  <g id="bullet-char-template9679" transform="scale(0.00048828125,-0.00048828125)">
   <path d="M 813,0 C 632,0 489,54 383,161 276,268 223,411 223,592 223,773 276,916 383,1023 489,1130 632,1184 813,1184 992,1184 1136,1130 1245,1023 1353,916 1407,772 1407,592 1407,412 1353,268 1245,161 1136,54 992,0 813,0 Z"/>
  </g>
  <g id="bullet-char-template8226" transform="scale(0.00048828125,-0.00048828125)">
   <path d="M 346,457 C 273,457 209,483 155,535 101,586 74,649 74,723 74,796 101,859 155,911 209,963 273,989 346,989 419,989 480,963 531,910 582,859 608,796 608,723 608,648 583,586 532,535 482,483 420,457 346,457 Z"/>
  </g>
  <g id="bullet-char-template8211" transform="scale(0.00048828125,-0.00048828125)">
   <path d="M -4,459 L 1135,459 1135,606 -4,606 -4,459 Z"/>
  </g>
 </defs>
 <defs class="TextEmbeddedBitmaps"/>
 <g>
  <g id="id2" class="Master_Slide">
   <g id="bg-id2" class="Background"/>
   <g id="bo-id2" class="BackgroundObjects"/>
  </g>
 </g>
 <g class="SlideGroup">
  <g>
   <g id="id1" class="Slide" clip-path="url(#presentation_clip_path)">
    <g class="Page">
     <g class="Group">
      <g class="com.sun.star.drawing.EllipseShape">
       <g id="id3">
        <path fill="rgb(255,255,255)" stroke="none" d="M 7215,14323 C 5916,14323 4812,14027 3687,13378 2562,12728 1754,11920 1104,10795 455,9670 159,8566 159,7267 159,5968 455,4864 1104,3739 1754,2614 2562,1806 3687,1156 4812,507 5916,211 7215,211 8514,211 9618,507 10743,1156 11868,1806 12676,2614 13326,3739 13975,4864 14271,5968 14271,7267 14271,8566 13975,9670 13326,10795 12676,11920 11868,12728 10743,13378 9618,14027 8514,14323 7215,14323 L 7215,14323 Z"/>
        <path fill="none" stroke="rgb(192,192,192)" stroke-width="71" d="M 7215,14323 C 5916,14323 4812,14027 3687,13378 2562,12728 1754,11920 1104,10795 455,9670 159,8566 159,7267 159,5968 455,4864 1104,3739 1754,2614 2562,1806 3687,1156 4812,507 5916,211 7215,211 8514,211 9618,507 10743,1156 11868,1806 12676,2614 13326,3739 13975,4864 14271,5968 14271,7267 14271,8566 13975,9670 13326,10795 12676,11920 11868,12728 10743,13378 9618,14027 8514,14323 7215,14323 L 7215,14323 Z"/>
       </g>
      </g>
      <g class="com.sun.star.drawing.EllipseShape">
       <g id="id4">
        <path fill="rgb(255,255,255)" stroke="none" d="M 7217,7267 L 11805,6709 C 11829,6904 11839,7070 11839,7267 11839,7856 11748,8355 11539,8905 L 7217,7267 Z"/>
        <path fill="none" stroke="rgb(192,192,192)" stroke-width="71" d="M 7217,7267 L 11805,6709 C 11829,6904 11839,7070 11839,7267 11839,7856 11748,8355 11539,8905 L 7217,7267 Z"/>
       </g>
      </g>
      <g class="com.sun.star.drawing.TextShape">
       <g id="id5">
        <text class="TextShape"><tspan class="TextParagraph" font-family="DejaVu Sans, sans-serif" font-size="635px" font-weight="400"><tspan class="TextPosition" x="9502" y="8013"><tspan fill="rgb(192,192,192)" stroke="none">27 ⁹⁄₁₃°</tspan></tspan></tspan></text>
       </g>
      </g>
      <g class="com.sun.star.drawing.PolyLineShape">
       <g id="id6">
        <path fill="none" stroke="rgb(192,192,192)" stroke-width="71" d="M 7216,7268 L 7216,212 7216,7268 10495,1020 7216,7268 13023,3259 7216,7268 14221,6416 7216,7268 13813,9769 7216,7268 11896,12549 7216,7268 8906,14119 7216,7268 5530,14119 7216,7268 2539,12551 7216,7268 619,9773 7216,7268 212,6420 7216,7268 1408,3262 7216,7268 3934,1022 7216,7268 Z"/>
       </g>
      </g>
      <g class="com.sun.star.drawing.EllipseShape">
       <g id="id7">
        <path fill="rgb(255,255,255)" stroke="none" d="M 7217,7444 C 7184,7444 7157,7437 7129,7420 7100,7404 7080,7384 7064,7356 7047,7327 7040,7300 7040,7267 7040,7234 7047,7207 7064,7179 7080,7150 7100,7130 7129,7114 7157,7097 7184,7090 7217,7090 7250,7090 7277,7097 7306,7114 7334,7130 7354,7150 7370,7179 7387,7207 7394,7234 7394,7267 7394,7300 7387,7327 7370,7356 7354,7384 7334,7404 7306,7420 7277,7437 7250,7444 7217,7444 L 7217,7444 Z"/>
        <path fill="none" stroke="rgb(192,192,192)" stroke-width="71" d="M 7217,7444 C 7184,7444 7157,7437 7129,7420 7100,7404 7080,7384 7064,7356 7047,7327 7040,7300 7040,7267 7040,7234 7047,7207 7064,7179 7080,7150 7100,7130 7129,7114 7157,7097 7184,7090 7217,7090 7250,7090 7277,7097 7306,7114 7334,7130 7354,7150 7370,7179 7387,7207 7394,7234 7394,7267 7394,7300 7387,7327 7370,7356 7354,7384 7334,7404 7306,7420 7277,7437 7250,7444 7217,7444 L 7217,7444 Z"/>
       </g>
      </g>
      <g class="com.sun.star.drawing.EllipseShape">
       <g id="id8">
        <path fill="rgb(255,255,255)" stroke="none" d="M 7216,213 L 9068,669 C 9022,853 8962,1003 8868,1167 8692,1471 8474,1689 8170,1865 7865,2040 7567,2120 7216,2120 6865,2120 6567,2040 6263,1865 5958,1689 5740,1471 5564,1167 5470,1003 5410,853 5365,670 L 7216,213 Z"/>
        <path fill="none" stroke="rgb(0,0,0)" stroke-width="71" d="M 7216,213 L 9068,669 C 9022,853 8962,1003 8868,1167 8692,1471 8474,1689 8170,1865 7865,2040 7567,2120 7216,2120 6865,2120 6567,2040 6263,1865 5958,1689 5740,1471 5564,1167 5470,1003 5410,853 5365,670 L 7216,213 Z"/>
       </g>
      </g>
      <g class="com.sun.star.drawing.TextShape">
       <g id="id9">
        <text class="TextShape"><tspan class="TextParagraph" font-family="DejaVu Sans, sans-serif" font-size="635px" font-weight="400"><tspan class="TextPosition" x="5953" y="1448"><tspan fill="rgb(0,0,0)" stroke="none">152 ⁴⁄₁₃°</tspan></tspan></tspan></text>
       </g>
      </g>
      <g class="com.sun.star.drawing.PolyLineShape">
       <g id="id10">
        <path fill="none" stroke="rgb(0,0,0)" stroke-width="141" d="M 7218,214 L 10496,1020 13020,3260 14218,6416 13809,9767 11892,12546 8903,14115 5526,14117 2536,12549 616,9770 206,6418 1403,3262 3930,1022 7212,214"/>
       </g>
      </g>
      <g class="com.sun.star.drawing.EllipseShape">
       <g id="id11">
        <path fill="rgb(255,255,255)" stroke="none" d="M 7092,89 C 7115,66 7139,51 7171,43 7202,35 7231,35 7262,43 7294,51 7319,66 7342,89 7365,112 7379,137 7388,168 7396,200 7396,228 7388,260 7379,291 7365,316 7342,339 7319,362 7294,377 7262,385 7231,393 7202,393 7171,385 7139,377 7115,362 7092,339 7068,316 7054,291 7046,260 7037,228 7037,200 7046,168 7054,137 7068,112 7092,89 L 7092,89 Z"/>
        <path fill="none" stroke="rgb(0,0,0)" stroke-width="71" d="M 7092,89 C 7115,66 7139,51 7171,43 7202,35 7231,35 7262,43 7294,51 7319,66 7342,89 7365,112 7379,137 7388,168 7396,200 7396,228 7388,260 7379,291 7365,316 7342,339 7319,362 7294,377 7262,385 7231,393 7202,393 7171,385 7139,377 7115,362 7092,339 7068,316 7054,291 7046,260 7037,228 7037,200 7046,168 7054,137 7068,112 7092,89 L 7092,89 Z"/>
       </g>
      </g>
      <g class="com.sun.star.drawing.EllipseShape">
       <g id="id12">
        <path fill="rgb(255,255,255)" stroke="none" d="M 10324,980 C 10332,949 10346,923 10368,900 10391,876 10415,862 10447,853 10478,843 10506,843 10538,851 10570,858 10595,872 10618,895 10642,917 10657,942 10666,973 10675,1005 10675,1033 10668,1065 10660,1097 10646,1122 10623,1145 10601,1169 10576,1183 10545,1193 10514,1202 10485,1202 10453,1194 10422,1187 10397,1173 10373,1150 10350,1128 10335,1103 10326,1072 10317,1040 10316,1012 10324,980 L 10324,980 Z"/>
        <path fill="none" stroke="rgb(0,0,0)" stroke-width="71" d="M 10324,980 C 10332,949 10346,923 10368,900 10391,876 10415,862 10447,853 10478,843 10506,843 10538,851 10570,858 10595,872 10618,895 10642,917 10657,942 10666,973 10675,1005 10675,1033 10668,1065 10660,1097 10646,1122 10623,1145 10601,1169 10576,1183 10545,1193 10514,1202 10485,1202 10453,1194 10422,1187 10397,1173 10373,1150 10350,1128 10335,1103 10326,1072 10317,1040 10316,1012 10324,980 L 10324,980 Z"/>
       </g>
      </g>
      <g class="com.sun.star.drawing.EllipseShape">
       <g id="id13">
        <path fill="rgb(255,255,255)" stroke="none" d="M 12890,3145 C 12911,3121 12935,3105 12966,3095 12997,3085 13026,3083 13058,3090 13090,3096 13115,3109 13140,3131 13164,3152 13180,3176 13190,3207 13200,3238 13202,3267 13196,3298 13189,3330 13176,3356 13155,3380 13133,3405 13109,3421 13078,3431 13047,3441 13019,3443 12987,3436 12955,3430 12929,3417 12905,3395 12880,3374 12864,3350 12854,3319 12844,3288 12842,3259 12849,3227 12855,3195 12868,3170 12890,3145 L 12890,3145 Z"/>
        <path fill="none" stroke="rgb(0,0,0)" stroke-width="71" d="M 12890,3145 C 12911,3121 12935,3105 12966,3095 12997,3085 13026,3083 13058,3090 13090,3096 13115,3109 13140,3131 13164,3152 13180,3176 13190,3207 13200,3238 13202,3267 13196,3298 13189,3330 13176,3356 13155,3380 13133,3405 13109,3421 13078,3431 13047,3441 13019,3443 12987,3436 12955,3430 12929,3417 12905,3395 12880,3374 12864,3350 12854,3319 12844,3288 12842,3259 12849,3227 12855,3195 12868,3170 12890,3145 L 12890,3145 Z"/>
       </g>
      </g>
      <g class="com.sun.star.drawing.EllipseShape">
       <g id="id14">
        <path fill="rgb(255,255,255)" stroke="none" d="M 14157,6252 C 14187,6240 14216,6237 14248,6243 14280,6248 14306,6260 14332,6280 14357,6301 14374,6324 14385,6355 14397,6385 14400,6414 14394,6446 14389,6478 14377,6504 14357,6529 14336,6554 14313,6571 14283,6583 14252,6594 14224,6597 14191,6592 14159,6587 14133,6575 14108,6554 14083,6534 14066,6511 14054,6480 14043,6450 14040,6421 14045,6389 14050,6357 14062,6331 14083,6305 14103,6280 14126,6263 14157,6252 L 14157,6252 Z"/>
        <path fill="none" stroke="rgb(0,0,0)" stroke-width="71" d="M 14157,6252 C 14187,6240 14216,6237 14248,6243 14280,6248 14306,6260 14332,6280 14357,6301 14374,6324 14385,6355 14397,6385 14400,6414 14394,6446 14389,6478 14377,6504 14357,6529 14336,6554 14313,6571 14283,6583 14252,6594 14224,6597 14191,6592 14159,6587 14133,6575 14108,6554 14083,6534 14066,6511 14054,6480 14043,6450 14040,6421 14045,6389 14050,6357 14062,6331 14083,6305 14103,6280 14126,6263 14157,6252 L 14157,6252 Z"/>
       </g>
      </g>
      <g class="com.sun.star.drawing.EllipseShape">
       <g id="id15">
        <path fill="rgb(255,255,255)" stroke="none" d="M 13834,9592 C 13866,9596 13893,9607 13919,9626 13945,9646 13963,9669 13975,9699 13988,9729 13992,9757 13988,9789 13984,9822 13974,9848 13954,9874 13935,9900 13912,9918 13882,9931 13852,9944 13824,9948 13791,9944 13759,9940 13732,9929 13706,9909 13680,9890 13663,9867 13650,9837 13637,9807 13633,9779 13637,9747 13641,9714 13652,9688 13671,9662 13691,9636 13713,9618 13743,9605 13773,9592 13802,9588 13834,9592 L 13834,9592 Z"/>
        <path fill="none" stroke="rgb(0,0,0)" stroke-width="71" d="M 13834,9592 C 13866,9596 13893,9607 13919,9626 13945,9646 13963,9669 13975,9699 13988,9729 13992,9757 13988,9789 13984,9822 13974,9848 13954,9874 13935,9900 13912,9918 13882,9931 13852,9944 13824,9948 13791,9944 13759,9940 13732,9929 13706,9909 13680,9890 13663,9867 13650,9837 13637,9807 13633,9779 13637,9747 13641,9714 13652,9688 13671,9662 13691,9636 13713,9618 13743,9605 13773,9592 13802,9588 13834,9592 L 13834,9592 Z"/>
       </g>
      </g>
      <g class="com.sun.star.drawing.EllipseShape">
       <g id="id16">
        <path fill="rgb(255,255,255)" stroke="none" d="M 11997,12402 C 12024,12421 12043,12442 12057,12472 12071,12501 12076,12530 12073,12562 12071,12594 12061,12621 12043,12648 12024,12675 12002,12694 11973,12708 11943,12722 11915,12727 11883,12724 11850,12722 11823,12712 11796,12693 11769,12675 11751,12653 11737,12624 11723,12594 11718,12566 11720,12534 11723,12501 11733,12474 11751,12447 11770,12420 11791,12402 11821,12388 11850,12374 11879,12369 11911,12371 11943,12374 11970,12384 11997,12402 L 11997,12402 Z"/>
        <path fill="none" stroke="rgb(0,0,0)" stroke-width="71" d="M 11997,12402 C 12024,12421 12043,12442 12057,12472 12071,12501 12076,12530 12073,12562 12071,12594 12061,12621 12043,12648 12024,12675 12002,12694 11973,12708 11943,12722 11915,12727 11883,12724 11850,12722 11823,12712 11796,12693 11769,12675 11751,12653 11737,12624 11723,12594 11718,12566 11720,12534 11723,12501 11733,12474 11751,12447 11770,12420 11791,12402 11821,12388 11850,12374 11879,12369 11911,12371 11943,12374 11970,12384 11997,12402 L 11997,12402 Z"/>
       </g>
      </g>
      <g class="com.sun.star.drawing.EllipseShape">
       <g id="id17">
        <path fill="rgb(255,255,255)" stroke="none" d="M 9063,14034 C 9078,14063 9085,14091 9083,14123 9082,14156 9073,14183 9056,14211 9039,14238 9018,14258 8989,14273 8960,14288 8932,14294 8899,14293 8867,14292 8839,14283 8812,14266 8784,14248 8765,14227 8750,14198 8735,14169 8728,14141 8730,14109 8731,14076 8739,14049 8757,14021 8774,13994 8795,13974 8824,13959 8853,13944 8881,13938 8914,13939 8946,13940 8973,13949 9001,13966 9029,13984 9048,14005 9063,14034 L 9063,14034 Z"/>
        <path fill="none" stroke="rgb(0,0,0)" stroke-width="71" d="M 9063,14034 C 9078,14063 9085,14091 9083,14123 9082,14156 9073,14183 9056,14211 9039,14238 9018,14258 8989,14273 8960,14288 8932,14294 8899,14293 8867,14292 8839,14283 8812,14266 8784,14248 8765,14227 8750,14198 8735,14169 8728,14141 8730,14109 8731,14076 8739,14049 8757,14021 8774,13994 8795,13974 8824,13959 8853,13944 8881,13938 8914,13939 8946,13940 8973,13949 9001,13966 9029,13984 9048,14005 9063,14034 L 9063,14034 Z"/>
       </g>
      </g>
      <g class="com.sun.star.drawing.EllipseShape">
       <g id="id18">
        <path fill="rgb(255,255,255)" stroke="none" d="M 5708,14118 C 5708,14150 5701,14178 5684,14206 5668,14235 5648,14255 5619,14271 5591,14287 5564,14295 5531,14295 5498,14295 5471,14288 5442,14271 5414,14255 5394,14235 5378,14206 5361,14178 5354,14151 5354,14118 5354,14085 5361,14058 5378,14029 5394,14001 5414,13981 5442,13965 5471,13948 5498,13941 5531,13941 5563,13941 5591,13948 5619,13965 5648,13981 5668,14001 5684,14029 5700,14058 5708,14085 5708,14118 L 5708,14118 Z"/>
        <path fill="none" stroke="rgb(0,0,0)" stroke-width="71" d="M 5708,14118 C 5708,14150 5701,14178 5684,14206 5668,14235 5648,14255 5619,14271 5591,14287 5564,14295 5531,14295 5498,14295 5471,14288 5442,14271 5414,14255 5394,14235 5378,14206 5361,14178 5354,14151 5354,14118 5354,14085 5361,14058 5378,14029 5394,14001 5414,13981 5442,13965 5471,13948 5498,13941 5531,13941 5563,13941 5591,13948 5619,13965 5648,13981 5668,14001 5684,14029 5700,14058 5708,14085 5708,14118 L 5708,14118 Z"/>
       </g>
      </g>
      <g class="com.sun.star.drawing.EllipseShape">
       <g id="id19">
        <path fill="rgb(255,255,255)" stroke="none" d="M 2698,12633 C 2683,12662 2663,12683 2636,12700 2608,12717 2581,12726 2548,12727 2516,12729 2488,12722 2459,12707 2430,12692 2409,12673 2391,12645 2374,12618 2365,12590 2364,12558 2363,12525 2369,12497 2384,12468 2399,12439 2419,12418 2446,12401 2474,12383 2501,12375 2534,12374 2566,12372 2594,12379 2623,12394 2652,12409 2673,12428 2691,12456 2708,12483 2717,12511 2718,12543 2719,12576 2713,12604 2698,12633 L 2698,12633 Z"/>
        <path fill="none" stroke="rgb(0,0,0)" stroke-width="71" d="M 2698,12633 C 2683,12662 2663,12683 2636,12700 2608,12717 2581,12726 2548,12727 2516,12729 2488,12722 2459,12707 2430,12692 2409,12673 2391,12645 2374,12618 2365,12590 2364,12558 2363,12525 2369,12497 2384,12468 2399,12439 2419,12418 2446,12401 2474,12383 2501,12375 2534,12374 2566,12372 2594,12379 2623,12394 2652,12409 2673,12428 2691,12456 2708,12483 2717,12511 2718,12543 2719,12576 2713,12604 2698,12633 L 2698,12633 Z"/>
       </g>
      </g>
      <g class="com.sun.star.drawing.EllipseShape">
       <g id="id20">
        <path fill="rgb(255,255,255)" stroke="none" d="M 723,9918 C 696,9936 669,9946 636,9949 604,9951 576,9946 546,9932 517,9918 495,9899 477,9873 458,9846 448,9819 446,9786 443,9754 448,9726 462,9696 476,9667 495,9645 522,9626 548,9608 575,9598 608,9596 640,9593 669,9598 698,9612 728,9626 749,9645 768,9672 786,9698 796,9725 799,9758 801,9790 796,9819 782,9848 768,9877 750,9899 723,9918 L 723,9918 Z"/>
        <path fill="none" stroke="rgb(0,0,0)" stroke-width="71" d="M 723,9918 C 696,9936 669,9946 636,9949 604,9951 576,9946 546,9932 517,9918 495,9899 477,9873 458,9846 448,9819 446,9786 443,9754 448,9726 462,9696 476,9667 495,9645 522,9626 548,9608 575,9598 608,9596 640,9593 669,9598 698,9612 728,9626 749,9645 768,9672 786,9698 796,9725 799,9758 801,9790 796,9819 782,9848 768,9877 750,9899 723,9918 L 723,9918 Z"/>
       </g>
      </g>
      <g class="com.sun.star.drawing.EllipseShape">
       <g id="id21">
        <path fill="rgb(255,255,255)" stroke="none" d="M 235,6594 C 202,6598 174,6594 144,6581 114,6568 91,6551 72,6525 52,6499 41,6472 37,6440 33,6407 37,6379 50,6349 63,6319 81,6296 107,6277 133,6257 159,6247 192,6243 224,6239 252,6243 282,6255 312,6268 335,6286 355,6312 374,6338 385,6365 389,6397 393,6429 389,6458 376,6488 363,6518 346,6540 320,6560 293,6579 267,6590 235,6594 L 235,6594 Z"/>
        <path fill="none" stroke="rgb(0,0,0)" stroke-width="71" d="M 235,6594 C 202,6598 174,6594 144,6581 114,6568 91,6551 72,6525 52,6499 41,6472 37,6440 33,6407 37,6379 50,6349 63,6319 81,6296 107,6277 133,6257 159,6247 192,6243 224,6239 252,6243 282,6255 312,6268 335,6286 355,6312 374,6338 385,6365 389,6397 393,6429 389,6458 376,6488 363,6518 346,6540 320,6560 293,6579 267,6590 235,6594 L 235,6594 Z"/>
       </g>
      </g>
      <g class="com.sun.star.drawing.EllipseShape">
       <g id="id22">
        <path fill="rgb(255,255,255)" stroke="none" d="M 1345,3429 C 1315,3417 1291,3400 1271,3375 1250,3350 1238,3324 1233,3292 1228,3260 1231,3231 1242,3201 1254,3170 1271,3147 1296,3126 1321,3106 1347,3094 1379,3089 1412,3083 1440,3086 1471,3098 1501,3109 1524,3126 1545,3151 1565,3177 1577,3203 1582,3235 1588,3267 1585,3296 1573,3326 1562,3356 1545,3380 1520,3400 1494,3421 1468,3433 1436,3438 1404,3443 1376,3440 1345,3429 L 1345,3429 Z"/>
        <path fill="none" stroke="rgb(0,0,0)" stroke-width="71" d="M 1345,3429 C 1315,3417 1291,3400 1271,3375 1250,3350 1238,3324 1233,3292 1228,3260 1231,3231 1242,3201 1254,3170 1271,3147 1296,3126 1321,3106 1347,3094 1379,3089 1412,3083 1440,3086 1471,3098 1501,3109 1524,3126 1545,3151 1565,3177 1577,3203 1582,3235 1588,3267 1585,3296 1573,3326 1562,3356 1545,3380 1520,3400 1494,3421 1468,3433 1436,3438 1404,3443 1376,3440 1345,3429 L 1345,3429 Z"/>
       </g>
      </g>
      <g class="com.sun.star.drawing.EllipseShape">
       <g id="id23">
        <path fill="rgb(255,255,255)" stroke="none" d="M 3805,1140 C 3784,1116 3771,1090 3764,1058 3758,1026 3760,998 3770,967 3780,936 3796,912 3821,890 3845,869 3871,856 3902,849 3934,843 3963,845 3994,855 4025,865 4049,881 4070,905 4092,930 4105,956 4111,987 4118,1019 4116,1048 4106,1079 4095,1110 4080,1134 4055,1155 4031,1177 4005,1190 3973,1196 3941,1203 3913,1201 3882,1191 3851,1180 3827,1165 3805,1140 L 3805,1140 Z"/>
        <path fill="none" stroke="rgb(0,0,0)" stroke-width="71" d="M 3805,1140 C 3784,1116 3771,1090 3764,1058 3758,1026 3760,998 3770,967 3780,936 3796,912 3821,890 3845,869 3871,856 3902,849 3934,843 3963,845 3994,855 4025,865 4049,881 4070,905 4092,930 4105,956 4111,987 4118,1019 4116,1048 4106,1079 4095,1110 4080,1134 4055,1155 4031,1177 4005,1190 3973,1196 3941,1203 3913,1201 3882,1191 3851,1180 3827,1165 3805,1140 L 3805,1140 Z"/>
       </g>
      </g>
     </g>
    </g>
   </g>
  </g>
 </g>
</svg>