<?xml version="1.0" encoding="UTF-8"?>
<!DOCTYPE svg PUBLIC "-//W3C//DTD SVG 1.1//EN" "http://www.w3.org/Graphics/SVG/1.1/DTD/svg11.dtd">
<svg version="1.1" width="145.42mm" height="145.4mm" viewBox="0 0 14542 14540" preserveAspectRatio="xMidYMid" fill-rule="evenodd" clip-path="url(#presentation_clip_path)" stroke-width="28.222" stroke-linejoin="round" xmlns="http://www.w3.org/2000/svg" xmlns:ooo="http://xml.openoffice.org/svg/export" xmlns:xlink="http://www.w3.org/1999/xlink" xml:space="preserve">
 <defs class="ClipPathGroup">
  <clipPath id="presentation_clip_path" clipPathUnits="userSpaceOnUse">
   <rect x="0" y="0" width="14542" height="14540"/>
  </clipPath>
 </defs>
 <defs class="TextShapeIndex">
  
 </defs>
 <defs class="EmbeddedBulletChars">
  <g id="bullet-char-template57356" transform="scale(0.00048828125,-0.00048828125)">
   <path d="M 580,1141 L 1163,571 580,0 -4,571 580,1141 Z"/>
  </g>
  <g id="bullet-char-template57354" transform="scale(0.00048828125,-0.00048828125)">
   <path d="M 8,1128 L 1137,1128 1137,0 8,0 8,1128 Z"/>
  </g>
  <g id="bullet-char-template10146" transform="scale(0.00048828125,-0.00048828125)">
   <path d="M 174,0 L 602,739 174,1481 1456,739 174,0 Z M 1358,739 L 309,1346 659,739 1358,739 Z"/>
  </g>
  <g id="bullet-char-template10132" transform="scale(0.00048828125,-0.00048828125)">
   <path d="M 2015,739 L 1276,0 717,0 1260,543 174,543 174,936 1260,936 717,1481 1274,1481 2015,739 Z"/>
  </g>
  <g id="bullet-char-template10007" transform="scale(0.00048828125,-0.00048828125)">
   <path d="M 0,-2 C -7,14 -16,27 -25,37 L 356,567 C 262,823 215,952 215,954 215,979 228,992 255,992 264,992 276,990 289,987 310,991 331,999 354,1012 L 381,999 492,748 772,1049 836,1024 860,1049 C 881,1039 901,1025 922,1006 886,937 835,863 770,784 769,783 710,716 594,584 L 774,223 C 774,196 753,168 711,139 L 727,119 C 717,90 699,76 672,76 641,76 570,178 457,381 L 164,-76 C 142,-110 111,-127 72,-127 30,-127 9,-110 8,-76 1,-67 -2,-52 -2,-32 -2,-23 -1,-13 0,-2 Z"/>
  </g>
  <g id="bullet-char-template10004" transform="scale(0.00048828125,-0.00048828125)">
   <path d="M 285,-33 C 182,-33 111,30 74,156 52,228 41,333 41,471 41,549 55,616 82,672 116,743 169,778 240,778 293,778 328,747 346,684 L 369,508 C 377,444 397,411 428,410 L 1163,1116 C 1174,1127 1196,1133 1229,1133 1271,1133 1292,1118 1292,1087 L 1292,965 C 1292,929 1282,901 1262,881 L 442,47 C 390,-6 338,-33 285,-33 Z"/>
  </g>
  <g id="bullet-char-template9679" transform="scale(0.00048828125,-0.00048828125)">
   <path d="M 813,0 C 632,0 489,54 383,161 276,268 223,411 223,592 223,773 276,916 383,1023 489,1130 632,1184 813,1184 992,1184 1136,1130 1245,1023 1353,916 1407,772 1407,592 1407,412 1353,268 1245,161 1136,54 992,0 813,0 Z"/>
  </g>
  <g id="bullet-char-template8226" transform="scale(0.00048828125,-0.00048828125)">
   <path d="M 346,457 C 273,457 209,483 155,535 101,586 74,649 74,723 74,796 101,859 155,911 209,963 273,989 346,989 419,989 480,963 531,910 582,859 608,796 608,723 608,648 583,586 532,535 482,483 420,457 346,457 Z"/>
  </g>
  <g id="bullet-char-template8211" transform="scale(0.00048828125,-0.00048828125)">
   <path d="M -4,459 L 1135,459 1135,606 -4,606 -4,459 Z"/>
  </g>
 </defs>
 <defs class="TextEmbeddedBitmaps"/>
 <g>
  <g id="id2" class="Master_Slide">
   <g id="bg-id2" class="Background"/>
   <g id="bo-id2" class="BackgroundObjects"/>
  </g>
 </g>
 <g class="SlideGroup">
  <g>
   <g id="id1" class="Slide" clip-path="url(#presentation_clip_path)">
    <g class="Page">
     <g class="Group">
      <g class="com.sun.star.drawing.EllipseShape">
       <g id="id3">
        <path fill="rgb(255,255,255)" stroke="none" d="M 7269,14324 C 5970,14324 4866,14028 3741,13379 2616,12729 1808,11921 1158,10796 509,9671 213,8567 213,7268 213,5969 509,4865 1158,3740 1808,2615 2616,1807 3741,1157 4866,508 5970,212 7269,212 8568,212 9672,508 10797,1157 11922,1807 12730,2615 13380,3740 14029,4865 14325,5969 14325,7268 14325,8567 14029,9671 13380,10796 12730,11921 11922,12729 10797,13379 9672,14028 8568,14324 7269,14324 L 7269,14324 Z"/>
        <path fill="none" stroke="rgb(192,192,192)" stroke-width="71" d="M 7269,14324 C 5970,14324 4866,14028 3741,13379 2616,12729 1808,11921 1158,10796 509,9671 213,8567 213,7268 213,5969 509,4865 1158,3740 1808,2615 2616,1807 3741,1157 4866,508 5970,212 7269,212 8568,212 9672,508 10797,1157 11922,1807 12730,2615 13380,3740 14029,4865 14325,5969 14325,7268 14325,8567 14029,9671 13380,10796 12730,11921 11922,12729 10797,13379 9672,14028 8568,14324 7269,14324 L 7269,14324 Z"/>
       </g>
      </g>
      <g class="com.sun.star.drawing.EllipseShape">
       <g id="id4">
        <path fill="rgb(255,255,255)" stroke="none" d="M 7269,7268 L 12631,7268 C 12631,8008 12506,8636 12223,9320 L 7269,7268 Z"/>
        <path fill="none" stroke="rgb(192,192,192)" stroke-width="71" d="M 7269,7268 L 12631,7268 C 12631,8008 12506,8636 12223,9320 L 7269,7268 Z"/>
       </g>
      </g>
      <g class="com.sun.star.drawing.TextShape">
       <g id="id5">
        <text class="TextShape"><tspan class="TextParagraph" font-family="DejaVu Sans, sans-serif" font-size="635px" font-weight="400"><tspan class="TextPosition" x="10205" y="8402"><tspan fill="rgb(192,192,192)" stroke="none">22 ⁸⁄₁₆°</tspan></tspan></tspan></text>
       </g>
      </g>
      <g class="com.sun.star.drawing.PolyLineShape">
       <g id="id6">
        <path fill="none" stroke="rgb(192,192,192)" stroke-width="71" d="M 7271,7269 L 7271,214 7271,7269 9971,750 7271,7269 12259,2281 7271,7269 13790,4569 7271,7269 14326,7269 7271,7269 13790,9970 7271,7269 12259,12258 7271,7269 9971,13789 7271,7269 7271,14325 7271,7269 4570,13789 7271,7269 2282,12258 7271,7269 751,9970 7271,7269 215,7269 7271,7269 751,4569 7271,7269 2282,2281 7271,7269 4570,750 7271,7269 Z"/>
       </g>
      </g>
      <g class="com.sun.star.drawing.EllipseShape">
       <g id="id7">
        <path fill="rgb(255,255,255)" stroke="none" d="M 7271,7445 C 7238,7445 7211,7438 7183,7421 7154,7405 7134,7385 7118,7357 7101,7328 7094,7301 7094,7268 7094,7235 7101,7208 7118,7180 7134,7151 7154,7131 7183,7115 7211,7098 7238,7091 7271,7091 7304,7091 7331,7098 7360,7115 7388,7131 7408,7151 7424,7180 7441,7208 7448,7235 7448,7268 7448,7301 7441,7328 7424,7357 7408,7385 7388,7405 7360,7421 7331,7438 7304,7445 7271,7445 L 7271,7445 Z"/>
        <path fill="none" stroke="rgb(192,192,192)" stroke-width="71" d="M 7271,7445 C 7238,7445 7211,7438 7183,7421 7154,7405 7134,7385 7118,7357 7101,7328 7094,7301 7094,7268 7094,7235 7101,7208 7118,7180 7134,7151 7154,7131 7183,7115 7211,7098 7238,7091 7271,7091 7304,7091 7331,7098 7360,7115 7388,7131 7408,7151 7424,7180 7441,7208 7448,7235 7448,7268 7448,7301 7441,7328 7424,7357 7408,7385 7388,7405 7360,7421 7331,7438 7304,7445 7271,7445 L 7271,7445 Z"/>
       </g>
      </g>
      <g class="com.sun.star.drawing.EllipseShape">
       <g id="id8">
        <path fill="rgb(255,255,255)" stroke="none" d="M 7268,211 L 9112,578 C 9070,790 9004,964 8896,1151 8723,1451 8508,1666 8208,1839 7908,2012 7614,2091 7268,2091 6922,2091 6628,2012 6328,1839 6028,1666 5813,1451 5640,1151 5532,964 5466,790 5424,578 L 7268,211 Z"/>
        <path fill="none" stroke="rgb(0,0,0)" stroke-width="71" d="M 7268,211 L 9112,578 C 9070,790 9004,964 8896,1151 8723,1451 8508,1666 8208,1839 7908,2012 7614,2091 7268,2091 6922,2091 6628,2012 6328,1839 6028,1666 5813,1451 5640,1151 5532,964 5466,790 5424,578 L 7268,211 Z"/>
       </g>
      </g>
      <g class="com.sun.star.drawing.TextShape">
       <g id="id9">
        <text class="TextShape"><tspan class="TextParagraph" font-family="DejaVu Sans, sans-serif" font-size="635px" font-weight="400"><tspan class="TextPosition" x="6007" y="1413"><tspan fill="rgb(0,0,0)" stroke="none">157 ⁸⁄₁₆°</tspan></tspan></tspan></text>
       </g>
      </g>
      <g class="com.sun.star.drawing.PolyLineShape">
       <g id="id10">
        <path fill="none" stroke="rgb(0,0,0)" stroke-width="141" d="M 7272,215 L 9969,751 12258,2279 13788,4567 14326,7267 13788,9966 12259,12256 9969,13785 7269,14323 4568,13785 2280,12255 750,9966 213,7265 751,4565 2280,2275 4568,748 7270,213"/>
       </g>
      </g>
      <g class="com.sun.star.drawing.EllipseShape">
       <g id="id11">
        <path fill="rgb(255,255,255)" stroke="none" d="M 7146,90 C 7169,67 7193,52 7225,44 7256,36 7285,36 7316,44 7348,52 7373,67 7396,90 7419,113 7433,138 7442,169 7450,201 7450,229 7442,261 7433,292 7419,317 7396,340 7373,363 7348,378 7316,386 7285,394 7256,394 7225,386 7193,378 7169,363 7146,340 7122,317 7108,292 7100,261 7091,229 7091,201 7100,169 7108,138 7122,113 7146,90 L 7146,90 Z"/>
        <path fill="none" stroke="rgb(0,0,0)" stroke-width="71" d="M 7146,90 C 7169,67 7193,52 7225,44 7256,36 7285,36 7316,44 7348,52 7373,67 7396,90 7419,113 7433,138 7442,169 7450,201 7450,229 7442,261 7433,292 7419,317 7396,340 7373,363 7348,378 7316,386 7285,394 7256,394 7225,386 7193,378 7169,363 7146,340 7122,317 7108,292 7100,261 7091,229 7091,201 7100,169 7108,138 7122,113 7146,90 L 7146,90 Z"/>
       </g>
      </g>
      <g class="com.sun.star.drawing.EllipseShape">
       <g id="id12">
        <path fill="rgb(255,255,255)" stroke="none" d="M 9797,720 C 9804,688 9816,663 9838,638 9859,614 9883,598 9914,587 9945,577 9973,575 10005,581 10037,588 10063,600 10088,622 10112,643 10128,667 10138,698 10149,729 10151,758 10144,790 10138,822 10125,847 10104,872 10082,896 10058,912 10028,923 9997,933 9968,935 9936,928 9904,922 9878,909 9854,888 9829,866 9814,843 9803,812 9793,781 9791,752 9797,720 L 9797,720 Z"/>
        <path fill="none" stroke="rgb(0,0,0)" stroke-width="71" d="M 9797,720 C 9804,688 9816,663 9838,638 9859,614 9883,598 9914,587 9945,577 9973,575 10005,581 10037,588 10063,600 10088,622 10112,643 10128,667 10138,698 10149,729 10151,758 10144,790 10138,822 10125,847 10104,872 10082,896 10058,912 10028,923 9997,933 9968,935 9936,928 9904,922 9878,909 9854,888 9829,866 9814,843 9803,812 9793,781 9791,752 9797,720 L 9797,720 Z"/>
       </g>
      </g>
      <g class="com.sun.star.drawing.EllipseShape">
       <g id="id13">
        <path fill="rgb(255,255,255)" stroke="none" d="M 12112,2182 C 12130,2155 12152,2136 12181,2121 12210,2107 12238,2101 12271,2103 12303,2105 12331,2115 12358,2133 12385,2151 12404,2172 12418,2202 12433,2231 12438,2259 12436,2291 12434,2324 12425,2351 12407,2378 12389,2405 12367,2424 12338,2439 12309,2453 12281,2459 12248,2457 12216,2455 12188,2445 12161,2427 12134,2409 12115,2388 12101,2358 12086,2329 12081,2301 12083,2269 12085,2236 12094,2209 12112,2182 L 12112,2182 Z"/>
        <path fill="none" stroke="rgb(0,0,0)" stroke-width="71" d="M 12112,2182 C 12130,2155 12152,2136 12181,2121 12210,2107 12238,2101 12271,2103 12303,2105 12331,2115 12358,2133 12385,2151 12404,2172 12418,2202 12433,2231 12438,2259 12436,2291 12434,2324 12425,2351 12407,2378 12389,2405 12367,2424 12338,2439 12309,2453 12281,2459 12248,2457 12216,2455 12188,2445 12161,2427 12134,2409 12115,2388 12101,2358 12086,2329 12081,2301 12083,2269 12085,2236 12094,2209 12112,2182 L 12112,2182 Z"/>
       </g>
      </g>
      <g class="com.sun.star.drawing.EllipseShape">
       <g id="id14">
        <path fill="rgb(255,255,255)" stroke="none" d="M 13691,4424 C 13718,4406 13745,4397 13778,4395 13810,4392 13838,4398 13868,4412 13897,4427 13919,4446 13937,4473 13955,4500 13964,4527 13966,4560 13968,4592 13963,4620 13948,4649 13934,4679 13915,4700 13888,4718 13861,4736 13834,4746 13801,4748 13769,4750 13740,4744 13711,4730 13682,4716 13660,4697 13642,4670 13624,4643 13615,4615 13613,4583 13611,4550 13616,4522 13631,4493 13645,4464 13664,4442 13691,4424 L 13691,4424 Z"/>
        <path fill="none" stroke="rgb(0,0,0)" stroke-width="71" d="M 13691,4424 C 13718,4406 13745,4397 13778,4395 13810,4392 13838,4398 13868,4412 13897,4427 13919,4446 13937,4473 13955,4500 13964,4527 13966,4560 13968,4592 13963,4620 13948,4649 13934,4679 13915,4700 13888,4718 13861,4736 13834,4746 13801,4748 13769,4750 13740,4744 13711,4730 13682,4716 13660,4697 13642,4670 13624,4643 13615,4615 13613,4583 13611,4550 13616,4522 13631,4493 13645,4464 13664,4442 13691,4424 L 13691,4424 Z"/>
       </g>
      </g>
      <g class="com.sun.star.drawing.EllipseShape">
       <g id="id15">
        <path fill="rgb(255,255,255)" stroke="none" d="M 14293,7095 C 14325,7089 14354,7091 14385,7101 14416,7112 14439,7128 14461,7152 14482,7177 14495,7202 14501,7234 14508,7266 14506,7295 14495,7326 14485,7357 14469,7381 14445,7402 14420,7424 14394,7436 14362,7443 14330,7449 14302,7447 14271,7437 14240,7426 14216,7410 14195,7386 14173,7361 14161,7336 14154,7304 14148,7272 14150,7243 14160,7212 14171,7181 14187,7157 14211,7136 14236,7114 14261,7102 14293,7095 L 14293,7095 Z"/>
        <path fill="none" stroke="rgb(0,0,0)" stroke-width="71" d="M 14293,7095 C 14325,7089 14354,7091 14385,7101 14416,7112 14439,7128 14461,7152 14482,7177 14495,7202 14501,7234 14508,7266 14506,7295 14495,7326 14485,7357 14469,7381 14445,7402 14420,7424 14394,7436 14362,7443 14330,7449 14302,7447 14271,7437 14240,7426 14216,7410 14195,7386 14173,7361 14161,7336 14154,7304 14148,7272 14150,7243 14160,7212 14171,7181 14187,7157 14211,7136 14236,7114 14261,7102 14293,7095 L 14293,7095 Z"/>
       </g>
      </g>
      <g class="com.sun.star.drawing.EllipseShape">
       <g id="id16">
        <path fill="rgb(255,255,255)" stroke="none" d="M 13825,9794 C 13857,9801 13882,9813 13907,9835 13931,9856 13947,9880 13958,9911 13968,9942 13970,9970 13964,10002 13957,10034 13945,10060 13923,10085 13902,10109 13878,10125 13847,10135 13816,10146 13787,10148 13755,10141 13723,10135 13698,10122 13673,10101 13649,10079 13633,10056 13622,10025 13612,9994 13610,9965 13616,9933 13623,9901 13635,9876 13657,9851 13678,9827 13702,9811 13733,9800 13764,9790 13793,9788 13825,9794 L 13825,9794 Z"/>
        <path fill="none" stroke="rgb(0,0,0)" stroke-width="71" d="M 13825,9794 C 13857,9801 13882,9813 13907,9835 13931,9856 13947,9880 13958,9911 13968,9942 13970,9970 13964,10002 13957,10034 13945,10060 13923,10085 13902,10109 13878,10125 13847,10135 13816,10146 13787,10148 13755,10141 13723,10135 13698,10122 13673,10101 13649,10079 13633,10056 13622,10025 13612,9994 13610,9965 13616,9933 13623,9901 13635,9876 13657,9851 13678,9827 13702,9811 13733,9800 13764,9790 13793,9788 13825,9794 L 13825,9794 Z"/>
       </g>
      </g>
      <g class="com.sun.star.drawing.EllipseShape">
       <g id="id17">
        <path fill="rgb(255,255,255)" stroke="none" d="M 12359,12109 C 12387,12127 12405,12149 12420,12178 12434,12207 12440,12236 12438,12268 12436,12301 12426,12328 12408,12355 12390,12382 12369,12401 12339,12415 12310,12430 12282,12435 12250,12433 12217,12431 12190,12422 12163,12404 12136,12386 12117,12364 12102,12335 12088,12306 12082,12277 12084,12245 12087,12212 12096,12185 12114,12158 12132,12131 12154,12112 12183,12098 12212,12083 12240,12078 12273,12080 12305,12082 12332,12091 12359,12109 L 12359,12109 Z"/>
        <path fill="none" stroke="rgb(0,0,0)" stroke-width="71" d="M 12359,12109 C 12387,12127 12405,12149 12420,12178 12434,12207 12440,12236 12438,12268 12436,12301 12426,12328 12408,12355 12390,12382 12369,12401 12339,12415 12310,12430 12282,12435 12250,12433 12217,12431 12190,12422 12163,12404 12136,12386 12117,12364 12102,12335 12088,12306 12082,12277 12084,12245 12087,12212 12096,12185 12114,12158 12132,12131 12154,12112 12183,12098 12212,12083 12240,12078 12273,12080 12305,12082 12332,12091 12359,12109 L 12359,12109 Z"/>
       </g>
      </g>
      <g class="com.sun.star.drawing.EllipseShape">
       <g id="id18">
        <path fill="rgb(255,255,255)" stroke="none" d="M 10117,13688 C 10135,13715 10144,13742 10146,13775 10149,13807 10143,13836 10129,13865 10114,13894 10095,13916 10068,13934 10041,13952 10014,13961 9981,13963 9949,13965 9921,13960 9892,13945 9862,13931 9841,13912 9823,13885 9805,13858 9795,13831 9793,13798 9791,13766 9797,13737 9811,13708 9825,13679 9844,13657 9871,13639 9899,13621 9926,13612 9958,13610 9991,13608 10019,13613 10048,13628 10077,13642 10099,13661 10117,13688 L 10117,13688 Z"/>
        <path fill="none" stroke="rgb(0,0,0)" stroke-width="71" d="M 10117,13688 C 10135,13715 10144,13742 10146,13775 10149,13807 10143,13836 10129,13865 10114,13894 10095,13916 10068,13934 10041,13952 10014,13961 9981,13963 9949,13965 9921,13960 9892,13945 9862,13931 9841,13912 9823,13885 9805,13858 9795,13831 9793,13798 9791,13766 9797,13737 9811,13708 9825,13679 9844,13657 9871,13639 9899,13621 9926,13612 9958,13610 9991,13608 10019,13613 10048,13628 10077,13642 10099,13661 10117,13688 L 10117,13688 Z"/>
       </g>
      </g>
      <g class="com.sun.star.drawing.EllipseShape">
       <g id="id19">
        <path fill="rgb(255,255,255)" stroke="none" d="M 7444,14291 C 7450,14323 7448,14352 7438,14383 7427,14414 7411,14437 7387,14459 7362,14480 7337,14493 7305,14499 7273,14506 7244,14504 7213,14493 7182,14483 7158,14467 7137,14443 7115,14418 7103,14392 7096,14360 7090,14328 7092,14300 7102,14269 7113,14238 7129,14214 7153,14193 7178,14171 7203,14159 7235,14152 7267,14146 7296,14148 7327,14158 7358,14169 7382,14185 7403,14209 7425,14234 7437,14259 7444,14291 L 7444,14291 Z"/>
        <path fill="none" stroke="rgb(0,0,0)" stroke-width="71" d="M 7444,14291 C 7450,14323 7448,14352 7438,14383 7427,14414 7411,14437 7387,14459 7362,14480 7337,14493 7305,14499 7273,14506 7244,14504 7213,14493 7182,14483 7158,14467 7137,14443 7115,14418 7103,14392 7096,14360 7090,14328 7092,14300 7102,14269 7113,14238 7129,14214 7153,14193 7178,14171 7203,14159 7235,14152 7267,14146 7296,14148 7327,14158 7358,14169 7382,14185 7403,14209 7425,14234 7437,14259 7444,14291 L 7444,14291 Z"/>
       </g>
      </g>
      <g class="com.sun.star.drawing.EllipseShape">
       <g id="id20">
        <path fill="rgb(255,255,255)" stroke="none" d="M 4744,13822 C 4737,13854 4725,13879 4703,13904 4682,13928 4658,13944 4627,13955 4596,13965 4568,13967 4536,13961 4504,13954 4478,13942 4453,13920 4429,13899 4413,13875 4403,13844 4392,13813 4390,13784 4397,13752 4403,13720 4416,13695 4437,13670 4459,13646 4482,13630 4513,13619 4544,13609 4573,13607 4605,13613 4637,13620 4662,13632 4687,13654 4711,13675 4727,13699 4738,13730 4748,13761 4750,13790 4744,13822 L 4744,13822 Z"/>
        <path fill="none" stroke="rgb(0,0,0)" stroke-width="71" d="M 4744,13822 C 4737,13854 4725,13879 4703,13904 4682,13928 4658,13944 4627,13955 4596,13965 4568,13967 4536,13961 4504,13954 4478,13942 4453,13920 4429,13899 4413,13875 4403,13844 4392,13813 4390,13784 4397,13752 4403,13720 4416,13695 4437,13670 4459,13646 4482,13630 4513,13619 4544,13609 4573,13607 4605,13613 4637,13620 4662,13632 4687,13654 4711,13675 4727,13699 4738,13730 4748,13761 4750,13790 4744,13822 L 4744,13822 Z"/>
       </g>
      </g>
      <g class="com.sun.star.drawing.EllipseShape">
       <g id="id21">
        <path fill="rgb(255,255,255)" stroke="none" d="M 2430,12357 C 2412,12384 2390,12403 2361,12417 2332,12431 2303,12437 2271,12435 2238,12433 2211,12423 2184,12405 2157,12387 2138,12366 2124,12336 2109,12307 2104,12279 2106,12247 2108,12214 2117,12187 2135,12160 2153,12133 2175,12114 2204,12099 2233,12085 2262,12079 2294,12082 2327,12084 2354,12093 2381,12111 2408,12129 2427,12151 2441,12180 2456,12209 2461,12237 2459,12270 2457,12302 2448,12329 2430,12357 L 2430,12357 Z"/>
        <path fill="none" stroke="rgb(0,0,0)" stroke-width="71" d="M 2430,12357 C 2412,12384 2390,12403 2361,12417 2332,12431 2303,12437 2271,12435 2238,12433 2211,12423 2184,12405 2157,12387 2138,12366 2124,12336 2109,12307 2104,12279 2106,12247 2108,12214 2117,12187 2135,12160 2153,12133 2175,12114 2204,12099 2233,12085 2262,12079 2294,12082 2327,12084 2354,12093 2381,12111 2408,12129 2427,12151 2441,12180 2456,12209 2461,12237 2459,12270 2457,12302 2448,12329 2430,12357 L 2430,12357 Z"/>
       </g>
      </g>
      <g class="com.sun.star.drawing.EllipseShape">
       <g id="id22">
        <path fill="rgb(255,255,255)" stroke="none" d="M 851,10114 C 824,10132 797,10141 764,10144 732,10146 703,10140 674,10126 645,10111 623,10092 605,10065 587,10038 578,10011 576,9978 574,9946 579,9918 594,9889 608,9859 627,9838 654,9820 681,9802 708,9792 741,9790 773,9788 802,9794 831,9808 860,9823 882,9841 900,9869 918,9896 927,9923 929,9955 931,9988 926,10016 911,10045 897,10074 878,10096 851,10114 L 851,10114 Z"/>
        <path fill="none" stroke="rgb(0,0,0)" stroke-width="71" d="M 851,10114 C 824,10132 797,10141 764,10144 732,10146 703,10140 674,10126 645,10111 623,10092 605,10065 587,10038 578,10011 576,9978 574,9946 579,9918 594,9889 608,9859 627,9838 654,9820 681,9802 708,9792 741,9790 773,9788 802,9794 831,9808 860,9823 882,9841 900,9869 918,9896 927,9923 929,9955 931,9988 926,10016 911,10045 897,10074 878,10096 851,10114 L 851,10114 Z"/>
       </g>
      </g>
      <g class="com.sun.star.drawing.EllipseShape">
       <g id="id23">
        <path fill="rgb(255,255,255)" stroke="none" d="M 250,7441 C 218,7447 189,7445 158,7435 127,7424 104,7408 82,7384 61,7359 48,7334 42,7302 35,7270 37,7241 48,7210 58,7179 74,7155 98,7134 123,7112 149,7100 181,7093 213,7087 241,7089 272,7099 303,7110 327,7126 348,7150 370,7175 382,7200 389,7232 395,7264 393,7293 383,7324 372,7355 356,7379 332,7400 307,7422 282,7434 250,7441 L 250,7441 Z"/>
        <path fill="none" stroke="rgb(0,0,0)" stroke-width="71" d="M 250,7441 C 218,7447 189,7445 158,7435 127,7424 104,7408 82,7384 61,7359 48,7334 42,7302 35,7270 37,7241 48,7210 58,7179 74,7155 98,7134 123,7112 149,7100 181,7093 213,7087 241,7089 272,7099 303,7110 327,7126 348,7150 370,7175 382,7200 389,7232 395,7264 393,7293 383,7324 372,7355 356,7379 332,7400 307,7422 282,7434 250,7441 L 250,7441 Z"/>
       </g>
      </g>
      <g class="com.sun.star.drawing.EllipseShape">
       <g id="id24">
        <path fill="rgb(255,255,255)" stroke="none" d="M 717,4741 C 685,4734 660,4722 635,4700 611,4679 595,4655 584,4624 574,4593 572,4565 578,4533 585,4501 597,4475 619,4450 640,4426 664,4410 695,4400 726,4389 755,4387 787,4394 819,4400 844,4413 869,4434 893,4456 909,4479 920,4510 930,4541 932,4570 926,4602 919,4634 907,4659 885,4684 864,4708 840,4724 809,4735 778,4745 749,4747 717,4741 L 717,4741 Z"/>
        <path fill="none" stroke="rgb(0,0,0)" stroke-width="71" d="M 717,4741 C 685,4734 660,4722 635,4700 611,4679 595,4655 584,4624 574,4593 572,4565 578,4533 585,4501 597,4475 619,4450 640,4426 664,4410 695,4400 726,4389 755,4387 787,4394 819,4400 844,4413 869,4434 893,4456 909,4479 920,4510 930,4541 932,4570 926,4602 919,4634 907,4659 885,4684 864,4708 840,4724 809,4735 778,4745 749,4747 717,4741 L 717,4741 Z"/>
       </g>
      </g>
      <g class="com.sun.star.drawing.EllipseShape">
       <g id="id25">
        <path fill="rgb(255,255,255)" stroke="none" d="M 2184,2425 C 2156,2407 2138,2385 2123,2356 2109,2327 2103,2298 2105,2266 2107,2233 2117,2206 2135,2179 2153,2152 2174,2133 2204,2119 2233,2104 2261,2099 2293,2101 2326,2103 2353,2112 2380,2130 2407,2148 2426,2170 2441,2199 2455,2228 2461,2257 2459,2289 2456,2322 2447,2349 2429,2376 2411,2403 2389,2422 2360,2436 2331,2451 2303,2456 2270,2454 2238,2452 2211,2443 2184,2425 L 2184,2425 Z"/>
        <path fill="none" stroke="rgb(0,0,0)" stroke-width="71" d="M 2184,2425 C 2156,2407 2138,2385 2123,2356 2109,2327 2103,2298 2105,2266 2107,2233 2117,2206 2135,2179 2153,2152 2174,2133 2204,2119 2233,2104 2261,2099 2293,2101 2326,2103 2353,2112 2380,2130 2407,2148 2426,2170 2441,2199 2455,2228 2461,2257 2459,2289 2456,2322 2447,2349 2429,2376 2411,2403 2389,2422 2360,2436 2331,2451 2303,2456 2270,2454 2238,2452 2211,2443 2184,2425 L 2184,2425 Z"/>
       </g>
      </g>
      <g class="com.sun.star.drawing.EllipseShape">
       <g id="id26">
        <path fill="rgb(255,255,255)" stroke="none" d="M 4423,848 C 4405,821 4396,793 4393,761 4391,728 4397,700 4411,671 4426,642 4445,620 4472,602 4499,584 4526,575 4559,573 4591,571 4619,576 4648,591 4678,605 4699,624 4717,651 4735,678 4745,705 4747,738 4749,771 4743,799 4729,828 4714,857 4695,879 4668,897 4641,915 4614,924 4582,926 4549,928 4521,923 4492,908 4462,894 4441,875 4423,848 L 4423,848 Z"/>
        <path fill="none" stroke="rgb(0,0,0)" stroke-width="71" d="M 4423,848 C 4405,821 4396,793 4393,761 4391,728 4397,700 4411,671 4426,642 4445,620 4472,602 4499,584 4526,575 4559,573 4591,571 4619,576 4648,591 4678,605 4699,624 4717,651 4735,678 4745,705 4747,738 4749,771 4743,799 4729,828 4714,857 4695,879 4668,897 4641,915 4614,924 4582,926 4549,928 4521,923 4492,908 4462,894 4441,875 4423,848 L 4423,848 Z"/>
       </g>
      </g>
     </g>
    </g>
   </g>
  </g>
 </g>
</svg>