<?xml version="1.0" encoding="UTF-8"?>
<!DOCTYPE svg PUBLIC "-//W3C//DTD SVG 1.1//EN" "http://www.w3.org/Graphics/SVG/1.1/DTD/svg11.dtd">
<svg version="1.1" width="141.87mm" height="145.4mm" viewBox="0 0 14187 14540" preserveAspectRatio="xMidYMid" fill-rule="evenodd" clip-path="url(#presentation_clip_path)" stroke-width="28.222" stroke-linejoin="round" xmlns="http://www.w3.org/2000/svg" xmlns:ooo="http://xml.openoffice.org/svg/export" xmlns:xlink="http://www.w3.org/1999/xlink" xml:space="preserve">
 <defs class="ClipPathGroup">
  <clipPath id="presentation_clip_path" clipPathUnits="userSpaceOnUse">
   <rect x="0" y="0" width="14187" height="14540"/>
  </clipPath>
 </defs>
 <defs class="TextShapeIndex">
  
 </defs>
 <defs class="EmbeddedBulletChars">
  <g id="bullet-char-template57356" transform="scale(0.00048828125,-0.00048828125)">
   <path d="M 580,1141 L 1163,571 580,0 -4,571 580,1141 Z"/>
  </g>
  <g id="bullet-char-template57354" transform="scale(0.00048828125,-0.00048828125)">
   <path d="M 8,1128 L 1137,1128 1137,0 8,0 8,1128 Z"/>
  </g>
  <g id="bullet-char-template10146" transform="scale(0.00048828125,-0.00048828125)">
   <path d="M 174,0 L 602,739 174,1481 1456,739 174,0 Z M 1358,739 L 309,1346 659,739 1358,739 Z"/>
  </g>
  <g id="bullet-char-template10132" transform="scale(0.00048828125,-0.00048828125)">
   <path d="M 2015,739 L 1276,0 717,0 1260,543 174,543 174,936 1260,936 717,1481 1274,1481 2015,739 Z"/>
  </g>
  <g id="bullet-char-template10007" transform="scale(0.00048828125,-0.00048828125)">
   <path d="M 0,-2 C -7,14 -16,27 -25,37 L 356,567 C 262,823 215,952 215,954 215,979 228,992 255,992 264,992 276,990 289,987 310,991 331,999 354,1012 L 381,999 492,748 772,1049 836,1024 860,1049 C 881,1039 901,1025 922,1006 886,937 835,863 770,784 769,783 710,716 594,584 L 774,223 C 774,196 753,168 711,139 L 727,119 C 717,90 699,76 672,76 641,76 570,178 457,381 L 164,-76 C 142,-110 111,-127 72,-127 30,-127 9,-110 8,-76 1,-67 -2,-52 -2,-32 -2,-23 -1,-13 0,-2 Z"/>
  </g>
  <g id="bullet-char-template10004" transform="scale(0.00048828125,-0.00048828125)">
   <path d="M 285,-33 C 182,-33 111,30 74,156 52,228 41,333 41,471 41,549 55,616 82,672 116,743 169,778 240,778 293,778 328,747 346,684 L 369,508 C 377,444 397,411 428,410 L 1163,1116 C 1174,1127 1196,1133 1229,1133 1271,1133 1292,1118 1292,1087 L 1292,965 C 1292,929 1282,901 1262,881 L 442,47 C 390,-6 338,-33 285,-33 Z"/>
  </g>
  <g id="bullet-char-template9679" transform="scale(0.00048828125,-0.00048828125)">
   <path d="M 813,0 C 632,0 489,54 383,161 276,268 223,411 223,592 223,773 276,916 383,1023 489,1130 632,1184 813,1184 992,1184 1136,1130 1245,1023 1353,916 1407,772 1407,592 1407,412 1353,268 1245,161 1136,54 992,0 813,0 Z"/>
  </g>
  <g id="bullet-char-template8226" transform="scale(0.00048828125,-0.00048828125)">
   <path d="M 346,457 C 273,457 209,483 155,535 101,586 74,649 74,723 74,796 101,859 155,911 209,963 273,989 346,989 419,989 480,963 531,910 582,859 608,796 608,723 608,648 583,586 532,535 482,483 420,457 346,457 Z"/>
  </g>
  <g id="bullet-char-template8211" transform="scale(0.00048828125,-0.00048828125)">
   <path d="M -4,459 L 1135,459 1135,606 -4,606 -4,459 Z"/>
  </g>
 </defs>
 <defs class="TextEmbeddedBitmaps"/>
 <g>
  <g id="id2" class="Master_Slide">
   <g id="bg-id2" class="Background"/>
   <g id="bo-id2" class="BackgroundObjects"/>
  </g>
 </g>
 <g class="SlideGroup">
  <g>
   <g id="id1" class="Slide" clip-path="url(#presentation_clip_path)">
    <g class="Page">
     <g class="Group">
      <g class="com.sun.star.drawing.EllipseShape">
       <g id="id3">
        <path fill="rgb(255,255,255)" stroke="none" d="M 7092,14324 C 5793,14324 4689,14028 3564,13379 2439,12729 1631,11921 981,10796 332,9671 36,8567 36,7268 36,5969 332,4865 981,3740 1631,2615 2439,1807 3564,1157 4689,508 5793,212 7092,212 8391,212 9495,508 10620,1157 11745,1807 12553,2615 13203,3740 13852,4865 14148,5969 14148,7268 14148,8567 13852,9671 13203,10796 12553,11921 11745,12729 10620,13379 9495,14028 8391,14324 7092,14324 L 7092,14324 Z"/>
        <path fill="none" stroke="rgb(192,192,192)" stroke-width="71" d="M 7092,14324 C 5793,14324 4689,14028 3564,13379 2439,12729 1631,11921 981,10796 332,9671 36,8567 36,7268 36,5969 332,4865 981,3740 1631,2615 2439,1807 3564,1157 4689,508 5793,212 7092,212 8391,212 9495,508 10620,1157 11745,1807 12553,2615 13203,3740 13852,4865 14148,5969 14148,7268 14148,8567 13852,9671 13203,10796 12553,11921 11745,12729 10620,13379 9495,14028 8391,14324 7092,14324 L 7092,14324 Z"/>
       </g>
      </g>
      <g class="com.sun.star.drawing.EllipseShape">
       <g id="id4">
        <path fill="rgb(255,255,255)" stroke="none" d="M 7094,7268 L 11840,6183 C 11925,6558 11962,6883 11962,7267 11962,7652 11925,7977 11840,8351 L 7094,7268 Z"/>
        <path fill="none" stroke="rgb(192,192,192)" stroke-width="71" d="M 7094,7268 L 11840,6183 C 11925,6558 11962,6883 11962,7267 11962,7652 11925,7977 11840,8351 L 7094,7268 Z"/>
       </g>
      </g>
      <g class="com.sun.star.drawing.TextShape">
       <g id="id5">
        <text class="TextShape"><tspan class="TextParagraph" font-family="DejaVu Sans, sans-serif" font-size="635px" font-weight="400"><tspan class="TextPosition" x="9507" y="7606"><tspan fill="rgb(192,192,192)" stroke="none">25 ¹⁰⁄₁₄°</tspan></tspan></tspan></text>
       </g>
      </g>
      <g class="com.sun.star.drawing.PolyLineShape">
       <g id="id6">
        <path fill="none" stroke="rgb(192,192,192)" stroke-width="71" d="M 7093,7269 L 7093,213 7093,7269 10154,912 7093,7269 12609,2870 7093,7269 13972,5698 7093,7269 13972,8837 7093,7269 12611,11666 7093,7269 10157,13624 7093,7269 7097,14324 7093,7269 4036,13628 7093,7269 1579,11671 7093,7269 216,8844 7093,7269 214,5704 7093,7269 1572,2876 7093,7269 4026,916 7093,7269 Z"/>
       </g>
      </g>
      <g class="com.sun.star.drawing.EllipseShape">
       <g id="id7">
        <path fill="rgb(255,255,255)" stroke="none" d="M 7094,7445 C 7061,7445 7034,7438 7006,7421 6977,7405 6957,7385 6941,7357 6924,7328 6917,7301 6917,7268 6917,7235 6924,7208 6941,7180 6957,7151 6977,7131 7006,7115 7034,7098 7061,7091 7094,7091 7127,7091 7154,7098 7183,7115 7211,7131 7231,7151 7247,7180 7264,7208 7271,7235 7271,7268 7271,7301 7264,7328 7247,7357 7231,7385 7211,7405 7183,7421 7154,7438 7127,7445 7094,7445 L 7094,7445 Z"/>
        <path fill="none" stroke="rgb(192,192,192)" stroke-width="71" d="M 7094,7445 C 7061,7445 7034,7438 7006,7421 6977,7405 6957,7385 6941,7357 6924,7328 6917,7301 6917,7268 6917,7235 6924,7208 6941,7180 6957,7151 6977,7131 7006,7115 7034,7098 7061,7091 7094,7091 7127,7091 7154,7098 7183,7115 7211,7131 7231,7151 7247,7180 7264,7208 7271,7235 7271,7268 7271,7301 7264,7328 7247,7357 7231,7385 7211,7405 7183,7421 7154,7438 7127,7445 7094,7445 L 7094,7445 Z"/>
       </g>
      </g>
      <g class="com.sun.star.drawing.EllipseShape">
       <g id="id8">
        <path fill="rgb(255,255,255)" stroke="none" d="M 7092,212 L 8940,634 C 8896,828 8834,987 8734,1160 8559,1462 8342,1679 8040,1854 7737,2028 7441,2108 7092,2108 6742,2108 6446,2028 6143,1854 5841,1679 5624,1462 5449,1160 5349,987 5287,828 5243,634 L 7092,212 Z"/>
        <path fill="none" stroke="rgb(0,0,0)" stroke-width="71" d="M 7092,212 L 8940,634 C 8896,828 8834,987 8734,1160 8559,1462 8342,1679 8040,1854 7737,2028 7441,2108 7092,2108 6742,2108 6446,2028 6143,1854 5841,1679 5624,1462 5449,1160 5349,987 5287,828 5243,634 L 7092,212 Z"/>
       </g>
      </g>
      <g class="com.sun.star.drawing.TextShape">
       <g id="id9">
        <text class="TextShape"><tspan class="TextParagraph" font-family="DejaVu Sans, sans-serif" font-size="635px" font-weight="400"><tspan class="TextPosition" x="5830" y="1434"><tspan fill="rgb(0,0,0)" stroke="none">154 ⁴⁄₁₄°</tspan></tspan></tspan></text>
       </g>
      </g>
      <g class="com.sun.star.drawing.PolyLineShape">
       <g id="id10">
        <path fill="none" stroke="rgb(0,0,0)" stroke-width="141" d="M 7095,215 L 10154,912 12609,2868 13971,5695 13972,8837 12611,11664 10157,13620 7098,14321 4036,13624 1579,11668 216,8841 212,5700 1571,2870 4023,909 7091,210"/>
       </g>
      </g>
      <g class="com.sun.star.drawing.EllipseShape">
       <g id="id11">
        <path fill="rgb(255,255,255)" stroke="none" d="M 6969,90 C 6992,67 7016,52 7048,44 7079,36 7108,36 7139,44 7171,52 7196,67 7219,90 7242,113 7256,138 7265,169 7273,201 7273,229 7265,261 7256,292 7242,317 7219,340 7196,363 7171,378 7139,386 7108,394 7079,394 7048,386 7016,378 6992,363 6969,340 6945,317 6931,292 6923,261 6914,229 6914,201 6923,169 6931,138 6945,113 6969,90 L 6969,90 Z"/>
        <path fill="none" stroke="rgb(0,0,0)" stroke-width="71" d="M 6969,90 C 6992,67 7016,52 7048,44 7079,36 7108,36 7139,44 7171,52 7196,67 7219,90 7242,113 7256,138 7265,169 7273,201 7273,229 7265,261 7256,292 7242,317 7219,340 7196,363 7171,378 7139,386 7108,394 7079,394 7048,386 7016,378 6992,363 6969,340 6945,317 6931,292 6923,261 6914,229 6914,201 6923,169 6931,138 6945,113 6969,90 L 6969,90 Z"/>
       </g>
      </g>
      <g class="com.sun.star.drawing.EllipseShape">
       <g id="id12">
        <path fill="rgb(255,255,255)" stroke="none" d="M 9984,875 C 9992,843 10005,818 10027,794 10049,770 10074,755 10105,745 10136,735 10165,734 10196,742 10228,749 10254,762 10277,784 10301,807 10317,831 10326,862 10336,893 10337,922 10330,954 10322,985 10309,1011 10287,1035 10265,1058 10240,1074 10209,1083 10178,1093 10149,1094 10118,1087 10086,1079 10061,1066 10037,1044 10013,1022 9998,997 9988,966 9978,935 9977,907 9984,875 L 9984,875 Z"/>
        <path fill="none" stroke="rgb(0,0,0)" stroke-width="71" d="M 9984,875 C 9992,843 10005,818 10027,794 10049,770 10074,755 10105,745 10136,735 10165,734 10196,742 10228,749 10254,762 10277,784 10301,807 10317,831 10326,862 10336,893 10337,922 10330,954 10322,985 10309,1011 10287,1035 10265,1058 10240,1074 10209,1083 10178,1093 10149,1094 10118,1087 10086,1079 10061,1066 10037,1044 10013,1022 9998,997 9988,966 9978,935 9977,907 9984,875 L 9984,875 Z"/>
       </g>
      </g>
      <g class="com.sun.star.drawing.EllipseShape">
       <g id="id13">
        <path fill="rgb(255,255,255)" stroke="none" d="M 12472,2760 C 12492,2734 12515,2717 12546,2705 12576,2693 12604,2690 12637,2695 12669,2700 12695,2711 12721,2732 12746,2752 12763,2775 12775,2805 12787,2836 12790,2864 12785,2896 12780,2929 12769,2955 12749,2980 12728,3006 12705,3023 12675,3035 12645,3047 12616,3050 12584,3045 12552,3040 12525,3029 12500,3009 12474,2988 12457,2965 12446,2935 12434,2905 12430,2876 12435,2844 12440,2812 12452,2785 12472,2760 L 12472,2760 Z"/>
        <path fill="none" stroke="rgb(0,0,0)" stroke-width="71" d="M 12472,2760 C 12492,2734 12515,2717 12546,2705 12576,2693 12604,2690 12637,2695 12669,2700 12695,2711 12721,2732 12746,2752 12763,2775 12775,2805 12787,2836 12790,2864 12785,2896 12780,2929 12769,2955 12749,2980 12728,3006 12705,3023 12675,3035 12645,3047 12616,3050 12584,3045 12552,3040 12525,3029 12500,3009 12474,2988 12457,2965 12446,2935 12434,2905 12430,2876 12435,2844 12440,2812 12452,2785 12472,2760 L 12472,2760 Z"/>
       </g>
      </g>
      <g class="com.sun.star.drawing.EllipseShape">
       <g id="id14">
        <path fill="rgb(255,255,255)" stroke="none" d="M 13896,5540 C 13925,5526 13953,5520 13986,5523 14018,5525 14045,5535 14072,5553 14099,5571 14118,5593 14132,5623 14146,5652 14152,5680 14149,5713 14147,5745 14137,5772 14119,5799 14101,5826 14079,5845 14050,5859 14020,5873 13992,5878 13960,5876 13927,5873 13900,5864 13873,5846 13846,5827 13827,5806 13813,5776 13799,5747 13794,5719 13796,5686 13799,5654 13808,5627 13826,5600 13845,5573 13867,5554 13896,5540 L 13896,5540 Z"/>
        <path fill="none" stroke="rgb(0,0,0)" stroke-width="71" d="M 13896,5540 C 13925,5526 13953,5520 13986,5523 14018,5525 14045,5535 14072,5553 14099,5571 14118,5593 14132,5623 14146,5652 14152,5680 14149,5713 14147,5745 14137,5772 14119,5799 14101,5826 14079,5845 14050,5859 14020,5873 13992,5878 13960,5876 13927,5873 13900,5864 13873,5846 13846,5827 13827,5806 13813,5776 13799,5747 13794,5719 13796,5686 13799,5654 13808,5627 13826,5600 13845,5573 13867,5554 13896,5540 L 13896,5540 Z"/>
       </g>
      </g>
      <g class="com.sun.star.drawing.EllipseShape">
       <g id="id15">
        <path fill="rgb(255,255,255)" stroke="none" d="M 13974,8659 C 14006,8659 14034,8667 14062,8683 14091,8699 14111,8719 14127,8748 14143,8776 14151,8803 14151,8836 14151,8869 14143,8896 14127,8925 14111,8953 14091,8973 14062,8989 14034,9006 14007,9013 13974,9013 13941,9013 13914,9006 13885,8989 13857,8973 13837,8953 13821,8925 13804,8897 13797,8869 13797,8836 13797,8804 13804,8776 13821,8748 13837,8720 13857,8699 13885,8683 13913,8667 13941,8659 13974,8659 L 13974,8659 Z"/>
        <path fill="none" stroke="rgb(0,0,0)" stroke-width="71" d="M 13974,8659 C 14006,8659 14034,8667 14062,8683 14091,8699 14111,8719 14127,8748 14143,8776 14151,8803 14151,8836 14151,8869 14143,8896 14127,8925 14111,8953 14091,8973 14062,8989 14034,9006 14007,9013 13974,9013 13941,9013 13914,9006 13885,8989 13857,8973 13837,8953 13821,8925 13804,8897 13797,8869 13797,8836 13797,8804 13804,8776 13821,8748 13837,8720 13857,8699 13885,8683 13913,8667 13941,8659 13974,8659 L 13974,8659 Z"/>
       </g>
      </g>
      <g class="com.sun.star.drawing.EllipseShape">
       <g id="id16">
        <path fill="rgb(255,255,255)" stroke="none" d="M 12691,11507 C 12720,11521 12742,11540 12760,11567 12779,11594 12788,11621 12791,11653 12793,11686 12788,11714 12774,11743 12760,11773 12741,11795 12714,11813 12687,11831 12660,11841 12628,11843 12595,11846 12567,11840 12537,11826 12508,11812 12486,11793 12468,11767 12450,11740 12440,11713 12438,11680 12435,11648 12441,11619 12455,11590 12469,11561 12487,11539 12514,11521 12541,11502 12568,11493 12601,11490 12633,11488 12662,11493 12691,11507 L 12691,11507 Z"/>
        <path fill="none" stroke="rgb(0,0,0)" stroke-width="71" d="M 12691,11507 C 12720,11521 12742,11540 12760,11567 12779,11594 12788,11621 12791,11653 12793,11686 12788,11714 12774,11743 12760,11773 12741,11795 12714,11813 12687,11831 12660,11841 12628,11843 12595,11846 12567,11840 12537,11826 12508,11812 12486,11793 12468,11767 12450,11740 12440,11713 12438,11680 12435,11648 12441,11619 12455,11590 12469,11561 12487,11539 12514,11521 12541,11502 12568,11493 12601,11490 12633,11488 12662,11493 12691,11507 L 12691,11507 Z"/>
       </g>
      </g>
      <g class="com.sun.star.drawing.EllipseShape">
       <g id="id17">
        <path fill="rgb(255,255,255)" stroke="none" d="M 10297,13514 C 10318,13539 10329,13566 10334,13598 10339,13630 10336,13659 10324,13689 10312,13719 10295,13742 10269,13763 10244,13783 10218,13794 10185,13799 10153,13804 10125,13801 10094,13789 10064,13777 10041,13760 10021,13735 10000,13709 9989,13683 9984,13651 9979,13618 9982,13590 9994,13560 10006,13529 10023,13506 10049,13486 10074,13466 10100,13454 10133,13449 10165,13444 10193,13448 10224,13459 10254,13471 10277,13488 10297,13514 L 10297,13514 Z"/>
        <path fill="none" stroke="rgb(0,0,0)" stroke-width="71" d="M 10297,13514 C 10318,13539 10329,13566 10334,13598 10339,13630 10336,13659 10324,13689 10312,13719 10295,13742 10269,13763 10244,13783 10218,13794 10185,13799 10153,13804 10125,13801 10094,13789 10064,13777 10041,13760 10021,13735 10000,13709 9989,13683 9984,13651 9979,13618 9982,13590 9994,13560 10006,13529 10023,13506 10049,13486 10074,13466 10100,13454 10133,13449 10165,13444 10193,13448 10224,13459 10254,13471 10277,13488 10297,13514 L 10297,13514 Z"/>
       </g>
      </g>
      <g class="com.sun.star.drawing.EllipseShape">
       <g id="id18">
        <path fill="rgb(255,255,255)" stroke="none" d="M 7274,14286 C 7281,14318 7280,14347 7270,14378 7261,14409 7245,14433 7222,14456 7198,14478 7172,14491 7141,14498 7109,14506 7080,14505 7049,14495 7018,14486 6994,14470 6971,14446 6949,14423 6936,14397 6928,14365 6921,14334 6922,14305 6932,14274 6941,14243 6957,14218 6981,14196 7004,14174 7030,14161 7062,14153 7093,14146 7122,14147 7153,14157 7184,14166 7208,14182 7231,14205 7253,14229 7266,14255 7274,14286 L 7274,14286 Z"/>
        <path fill="none" stroke="rgb(0,0,0)" stroke-width="71" d="M 7274,14286 C 7281,14318 7280,14347 7270,14378 7261,14409 7245,14433 7222,14456 7198,14478 7172,14491 7141,14498 7109,14506 7080,14505 7049,14495 7018,14486 6994,14470 6971,14446 6949,14423 6936,14397 6928,14365 6921,14334 6922,14305 6932,14274 6941,14243 6957,14218 6981,14196 7004,14174 7030,14161 7062,14153 7093,14146 7122,14147 7153,14157 7184,14166 7208,14182 7231,14205 7253,14229 7266,14255 7274,14286 L 7274,14286 Z"/>
       </g>
      </g>
      <g class="com.sun.star.drawing.EllipseShape">
       <g id="id19">
        <path fill="rgb(255,255,255)" stroke="none" d="M 4210,13666 C 4203,13698 4190,13723 4168,13747 4146,13771 4121,13786 4090,13796 4059,13805 4030,13807 3999,13799 3967,13792 3941,13779 3918,13757 3894,13734 3878,13710 3869,13679 3859,13648 3858,13619 3865,13587 3873,13556 3886,13530 3908,13506 3930,13482 3955,13467 3986,13458 4017,13448 4045,13447 4077,13454 4109,13461 4134,13475 4158,13497 4182,13519 4197,13543 4207,13574 4217,13606 4218,13634 4210,13666 L 4210,13666 Z"/>
        <path fill="none" stroke="rgb(0,0,0)" stroke-width="71" d="M 4210,13666 C 4203,13698 4190,13723 4168,13747 4146,13771 4121,13786 4090,13796 4059,13805 4030,13807 3999,13799 3967,13792 3941,13779 3918,13757 3894,13734 3878,13710 3869,13679 3859,13648 3858,13619 3865,13587 3873,13556 3886,13530 3908,13506 3930,13482 3955,13467 3986,13458 4017,13448 4045,13447 4077,13454 4109,13461 4134,13475 4158,13497 4182,13519 4197,13543 4207,13574 4217,13606 4218,13634 4210,13666 L 4210,13666 Z"/>
       </g>
      </g>
      <g class="com.sun.star.drawing.EllipseShape">
       <g id="id20">
        <path fill="rgb(255,255,255)" stroke="none" d="M 1719,11782 C 1699,11808 1676,11825 1646,11837 1615,11848 1587,11852 1554,11847 1522,11842 1496,11831 1470,11810 1445,11790 1428,11767 1416,11737 1404,11706 1401,11678 1406,11646 1411,11613 1422,11587 1442,11562 1463,11536 1486,11519 1516,11507 1546,11495 1575,11492 1607,11497 1639,11502 1665,11513 1691,11533 1716,11554 1734,11577 1745,11607 1757,11637 1761,11666 1756,11698 1751,11730 1739,11757 1719,11782 L 1719,11782 Z"/>
        <path fill="none" stroke="rgb(0,0,0)" stroke-width="71" d="M 1719,11782 C 1699,11808 1676,11825 1646,11837 1615,11848 1587,11852 1554,11847 1522,11842 1496,11831 1470,11810 1445,11790 1428,11767 1416,11737 1404,11706 1401,11678 1406,11646 1411,11613 1422,11587 1442,11562 1463,11536 1486,11519 1516,11507 1546,11495 1575,11492 1607,11497 1639,11502 1665,11513 1691,11533 1716,11554 1734,11577 1745,11607 1757,11637 1761,11666 1756,11698 1751,11730 1739,11757 1719,11782 L 1719,11782 Z"/>
       </g>
      </g>
      <g class="com.sun.star.drawing.EllipseShape">
       <g id="id21">
        <path fill="rgb(255,255,255)" stroke="none" d="M 294,9003 C 265,9017 237,9022 204,9020 172,9018 145,9008 118,8990 91,8972 72,8950 58,8920 44,8891 38,8863 41,8830 43,8798 53,8771 71,8744 89,8717 111,8698 140,8684 170,8670 198,8665 230,8667 263,8669 290,8679 317,8697 344,8716 363,8737 377,8767 391,8796 396,8824 394,8857 391,8889 382,8916 364,8943 345,8970 324,8989 294,9003 L 294,9003 Z"/>
        <path fill="none" stroke="rgb(0,0,0)" stroke-width="71" d="M 294,9003 C 265,9017 237,9022 204,9020 172,9018 145,9008 118,8990 91,8972 72,8950 58,8920 44,8891 38,8863 41,8830 43,8798 53,8771 71,8744 89,8717 111,8698 140,8684 170,8670 198,8665 230,8667 263,8669 290,8679 317,8697 344,8716 363,8737 377,8767 391,8796 396,8824 394,8857 391,8889 382,8916 364,8943 345,8970 324,8989 294,9003 L 294,9003 Z"/>
       </g>
      </g>
      <g class="com.sun.star.drawing.EllipseShape">
       <g id="id22">
        <path fill="rgb(255,255,255)" stroke="none" d="M 215,5884 C 183,5884 155,5876 127,5860 99,5844 78,5824 62,5795 46,5767 38,5740 38,5707 38,5674 46,5647 62,5618 78,5590 98,5570 127,5554 155,5537 182,5530 215,5530 248,5530 275,5537 304,5553 332,5570 352,5590 368,5618 385,5646 392,5674 392,5707 392,5739 385,5767 369,5795 352,5823 332,5844 304,5860 276,5876 248,5884 215,5884 L 215,5884 Z"/>
        <path fill="none" stroke="rgb(0,0,0)" stroke-width="71" d="M 215,5884 C 183,5884 155,5876 127,5860 99,5844 78,5824 62,5795 46,5767 38,5740 38,5707 38,5674 46,5647 62,5618 78,5590 98,5570 127,5554 155,5537 182,5530 215,5530 248,5530 275,5537 304,5553 332,5570 352,5590 368,5618 385,5646 392,5674 392,5707 392,5739 385,5767 369,5795 352,5823 332,5844 304,5860 276,5876 248,5884 215,5884 L 215,5884 Z"/>
       </g>
      </g>
      <g class="com.sun.star.drawing.EllipseShape">
       <g id="id23">
        <path fill="rgb(255,255,255)" stroke="none" d="M 1497,3037 C 1468,3023 1446,3004 1428,2977 1409,2950 1400,2923 1397,2891 1395,2858 1400,2830 1414,2801 1428,2771 1447,2749 1474,2731 1501,2713 1528,2703 1560,2701 1593,2698 1621,2704 1651,2718 1680,2732 1702,2751 1720,2777 1738,2804 1748,2831 1750,2864 1753,2896 1747,2925 1733,2954 1719,2983 1701,3005 1674,3023 1647,3042 1620,3051 1587,3054 1555,3056 1526,3051 1497,3037 L 1497,3037 Z"/>
        <path fill="none" stroke="rgb(0,0,0)" stroke-width="71" d="M 1497,3037 C 1468,3023 1446,3004 1428,2977 1409,2950 1400,2923 1397,2891 1395,2858 1400,2830 1414,2801 1428,2771 1447,2749 1474,2731 1501,2713 1528,2703 1560,2701 1593,2698 1621,2704 1651,2718 1680,2732 1702,2751 1720,2777 1738,2804 1748,2831 1750,2864 1753,2896 1747,2925 1733,2954 1719,2983 1701,3005 1674,3023 1647,3042 1620,3051 1587,3054 1555,3056 1526,3051 1497,3037 L 1497,3037 Z"/>
       </g>
      </g>
      <g class="com.sun.star.drawing.EllipseShape">
       <g id="id24">
        <path fill="rgb(255,255,255)" stroke="none" d="M 3888,1024 C 3868,999 3856,973 3851,940 3846,908 3850,880 3861,849 3873,819 3890,796 3916,776 3941,755 3967,744 4000,739 4032,734 4060,737 4091,749 4121,761 4144,778 4165,803 4185,829 4196,855 4201,887 4206,919 4203,948 4191,978 4179,1009 4162,1032 4137,1052 4111,1072 4085,1084 4053,1089 4021,1094 3992,1090 3962,1079 3932,1067 3908,1050 3888,1024 L 3888,1024 Z"/>
        <path fill="none" stroke="rgb(0,0,0)" stroke-width="71" d="M 3888,1024 C 3868,999 3856,973 3851,940 3846,908 3850,880 3861,849 3873,819 3890,796 3916,776 3941,755 3967,744 4000,739 4032,734 4060,737 4091,749 4121,761 4144,778 4165,803 4185,829 4196,855 4201,887 4206,919 4203,948 4191,978 4179,1009 4162,1032 4137,1052 4111,1072 4085,1084 4053,1089 4021,1094 3992,1090 3962,1079 3932,1067 3908,1050 3888,1024 L 3888,1024 Z"/>
       </g>
      </g>
     </g>
    </g>
   </g>
  </g>
 </g>
</svg>