<?xml version="1.0" encoding="UTF-8"?>
<!DOCTYPE svg PUBLIC "-//W3C//DTD SVG 1.1//EN" "http://www.w3.org/Graphics/SVG/1.1/DTD/svg11.dtd">
<svg version="1.1" width="143.93mm" height="143.58mm" viewBox="0 0 14393 14358" preserveAspectRatio="xMidYMid" fill-rule="evenodd" clip-path="url(#presentation_clip_path)" stroke-width="28.222" stroke-linejoin="round" xmlns="http://www.w3.org/2000/svg" xmlns:ooo="http://xml.openoffice.org/svg/export" xmlns:xlink="http://www.w3.org/1999/xlink" xml:space="preserve">
 <defs class="ClipPathGroup">
  <clipPath id="presentation_clip_path" clipPathUnits="userSpaceOnUse">
   <rect x="0" y="0" width="14393" height="14358"/>
  </clipPath>
 </defs>
 <defs class="TextShapeIndex">
  
 </defs>
 <defs class="EmbeddedBulletChars">
  <g id="bullet-char-template57356" transform="scale(0.00048828125,-0.00048828125)">
   <path d="M 580,1141 L 1163,571 580,0 -4,571 580,1141 Z"/>
  </g>
  <g id="bullet-char-template57354" transform="scale(0.00048828125,-0.00048828125)">
   <path d="M 8,1128 L 1137,1128 1137,0 8,0 8,1128 Z"/>
  </g>
  <g id="bullet-char-template10146" transform="scale(0.00048828125,-0.00048828125)">
   <path d="M 174,0 L 602,739 174,1481 1456,739 174,0 Z M 1358,739 L 309,1346 659,739 1358,739 Z"/>
  </g>
  <g id="bullet-char-template10132" transform="scale(0.00048828125,-0.00048828125)">
   <path d="M 2015,739 L 1276,0 717,0 1260,543 174,543 174,936 1260,936 717,1481 1274,1481 2015,739 Z"/>
  </g>
  <g id="bullet-char-template10007" transform="scale(0.00048828125,-0.00048828125)">
   <path d="M 0,-2 C -7,14 -16,27 -25,37 L 356,567 C 262,823 215,952 215,954 215,979 228,992 255,992 264,992 276,990 289,987 310,991 331,999 354,1012 L 381,999 492,748 772,1049 836,1024 860,1049 C 881,1039 901,1025 922,1006 886,937 835,863 770,784 769,783 710,716 594,584 L 774,223 C 774,196 753,168 711,139 L 727,119 C 717,90 699,76 672,76 641,76 570,178 457,381 L 164,-76 C 142,-110 111,-127 72,-127 30,-127 9,-110 8,-76 1,-67 -2,-52 -2,-32 -2,-23 -1,-13 0,-2 Z"/>
  </g>
  <g id="bullet-char-template10004" transform="scale(0.00048828125,-0.00048828125)">
   <path d="M 285,-33 C 182,-33 111,30 74,156 52,228 41,333 41,471 41,549 55,616 82,672 116,743 169,778 240,778 293,778 328,747 346,684 L 369,508 C 377,444 397,411 428,410 L 1163,1116 C 1174,1127 1196,1133 1229,1133 1271,1133 1292,1118 1292,1087 L 1292,965 C 1292,929 1282,901 1262,881 L 442,47 C 390,-6 338,-33 285,-33 Z"/>
  </g>
  <g id="bullet-char-template9679" transform="scale(0.00048828125,-0.00048828125)">
   <path d="M 813,0 C 632,0 489,54 383,161 276,268 223,411 223,592 223,773 276,916 383,1023 489,1130 632,1184 813,1184 992,1184 1136,1130 1245,1023 1353,916 1407,772 1407,592 1407,412 1353,268 1245,161 1136,54 992,0 813,0 Z"/>
  </g>
  <g id="bullet-char-template8226" transform="scale(0.00048828125,-0.00048828125)">
   <path d="M 346,457 C 273,457 209,483 155,535 101,586 74,649 74,723 74,796 101,859 155,911 209,963 273,989 346,989 419,989 480,963 531,910 582,859 608,796 608,723 608,648 583,586 532,535 482,483 420,457 346,457 Z"/>
  </g>
  <g id="bullet-char-template8211" transform="scale(0.00048828125,-0.00048828125)">
   <path d="M -4,459 L 1135,459 1135,606 -4,606 -4,459 Z"/>
  </g>
 </defs>
 <defs class="TextEmbeddedBitmaps"/>
 <g>
  <g id="id2" class="Master_Slide">
   <g id="bg-id2" class="Background"/>
   <g id="bo-id2" class="BackgroundObjects"/>
  </g>
 </g>
 <g class="SlideGroup">
  <g>
   <g id="id1" class="Slide" clip-path="url(#presentation_clip_path)">
    <g class="Page">
     <g class="Group">
      <g class="com.sun.star.drawing.EllipseShape">
       <g id="id3">
        <path fill="rgb(255,255,255)" stroke="none" d="M 7194,14323 C 5895,14323 4791,14027 3666,13378 2541,12728 1733,11920 1083,10795 434,9670 138,8566 138,7267 138,5968 434,4864 1083,3739 1733,2614 2541,1806 3666,1156 4791,507 5895,211 7194,211 8493,211 9597,507 10722,1156 11847,1806 12655,2614 13305,3739 13954,4864 14250,5968 14250,7267 14250,8566 13954,9670 13305,10795 12655,11920 11847,12728 10722,13378 9597,14027 8493,14323 7194,14323 L 7194,14323 Z"/>
        <path fill="none" stroke="rgb(192,192,192)" stroke-width="71" d="M 7194,14323 C 5895,14323 4791,14027 3666,13378 2541,12728 1733,11920 1083,10795 434,9670 138,8566 138,7267 138,5968 434,4864 1083,3739 1733,2614 2541,1806 3666,1156 4791,507 5895,211 7194,211 8493,211 9597,507 10722,1156 11847,1806 12655,2614 13305,3739 13954,4864 14250,5968 14250,7267 14250,8566 13954,9670 13305,10795 12655,11920 11847,12728 10722,13378 9597,14027 8493,14323 7194,14323 L 7194,14323 Z"/>
       </g>
      </g>
      <g class="com.sun.star.drawing.EllipseShape">
       <g id="id4">
        <path fill="rgb(255,255,255)" stroke="none" d="M 7194,7267 L 10949,5551 C 11207,6117 11322,6645 11322,7267 11322,7474 11309,7649 11280,7854 L 7194,7267 Z"/>
        <path fill="none" stroke="rgb(192,192,192)" stroke-width="71" d="M 7194,7267 L 10949,5551 C 11207,6117 11322,6645 11322,7267 11322,7474 11309,7649 11280,7854 L 7194,7267 Z"/>
       </g>
      </g>
      <g class="com.sun.star.drawing.TextShape">
       <g id="id5">
        <text class="TextShape"><tspan class="TextParagraph" font-family="DejaVu Sans, sans-serif" font-size="635px" font-weight="400"><tspan class="TextPosition" x="9033" y="7187"><tspan fill="rgb(192,192,192)" stroke="none">32 ⁸⁄₁₁°</tspan></tspan></tspan></text>
       </g>
      </g>
      <g class="com.sun.star.drawing.PolyLineShape">
       <g id="id6">
        <path fill="none" stroke="rgb(192,192,192)" stroke-width="71" d="M 7193,7268 L 7193,213 7193,7268 11008,1333 7193,7268 13612,4338 7193,7268 14176,8274 7193,7268 12523,11890 7193,7268 9179,14038 7193,7268 5203,14038 7193,7268 1859,11886 7193,7268 208,8270 7193,7268 776,4335 7193,7268 3381,1331 7193,7268 Z"/>
       </g>
      </g>
      <g class="com.sun.star.drawing.EllipseShape">
       <g id="id7">
        <path fill="rgb(255,255,255)" stroke="none" d="M 7196,7444 C 7163,7444 7136,7437 7108,7420 7079,7404 7059,7384 7043,7356 7026,7327 7019,7300 7019,7267 7019,7234 7026,7207 7043,7179 7059,7150 7079,7130 7108,7114 7136,7097 7163,7090 7196,7090 7229,7090 7256,7097 7285,7114 7313,7130 7333,7150 7349,7179 7366,7207 7373,7234 7373,7267 7373,7300 7366,7327 7349,7356 7333,7384 7313,7404 7285,7420 7256,7437 7229,7444 7196,7444 L 7196,7444 Z"/>
        <path fill="none" stroke="rgb(192,192,192)" stroke-width="71" d="M 7196,7444 C 7163,7444 7136,7437 7108,7420 7079,7404 7059,7384 7043,7356 7026,7327 7019,7300 7019,7267 7019,7234 7026,7207 7043,7179 7059,7150 7079,7130 7108,7114 7136,7097 7163,7090 7196,7090 7229,7090 7256,7097 7285,7114 7313,7130 7333,7150 7349,7179 7366,7207 7373,7234 7373,7267 7373,7300 7366,7327 7349,7356 7333,7384 7313,7404 7285,7420 7256,7437 7229,7444 7196,7444 L 7196,7444 Z"/>
       </g>
      </g>
      <g class="com.sun.star.drawing.EllipseShape">
       <g id="id8">
        <path fill="rgb(255,255,255)" stroke="none" d="M 7195,212 L 9049,756 C 9003,911 8949,1038 8868,1178 8690,1486 8469,1707 8161,1885 7853,2063 7550,2144 7195,2144 6839,2144 6536,2063 6228,1885 5920,1707 5699,1486 5521,1178 5440,1038 5386,911 5340,756 L 7195,212 Z"/>
        <path fill="none" stroke="rgb(0,0,0)" stroke-width="71" d="M 7195,212 L 9049,756 C 9003,911 8949,1038 8868,1178 8690,1486 8469,1707 8161,1885 7853,2063 7550,2144 7195,2144 6839,2144 6536,2063 6228,1885 5920,1707 5699,1486 5521,1178 5440,1038 5386,911 5340,756 L 7195,212 Z"/>
       </g>
      </g>
      <g class="com.sun.star.drawing.TextShape">
       <g id="id9">
        <text class="TextShape"><tspan class="TextParagraph" font-family="DejaVu Sans, sans-serif" font-size="635px" font-weight="400"><tspan class="TextPosition" x="5932" y="1479"><tspan fill="rgb(0,0,0)" stroke="none">147 ³⁄₁₁°</tspan></tspan></tspan></text>
       </g>
      </g>
      <g class="com.sun.star.drawing.PolyLineShape">
       <g id="id10">
        <path fill="none" stroke="rgb(0,0,0)" stroke-width="141" d="M 7195,214 L 11011,1333 13612,4336 14179,8271 12526,11887 9183,14036 5206,14035 1861,11882 210,8266 776,4330 3381,1323 7193,211"/>
       </g>
      </g>
      <g class="com.sun.star.drawing.EllipseShape">
       <g id="id11">
        <path fill="rgb(255,255,255)" stroke="none" d="M 7069,89 C 7092,66 7116,51 7148,43 7179,35 7208,35 7239,43 7271,51 7296,66 7319,89 7342,112 7356,137 7365,168 7373,200 7373,228 7365,260 7356,291 7342,316 7319,339 7296,362 7271,377 7239,385 7208,393 7179,393 7148,385 7116,377 7092,362 7069,339 7045,316 7031,291 7023,260 7014,228 7014,200 7023,168 7031,137 7045,112 7069,89 L 7069,89 Z"/>
        <path fill="none" stroke="rgb(0,0,0)" stroke-width="71" d="M 7069,89 C 7092,66 7116,51 7148,43 7179,35 7208,35 7239,43 7271,51 7296,66 7319,89 7342,112 7356,137 7365,168 7373,200 7373,228 7365,260 7356,291 7342,316 7319,339 7296,362 7271,377 7239,385 7208,393 7179,393 7148,385 7116,377 7092,362 7069,339 7045,316 7031,291 7023,260 7014,228 7014,200 7023,168 7031,137 7045,112 7069,89 L 7069,89 Z"/>
       </g>
      </g>
      <g class="com.sun.star.drawing.EllipseShape">
       <g id="id12">
        <path fill="rgb(255,255,255)" stroke="none" d="M 10841,1284 C 10851,1253 10866,1228 10889,1206 10913,1183 10938,1170 10970,1162 11001,1154 11030,1155 11061,1164 11092,1173 11117,1188 11139,1212 11162,1235 11176,1261 11183,1292 11191,1324 11190,1353 11181,1384 11172,1415 11157,1440 11133,1462 11110,1485 11085,1498 11053,1506 11021,1514 10993,1513 10961,1504 10930,1495 10906,1480 10883,1456 10861,1433 10847,1407 10839,1376 10832,1344 10832,1315 10841,1284 L 10841,1284 Z"/>
        <path fill="none" stroke="rgb(0,0,0)" stroke-width="71" d="M 10841,1284 C 10851,1253 10866,1228 10889,1206 10913,1183 10938,1170 10970,1162 11001,1154 11030,1155 11061,1164 11092,1173 11117,1188 11139,1212 11162,1235 11176,1261 11183,1292 11191,1324 11190,1353 11181,1384 11172,1415 11157,1440 11133,1462 11110,1485 11085,1498 11053,1506 11021,1514 10993,1513 10961,1504 10930,1495 10906,1480 10883,1456 10861,1433 10847,1407 10839,1376 10832,1344 10832,1315 10841,1284 L 10841,1284 Z"/>
       </g>
      </g>
      <g class="com.sun.star.drawing.EllipseShape">
       <g id="id13">
        <path fill="rgb(255,255,255)" stroke="none" d="M 13497,4204 C 13522,4183 13548,4170 13580,4164 13612,4158 13640,4160 13671,4171 13702,4181 13726,4198 13747,4222 13768,4247 13781,4273 13787,4305 13793,4337 13791,4365 13781,4396 13770,4427 13754,4451 13729,4472 13705,4493 13679,4506 13647,4512 13615,4518 13586,4516 13555,4505 13525,4495 13501,4479 13480,4454 13458,4429 13446,4403 13440,4371 13433,4340 13435,4311 13446,4280 13457,4249 13473,4226 13497,4204 L 13497,4204 Z"/>
        <path fill="none" stroke="rgb(0,0,0)" stroke-width="71" d="M 13497,4204 C 13522,4183 13548,4170 13580,4164 13612,4158 13640,4160 13671,4171 13702,4181 13726,4198 13747,4222 13768,4247 13781,4273 13787,4305 13793,4337 13791,4365 13781,4396 13770,4427 13754,4451 13729,4472 13705,4493 13679,4506 13647,4512 13615,4518 13586,4516 13555,4505 13525,4495 13501,4479 13480,4454 13458,4429 13446,4403 13440,4371 13433,4340 13435,4311 13446,4280 13457,4249 13473,4226 13497,4204 L 13497,4204 Z"/>
       </g>
      </g>
      <g class="com.sun.star.drawing.EllipseShape">
       <g id="id14">
        <path fill="rgb(255,255,255)" stroke="none" d="M 14154,8100 C 14187,8095 14215,8099 14245,8111 14276,8123 14299,8140 14319,8166 14339,8191 14350,8218 14355,8250 14359,8282 14356,8311 14344,8341 14332,8371 14315,8394 14289,8414 14263,8434 14237,8446 14205,8450 14173,8455 14144,8451 14114,8439 14084,8427 14061,8410 14040,8385 14020,8359 14009,8333 14004,8300 14000,8268 14003,8240 14015,8209 14027,8179 14044,8156 14070,8136 14096,8116 14122,8105 14154,8100 L 14154,8100 Z"/>
        <path fill="none" stroke="rgb(0,0,0)" stroke-width="71" d="M 14154,8100 C 14187,8095 14215,8099 14245,8111 14276,8123 14299,8140 14319,8166 14339,8191 14350,8218 14355,8250 14359,8282 14356,8311 14344,8341 14332,8371 14315,8394 14289,8414 14263,8434 14237,8446 14205,8450 14173,8455 14144,8451 14114,8439 14084,8427 14061,8410 14040,8385 14020,8359 14009,8333 14004,8300 14000,8268 14003,8240 14015,8209 14027,8179 14044,8156 14070,8136 14096,8116 14122,8105 14154,8100 L 14154,8100 Z"/>
       </g>
      </g>
      <g class="com.sun.star.drawing.EllipseShape">
       <g id="id15">
        <path fill="rgb(255,255,255)" stroke="none" d="M 12602,11730 C 12632,11744 12654,11762 12673,11789 12692,11815 12702,11842 12705,11875 12708,11907 12703,11935 12690,11965 12676,11995 12658,12017 12631,12036 12605,12055 12578,12065 12545,12068 12513,12071 12485,12066 12455,12052 12425,12039 12403,12021 12384,11994 12365,11968 12355,11941 12352,11908 12349,11876 12354,11848 12368,11818 12381,11788 12399,11766 12426,11747 12452,11728 12479,11718 12512,11715 12544,11712 12572,11717 12602,11730 L 12602,11730 Z"/>
        <path fill="none" stroke="rgb(0,0,0)" stroke-width="71" d="M 12602,11730 C 12632,11744 12654,11762 12673,11789 12692,11815 12702,11842 12705,11875 12708,11907 12703,11935 12690,11965 12676,11995 12658,12017 12631,12036 12605,12055 12578,12065 12545,12068 12513,12071 12485,12066 12455,12052 12425,12039 12403,12021 12384,11994 12365,11968 12355,11941 12352,11908 12349,11876 12354,11848 12368,11818 12381,11788 12399,11766 12426,11747 12452,11728 12479,11718 12512,11715 12544,11712 12572,11717 12602,11730 L 12602,11730 Z"/>
       </g>
      </g>
      <g class="com.sun.star.drawing.EllipseShape">
       <g id="id16">
        <path fill="rgb(255,255,255)" stroke="none" d="M 9332,13943 C 9350,13970 9358,13997 9360,14030 9362,14063 9355,14091 9341,14120 9326,14148 9306,14170 9279,14187 9251,14205 9224,14214 9192,14215 9159,14217 9131,14211 9102,14196 9073,14181 9052,14162 9034,14134 9017,14107 9008,14079 9006,14047 9005,14014 9011,13986 9026,13957 9041,13928 9060,13907 9087,13890 9115,13872 9142,13863 9175,13862 9207,13860 9235,13866 9264,13881 9293,13896 9314,13915 9332,13943 L 9332,13943 Z"/>
        <path fill="none" stroke="rgb(0,0,0)" stroke-width="71" d="M 9332,13943 C 9350,13970 9358,13997 9360,14030 9362,14063 9355,14091 9341,14120 9326,14148 9306,14170 9279,14187 9251,14205 9224,14214 9192,14215 9159,14217 9131,14211 9102,14196 9073,14181 9052,14162 9034,14134 9017,14107 9008,14079 9006,14047 9005,14014 9011,13986 9026,13957 9041,13928 9060,13907 9087,13890 9115,13872 9142,13863 9175,13862 9207,13860 9235,13866 9264,13881 9293,13896 9314,13915 9332,13943 L 9332,13943 Z"/>
       </g>
      </g>
      <g class="com.sun.star.drawing.EllipseShape">
       <g id="id17">
        <path fill="rgb(255,255,255)" stroke="none" d="M 5387,14037 C 5387,14070 5380,14097 5363,14126 5347,14154 5327,14174 5299,14190 5270,14207 5243,14214 5210,14214 5177,14214 5150,14207 5122,14190 5093,14174 5073,14154 5057,14126 5040,14097 5033,14070 5033,14037 5033,14004 5041,13977 5057,13949 5073,13920 5093,13900 5122,13884 5150,13867 5178,13860 5210,13860 5243,13860 5270,13868 5299,13884 5327,13900 5347,13920 5363,13949 5380,13977 5387,14005 5387,14037 L 5387,14037 Z"/>
        <path fill="none" stroke="rgb(0,0,0)" stroke-width="71" d="M 5387,14037 C 5387,14070 5380,14097 5363,14126 5347,14154 5327,14174 5299,14190 5270,14207 5243,14214 5210,14214 5177,14214 5150,14207 5122,14190 5093,14174 5073,14154 5057,14126 5040,14097 5033,14070 5033,14037 5033,14004 5041,13977 5057,13949 5073,13920 5093,13900 5122,13884 5150,13867 5178,13860 5210,13860 5243,13860 5270,13868 5299,13884 5327,13900 5347,13920 5363,13949 5380,13977 5387,14005 5387,14037 L 5387,14037 Z"/>
       </g>
      </g>
      <g class="com.sun.star.drawing.EllipseShape">
       <g id="id18">
        <path fill="rgb(255,255,255)" stroke="none" d="M 2013,11982 C 1996,12009 1975,12028 1946,12043 1917,12058 1889,12064 1856,12063 1824,12061 1796,12052 1769,12035 1741,12017 1722,11996 1707,11967 1692,11938 1686,11910 1688,11877 1689,11845 1698,11818 1716,11790 1733,11763 1755,11743 1784,11729 1813,11714 1841,11708 1873,11709 1906,11711 1933,11719 1960,11737 1988,11755 2007,11776 2022,11805 2037,11834 2043,11862 2041,11894 2040,11927 2031,11954 2013,11982 L 2013,11982 Z"/>
        <path fill="none" stroke="rgb(0,0,0)" stroke-width="71" d="M 2013,11982 C 1996,12009 1975,12028 1946,12043 1917,12058 1889,12064 1856,12063 1824,12061 1796,12052 1769,12035 1741,12017 1722,11996 1707,11967 1692,11938 1686,11910 1688,11877 1689,11845 1698,11818 1716,11790 1733,11763 1755,11743 1784,11729 1813,11714 1841,11708 1873,11709 1906,11711 1933,11719 1960,11737 1988,11755 2007,11776 2022,11805 2037,11834 2043,11862 2041,11894 2040,11927 2031,11954 2013,11982 L 2013,11982 Z"/>
       </g>
      </g>
      <g class="com.sun.star.drawing.EllipseShape">
       <g id="id19">
        <path fill="rgb(255,255,255)" stroke="none" d="M 287,8431 C 257,8444 229,8449 197,8446 164,8443 137,8433 111,8414 84,8395 66,8373 52,8343 39,8313 34,8285 37,8253 40,8220 50,8193 69,8167 88,8140 110,8122 140,8109 170,8095 198,8090 230,8093 263,8096 290,8106 316,8125 343,8144 361,8166 375,8196 388,8226 393,8254 390,8286 387,8319 377,8346 358,8372 339,8399 317,8417 287,8431 L 287,8431 Z"/>
        <path fill="none" stroke="rgb(0,0,0)" stroke-width="71" d="M 287,8431 C 257,8444 229,8449 197,8446 164,8443 137,8433 111,8414 84,8395 66,8373 52,8343 39,8313 34,8285 37,8253 40,8220 50,8193 69,8167 88,8140 110,8122 140,8109 170,8095 198,8090 230,8093 263,8096 290,8106 316,8125 343,8144 361,8166 375,8196 388,8226 393,8254 390,8286 387,8319 377,8346 358,8372 339,8399 317,8417 287,8431 L 287,8431 Z"/>
       </g>
      </g>
      <g class="com.sun.star.drawing.EllipseShape">
       <g id="id20">
        <path fill="rgb(255,255,255)" stroke="none" d="M 753,4510 C 720,4505 694,4494 668,4474 643,4453 626,4430 614,4400 602,4370 598,4341 603,4309 607,4277 619,4251 639,4225 659,4199 682,4182 712,4170 742,4158 771,4155 803,4159 835,4164 862,4175 887,4195 913,4215 930,4238 942,4269 954,4299 958,4327 953,4360 948,4392 937,4418 917,4444 897,4470 874,4487 844,4499 813,4511 785,4514 753,4510 L 753,4510 Z"/>
        <path fill="none" stroke="rgb(0,0,0)" stroke-width="71" d="M 753,4510 C 720,4505 694,4494 668,4474 643,4453 626,4430 614,4400 602,4370 598,4341 603,4309 607,4277 619,4251 639,4225 659,4199 682,4182 712,4170 742,4158 771,4155 803,4159 835,4164 862,4175 887,4195 913,4215 930,4238 942,4269 954,4299 958,4327 953,4360 948,4392 937,4418 917,4444 897,4470 874,4487 844,4499 813,4511 785,4514 753,4510 L 753,4510 Z"/>
       </g>
      </g>
      <g class="com.sun.star.drawing.EllipseShape">
       <g id="id21">
        <path fill="rgb(255,255,255)" stroke="none" d="M 3270,1461 C 3245,1440 3229,1416 3218,1386 3208,1355 3206,1326 3212,1294 3218,1262 3231,1236 3252,1212 3273,1187 3297,1171 3328,1160 3359,1150 3387,1148 3419,1154 3451,1160 3477,1173 3502,1194 3526,1215 3542,1239 3553,1270 3564,1301 3566,1329 3560,1361 3553,1393 3541,1419 3519,1444 3498,1468 3474,1484 3444,1495 3413,1506 3384,1508 3352,1501 3320,1495 3294,1483 3270,1461 L 3270,1461 Z"/>
        <path fill="none" stroke="rgb(0,0,0)" stroke-width="71" d="M 3270,1461 C 3245,1440 3229,1416 3218,1386 3208,1355 3206,1326 3212,1294 3218,1262 3231,1236 3252,1212 3273,1187 3297,1171 3328,1160 3359,1150 3387,1148 3419,1154 3451,1160 3477,1173 3502,1194 3526,1215 3542,1239 3553,1270 3564,1301 3566,1329 3560,1361 3553,1393 3541,1419 3519,1444 3498,1468 3474,1484 3444,1495 3413,1506 3384,1508 3352,1501 3320,1495 3294,1483 3270,1461 L 3270,1461 Z"/>
       </g>
      </g>
     </g>
    </g>
   </g>
  </g>
 </g>
</svg>