<?xml version="1.0" encoding="UTF-8"?>
<!DOCTYPE svg PUBLIC "-//W3C//DTD SVG 1.1//EN" "http://www.w3.org/Graphics/SVG/1.1/DTD/svg11.dtd">
<svg version="1.1" width="144.62mm" height="143.85mm" viewBox="0 0 14462 14385" preserveAspectRatio="xMidYMid" fill-rule="evenodd" clip-path="url(#presentation_clip_path)" stroke-width="28.222" stroke-linejoin="round" xmlns="http://www.w3.org/2000/svg" xmlns:ooo="http://xml.openoffice.org/svg/export" xmlns:xlink="http://www.w3.org/1999/xlink" xml:space="preserve">
 <defs class="ClipPathGroup">
  <clipPath id="presentation_clip_path" clipPathUnits="userSpaceOnUse">
   <rect x="0" y="0" width="14462" height="14385"/>
  </clipPath>
 </defs>
 <defs class="TextShapeIndex">
  
 </defs>
 <defs class="EmbeddedBulletChars">
  <g id="bullet-char-template57356" transform="scale(0.00048828125,-0.00048828125)">
   <path d="M 580,1141 L 1163,571 580,0 -4,571 580,1141 Z"/>
  </g>
  <g id="bullet-char-template57354" transform="scale(0.00048828125,-0.00048828125)">
   <path d="M 8,1128 L 1137,1128 1137,0 8,0 8,1128 Z"/>
  </g>
  <g id="bullet-char-template10146" transform="scale(0.00048828125,-0.00048828125)">
   <path d="M 174,0 L 602,739 174,1481 1456,739 174,0 Z M 1358,739 L 309,1346 659,739 1358,739 Z"/>
  </g>
  <g id="bullet-char-template10132" transform="scale(0.00048828125,-0.00048828125)">
   <path d="M 2015,739 L 1276,0 717,0 1260,543 174,543 174,936 1260,936 717,1481 1274,1481 2015,739 Z"/>
  </g>
  <g id="bullet-char-template10007" transform="scale(0.00048828125,-0.00048828125)">
   <path d="M 0,-2 C -7,14 -16,27 -25,37 L 356,567 C 262,823 215,952 215,954 215,979 228,992 255,992 264,992 276,990 289,987 310,991 331,999 354,1012 L 381,999 492,748 772,1049 836,1024 860,1049 C 881,1039 901,1025 922,1006 886,937 835,863 770,784 769,783 710,716 594,584 L 774,223 C 774,196 753,168 711,139 L 727,119 C 717,90 699,76 672,76 641,76 570,178 457,381 L 164,-76 C 142,-110 111,-127 72,-127 30,-127 9,-110 8,-76 1,-67 -2,-52 -2,-32 -2,-23 -1,-13 0,-2 Z"/>
  </g>
  <g id="bullet-char-template10004" transform="scale(0.00048828125,-0.00048828125)">
   <path d="M 285,-33 C 182,-33 111,30 74,156 52,228 41,333 41,471 41,549 55,616 82,672 116,743 169,778 240,778 293,778 328,747 346,684 L 369,508 C 377,444 397,411 428,410 L 1163,1116 C 1174,1127 1196,1133 1229,1133 1271,1133 1292,1118 1292,1087 L 1292,965 C 1292,929 1282,901 1262,881 L 442,47 C 390,-6 338,-33 285,-33 Z"/>
  </g>
  <g id="bullet-char-template9679" transform="scale(0.00048828125,-0.00048828125)">
   <path d="M 813,0 C 632,0 489,54 383,161 276,268 223,411 223,592 223,773 276,916 383,1023 489,1130 632,1184 813,1184 992,1184 1136,1130 1245,1023 1353,916 1407,772 1407,592 1407,412 1353,268 1245,161 1136,54 992,0 813,0 Z"/>
  </g>
  <g id="bullet-char-template8226" transform="scale(0.00048828125,-0.00048828125)">
   <path d="M 346,457 C 273,457 209,483 155,535 101,586 74,649 74,723 74,796 101,859 155,911 209,963 273,989 346,989 419,989 480,963 531,910 582,859 608,796 608,723 608,648 583,586 532,535 482,483 420,457 346,457 Z"/>
  </g>
  <g id="bullet-char-template8211" transform="scale(0.00048828125,-0.00048828125)">
   <path d="M -4,459 L 1135,459 1135,606 -4,606 -4,459 Z"/>
  </g>
 </defs>
 <defs class="TextEmbeddedBitmaps"/>
 <g>
  <g id="id2" class="Master_Slide">
   <g id="bg-id2" class="Background"/>
   <g id="bo-id2" class="BackgroundObjects"/>
  </g>
 </g>
 <g class="SlideGroup">
  <g>
   <g id="id1" class="Slide" clip-path="url(#presentation_clip_path)">
    <g class="Page">
     <g class="Group">
      <g class="com.sun.star.drawing.EllipseShape">
       <g id="id3">
        <path fill="rgb(255,255,255)" stroke="none" d="M 7228,14324 C 5929,14324 4825,14028 3700,13379 2575,12729 1767,11921 1117,10796 468,9671 172,8567 172,7268 172,5969 468,4865 1117,3740 1767,2615 2575,1807 3700,1157 4825,508 5929,212 7228,212 8527,212 9631,508 10756,1157 11881,1807 12689,2615 13339,3740 13988,4865 14284,5969 14284,7268 14284,8567 13988,9671 13339,10796 12689,11921 11881,12729 10756,13379 9631,14028 8527,14324 7228,14324 L 7228,14324 Z"/>
        <path fill="none" stroke="rgb(192,192,192)" stroke-width="71" d="M 7228,14324 C 5929,14324 4825,14028 3700,13379 2575,12729 1767,11921 1117,10796 468,9671 172,8567 172,7268 172,5969 468,4865 1117,3740 1767,2615 2575,1807 3700,1157 4825,508 5929,212 7228,212 8527,212 9631,508 10756,1157 11881,1807 12689,2615 13339,3740 13988,4865 14284,5969 14284,7268 14284,8567 13988,9671 13339,10796 12689,11921 11881,12729 10756,13379 9631,14028 8527,14324 7228,14324 L 7228,14324 Z"/>
       </g>
      </g>
      <g class="com.sun.star.drawing.EllipseShape">
       <g id="id4">
        <path fill="rgb(255,255,255)" stroke="none" d="M 7228,7268 L 7227,3210 C 7825,3210 8332,3318 8878,3561 L 7228,7268 Z"/>
        <path fill="none" stroke="rgb(192,192,192)" stroke-width="71" d="M 7228,7268 L 7227,3210 C 7825,3210 8332,3318 8878,3561 L 7228,7268 Z"/>
       </g>
      </g>
      <g class="com.sun.star.drawing.TextShape">
       <g id="id5">
        <text class="TextShape"><tspan class="TextParagraph" font-family="Nimbus Sans L, sans-serif" font-size="776px" font-weight="400"><tspan class="TextPosition" x="7374" y="4298"><tspan fill="rgb(192,192,192)" stroke="none">24°</tspan></tspan></tspan></text>
       </g>
      </g>
      <g class="com.sun.star.drawing.PolyLineShape">
       <g id="id6">
        <path fill="none" stroke="rgb(192,192,192)" stroke-width="71" d="M 7229,7269 L 7229,213 7229,7269 10099,824 7229,7269 12473,2547 7229,7269 13939,5089 7229,7269 14246,8006 7229,7269 13339,10797 7229,7269 11376,12977 7229,7269 8696,14171 7229,7269 5761,14171 7229,7269 3082,12977 7229,7269 1119,10797 7229,7269 212,8006 7229,7269 519,5089 7229,7269 1985,2547 7229,7269 4359,824 7229,7269 Z"/>
       </g>
      </g>
      <g class="com.sun.star.drawing.EllipseShape">
       <g id="id7">
        <path fill="rgb(255,255,255)" stroke="none" d="M 7230,7445 C 7197,7445 7170,7438 7142,7421 7113,7405 7093,7385 7077,7357 7060,7328 7053,7301 7053,7268 7053,7235 7060,7208 7077,7180 7093,7151 7113,7131 7142,7115 7170,7098 7197,7091 7230,7091 7263,7091 7290,7098 7319,7115 7347,7131 7367,7151 7383,7180 7400,7208 7407,7235 7407,7268 7407,7301 7400,7328 7383,7357 7367,7385 7347,7405 7319,7421 7290,7438 7263,7445 7230,7445 L 7230,7445 Z"/>
        <path fill="none" stroke="rgb(192,192,192)" stroke-width="71" d="M 7230,7445 C 7197,7445 7170,7438 7142,7421 7113,7405 7093,7385 7077,7357 7060,7328 7053,7301 7053,7268 7053,7235 7060,7208 7077,7180 7093,7151 7113,7131 7142,7115 7170,7098 7197,7091 7230,7091 7263,7091 7290,7098 7319,7115 7347,7131 7367,7151 7383,7180 7400,7208 7407,7235 7407,7268 7407,7301 7400,7328 7383,7357 7367,7385 7347,7405 7319,7421 7290,7438 7263,7445 7230,7445 L 7230,7445 Z"/>
       </g>
      </g>
      <g class="com.sun.star.drawing.EllipseShape">
       <g id="id8">
        <path fill="rgb(255,255,255)" stroke="none" d="M 7228,213 L 8902,568 C 8862,753 8804,905 8710,1068 8552,1341 8356,1537 8083,1695 7810,1852 7543,1924 7228,1924 6912,1924 6645,1852 6372,1695 6099,1537 5903,1341 5745,1068 5651,905 5593,753 5553,568 L 7228,213 Z"/>
        <path fill="none" stroke="rgb(0,0,0)" stroke-width="71" d="M 7228,213 L 8902,568 C 8862,753 8804,905 8710,1068 8552,1341 8356,1537 8083,1695 7810,1852 7543,1924 7228,1924 6912,1924 6645,1852 6372,1695 6099,1537 5903,1341 5745,1068 5651,905 5593,753 5553,568 L 7228,213 Z"/>
       </g>
      </g>
      <g class="com.sun.star.drawing.TextShape">
       <g id="id9">
        <text class="TextShape"><tspan class="TextParagraph" font-family="Nimbus Sans L, sans-serif" font-size="776px" font-weight="400"><tspan class="TextPosition" x="6341" y="1462"><tspan fill="rgb(0,0,0)" stroke="none">156°</tspan></tspan></tspan></text>
       </g>
      </g>
      <g class="com.sun.star.drawing.PolyLineShape">
       <g id="id10">
        <path fill="none" stroke="rgb(0,0,0)" stroke-width="141" d="M 7231,215 L 10099,822 12471,2545 13939,5085 14246,8004 13340,10795 11376,12975 8695,14167 5761,14167 3082,12975 1119,10797 213,8007 519,5089 1985,2545 4358,822 7229,215"/>
       </g>
      </g>
      <g class="com.sun.star.drawing.EllipseShape">
       <g id="id11">
        <path fill="rgb(255,255,255)" stroke="none" d="M 7105,90 C 7128,67 7152,52 7184,44 7215,36 7244,36 7275,44 7307,52 7332,67 7355,90 7378,113 7392,138 7401,169 7409,201 7409,229 7401,261 7392,292 7378,317 7355,340 7332,363 7307,378 7275,386 7244,394 7215,394 7184,386 7152,378 7128,363 7105,340 7081,317 7067,292 7059,261 7050,229 7050,201 7059,169 7067,138 7081,113 7105,90 L 7105,90 Z"/>
        <path fill="none" stroke="rgb(0,0,0)" stroke-width="71" d="M 7105,90 C 7128,67 7152,52 7184,44 7215,36 7244,36 7275,44 7307,52 7332,67 7355,90 7378,113 7392,138 7401,169 7409,201 7409,229 7401,261 7392,292 7378,317 7355,340 7332,363 7307,378 7275,386 7244,394 7215,394 7184,386 7152,378 7128,363 7105,340 7081,317 7067,292 7059,261 7050,229 7050,201 7059,169 7067,138 7081,113 7105,90 L 7105,90 Z"/>
       </g>
      </g>
      <g class="com.sun.star.drawing.EllipseShape">
       <g id="id12">
        <path fill="rgb(255,255,255)" stroke="none" d="M 9928,788 C 9935,756 9948,730 9970,706 9991,682 10015,666 10046,656 10077,646 10106,644 10138,651 10170,658 10195,671 10220,693 10244,715 10259,739 10269,770 10280,801 10281,829 10274,861 10267,893 10254,919 10233,943 10211,967 10187,983 10156,993 10125,1003 10096,1004 10064,998 10033,991 10007,978 9983,956 9959,934 9943,910 9933,879 9923,848 9921,820 9928,788 L 9928,788 Z"/>
        <path fill="none" stroke="rgb(0,0,0)" stroke-width="71" d="M 9928,788 C 9935,756 9948,730 9970,706 9991,682 10015,666 10046,656 10077,646 10106,644 10138,651 10170,658 10195,671 10220,693 10244,715 10259,739 10269,770 10280,801 10281,829 10274,861 10267,893 10254,919 10233,943 10211,967 10187,983 10156,993 10125,1003 10096,1004 10064,998 10033,991 10007,978 9983,956 9959,934 9943,910 9933,879 9923,848 9921,820 9928,788 L 9928,788 Z"/>
       </g>
      </g>
      <g class="com.sun.star.drawing.EllipseShape">
       <g id="id13">
        <path fill="rgb(255,255,255)" stroke="none" d="M 12330,2443 C 12349,2417 12371,2399 12401,2386 12430,2372 12459,2368 12491,2371 12524,2375 12550,2385 12577,2404 12603,2423 12621,2445 12634,2475 12648,2505 12652,2533 12649,2566 12645,2598 12635,2625 12616,2651 12597,2678 12575,2696 12545,2709 12515,2722 12487,2727 12454,2723 12422,2720 12395,2710 12369,2690 12342,2671 12324,2649 12311,2619 12298,2590 12293,2561 12297,2529 12300,2496 12310,2470 12330,2443 L 12330,2443 Z"/>
        <path fill="none" stroke="rgb(0,0,0)" stroke-width="71" d="M 12330,2443 C 12349,2417 12371,2399 12401,2386 12430,2372 12459,2368 12491,2371 12524,2375 12550,2385 12577,2404 12603,2423 12621,2445 12634,2475 12648,2505 12652,2533 12649,2566 12645,2598 12635,2625 12616,2651 12597,2678 12575,2696 12545,2709 12515,2722 12487,2727 12454,2723 12422,2720 12395,2710 12369,2690 12342,2671 12324,2649 12311,2619 12298,2590 12293,2561 12297,2529 12300,2496 12310,2470 12330,2443 L 12330,2443 Z"/>
       </g>
      </g>
      <g class="com.sun.star.drawing.EllipseShape">
       <g id="id14">
        <path fill="rgb(255,255,255)" stroke="none" d="M 13852,4934 C 13880,4918 13908,4910 13940,4910 13973,4910 14000,4918 14029,4934 14057,4950 14077,4971 14093,4999 14110,5027 14117,5055 14117,5087 14117,5120 14110,5148 14094,5176 14077,5204 14057,5224 14029,5241 14001,5257 13973,5264 13940,5264 13908,5264 13880,5257 13852,5241 13824,5224 13803,5204 13787,5176 13771,5148 13763,5120 13763,5087 13763,5055 13771,5027 13787,4999 13803,4971 13823,4950 13852,4934 L 13852,4934 Z"/>
        <path fill="none" stroke="rgb(0,0,0)" stroke-width="71" d="M 13852,4934 C 13880,4918 13908,4910 13940,4910 13973,4910 14000,4918 14029,4934 14057,4950 14077,4971 14093,4999 14110,5027 14117,5055 14117,5087 14117,5120 14110,5148 14094,5176 14077,5204 14057,5224 14029,5241 14001,5257 13973,5264 13940,5264 13908,5264 13880,5257 13852,5241 13824,5224 13803,5204 13787,5176 13771,5148 13763,5120 13763,5087 13763,5055 13771,5027 13787,4999 13803,4971 13823,4950 13852,4934 L 13852,4934 Z"/>
       </g>
      </g>
      <g class="com.sun.star.drawing.EllipseShape">
       <g id="id15">
        <path fill="rgb(255,255,255)" stroke="none" d="M 14229,7829 C 14261,7826 14290,7831 14319,7844 14349,7857 14372,7875 14391,7901 14410,7928 14420,7955 14423,7987 14427,8019 14422,8048 14409,8077 14396,8107 14378,8130 14352,8149 14325,8168 14298,8178 14266,8182 14234,8185 14205,8180 14175,8167 14146,8154 14123,8136 14104,8110 14085,8083 14075,8056 14071,8024 14068,7992 14073,7963 14086,7933 14099,7904 14117,7881 14143,7862 14170,7843 14197,7833 14229,7829 L 14229,7829 Z"/>
        <path fill="none" stroke="rgb(0,0,0)" stroke-width="71" d="M 14229,7829 C 14261,7826 14290,7831 14319,7844 14349,7857 14372,7875 14391,7901 14410,7928 14420,7955 14423,7987 14427,8019 14422,8048 14409,8077 14396,8107 14378,8130 14352,8149 14325,8168 14298,8178 14266,8182 14234,8185 14205,8180 14175,8167 14146,8154 14123,8136 14104,8110 14085,8083 14075,8056 14071,8024 14068,7992 14073,7963 14086,7933 14099,7904 14117,7881 14143,7862 14170,7843 14197,7833 14229,7829 L 14229,7829 Z"/>
       </g>
      </g>
      <g class="com.sun.star.drawing.EllipseShape">
       <g id="id16">
        <path fill="rgb(255,255,255)" stroke="none" d="M 13395,10628 C 13426,10638 13450,10653 13472,10678 13494,10702 13507,10727 13513,10759 13520,10791 13519,10820 13509,10851 13499,10882 13483,10906 13459,10928 13435,10949 13409,10962 13377,10969 13345,10976 13317,10974 13286,10964 13255,10954 13231,10939 13209,10914 13187,10890 13174,10865 13167,10833 13160,10801 13162,10772 13172,10741 13182,10710 13198,10686 13222,10665 13246,10643 13272,10630 13303,10623 13335,10616 13364,10618 13395,10628 L 13395,10628 Z"/>
        <path fill="none" stroke="rgb(0,0,0)" stroke-width="71" d="M 13395,10628 C 13426,10638 13450,10653 13472,10678 13494,10702 13507,10727 13513,10759 13520,10791 13519,10820 13509,10851 13499,10882 13483,10906 13459,10928 13435,10949 13409,10962 13377,10969 13345,10976 13317,10974 13286,10964 13255,10954 13231,10939 13209,10914 13187,10890 13174,10865 13167,10833 13160,10801 13162,10772 13172,10741 13182,10710 13198,10686 13222,10665 13246,10643 13272,10630 13303,10623 13335,10616 13364,10618 13395,10628 L 13395,10628 Z"/>
       </g>
      </g>
      <g class="com.sun.star.drawing.EllipseShape">
       <g id="id17">
        <path fill="rgb(255,255,255)" stroke="none" d="M 11495,12844 C 11520,12866 11535,12890 11545,12921 11555,12952 11557,12981 11550,13013 11543,13045 11530,13070 11508,13094 11487,13119 11463,13134 11432,13144 11401,13154 11372,13156 11340,13149 11308,13142 11283,13129 11258,13108 11234,13086 11219,13062 11209,13031 11198,13000 11197,12971 11204,12939 11211,12907 11224,12882 11245,12858 11267,12833 11291,12818 11322,12808 11353,12798 11382,12796 11414,12803 11446,12810 11471,12823 11495,12844 L 11495,12844 Z"/>
        <path fill="none" stroke="rgb(0,0,0)" stroke-width="71" d="M 11495,12844 C 11520,12866 11535,12890 11545,12921 11555,12952 11557,12981 11550,13013 11543,13045 11530,13070 11508,13094 11487,13119 11463,13134 11432,13144 11401,13154 11372,13156 11340,13149 11308,13142 11283,13129 11258,13108 11234,13086 11219,13062 11209,13031 11198,13000 11197,12971 11204,12939 11211,12907 11224,12882 11245,12858 11267,12833 11291,12818 11322,12808 11353,12798 11382,12796 11414,12803 11446,12810 11471,12823 11495,12844 L 11495,12844 Z"/>
       </g>
      </g>
      <g class="com.sun.star.drawing.EllipseShape">
       <g id="id18">
        <path fill="rgb(255,255,255)" stroke="none" d="M 8858,14098 C 8872,14128 8876,14156 8873,14189 8869,14221 8859,14248 8840,14274 8821,14301 8798,14319 8769,14332 8739,14345 8711,14350 8678,14346 8646,14343 8619,14333 8593,14314 8566,14294 8548,14272 8535,14242 8522,14213 8517,14184 8521,14152 8524,14119 8534,14093 8554,14066 8573,14040 8595,14022 8625,14009 8655,13995 8683,13991 8715,13994 8748,13998 8774,14008 8801,14027 8827,14046 8845,14069 8858,14098 L 8858,14098 Z"/>
        <path fill="none" stroke="rgb(0,0,0)" stroke-width="71" d="M 8858,14098 C 8872,14128 8876,14156 8873,14189 8869,14221 8859,14248 8840,14274 8821,14301 8798,14319 8769,14332 8739,14345 8711,14350 8678,14346 8646,14343 8619,14333 8593,14314 8566,14294 8548,14272 8535,14242 8522,14213 8517,14184 8521,14152 8524,14119 8534,14093 8554,14066 8573,14040 8595,14022 8625,14009 8655,13995 8683,13991 8715,13994 8748,13998 8774,14008 8801,14027 8827,14046 8845,14069 8858,14098 L 8858,14098 Z"/>
       </g>
      </g>
      <g class="com.sun.star.drawing.EllipseShape">
       <g id="id19">
        <path fill="rgb(255,255,255)" stroke="none" d="M 5943,14170 C 5943,14203 5936,14230 5919,14259 5903,14287 5883,14307 5855,14323 5826,14340 5799,14347 5766,14347 5733,14347 5706,14340 5678,14323 5649,14307 5629,14287 5613,14259 5596,14230 5589,14203 5589,14170 5589,14137 5596,14110 5613,14082 5629,14053 5649,14033 5678,14017 5706,14000 5733,13993 5766,13993 5799,13993 5826,14000 5855,14017 5883,14033 5903,14053 5919,14082 5936,14110 5943,14137 5943,14170 L 5943,14170 Z"/>
        <path fill="none" stroke="rgb(0,0,0)" stroke-width="71" d="M 5943,14170 C 5943,14203 5936,14230 5919,14259 5903,14287 5883,14307 5855,14323 5826,14340 5799,14347 5766,14347 5733,14347 5706,14340 5678,14323 5649,14307 5629,14287 5613,14259 5596,14230 5589,14203 5589,14170 5589,14137 5596,14110 5613,14082 5629,14053 5649,14033 5678,14017 5706,14000 5733,13993 5766,13993 5799,13993 5826,14000 5855,14017 5883,14033 5903,14053 5919,14082 5936,14110 5943,14137 5943,14170 L 5943,14170 Z"/>
       </g>
      </g>
      <g class="com.sun.star.drawing.EllipseShape">
       <g id="id20">
        <path fill="rgb(255,255,255)" stroke="none" d="M 3246,13049 C 3233,13079 3215,13101 3189,13120 3162,13140 3136,13150 3103,13153 3071,13157 3042,13152 3013,13139 2983,13126 2961,13108 2941,13081 2922,13055 2912,13028 2909,12996 2905,12963 2910,12935 2923,12905 2936,12876 2954,12853 2981,12834 3007,12815 3034,12805 3066,12801 3099,12798 3127,12802 3157,12816 3186,12829 3209,12847 3228,12873 3247,12900 3257,12926 3261,12959 3264,12991 3260,13020 3246,13049 L 3246,13049 Z"/>
        <path fill="none" stroke="rgb(0,0,0)" stroke-width="71" d="M 3246,13049 C 3233,13079 3215,13101 3189,13120 3162,13140 3136,13150 3103,13153 3071,13157 3042,13152 3013,13139 2983,13126 2961,13108 2941,13081 2922,13055 2912,13028 2909,12996 2905,12963 2910,12935 2923,12905 2936,12876 2954,12853 2981,12834 3007,12815 3034,12805 3066,12801 3099,12798 3127,12802 3157,12816 3186,12829 3209,12847 3228,12873 3247,12900 3257,12926 3261,12959 3264,12991 3260,13020 3246,13049 L 3246,13049 Z"/>
       </g>
      </g>
      <g class="com.sun.star.drawing.EllipseShape">
       <g id="id21">
        <path fill="rgb(255,255,255)" stroke="none" d="M 1240,10929 C 1216,10950 1191,10963 1159,10970 1127,10977 1098,10976 1067,10965 1036,10955 1012,10940 990,10916 969,10891 956,10866 949,10834 942,10802 944,10773 954,10742 964,10711 979,10687 1004,10666 1028,10644 1053,10631 1085,10624 1117,10617 1146,10619 1177,10629 1208,10639 1232,10654 1254,10679 1275,10703 1288,10728 1295,10760 1302,10792 1300,10821 1290,10852 1280,10883 1265,10907 1240,10929 L 1240,10929 Z"/>
        <path fill="none" stroke="rgb(0,0,0)" stroke-width="71" d="M 1240,10929 C 1216,10950 1191,10963 1159,10970 1127,10977 1098,10976 1067,10965 1036,10955 1012,10940 990,10916 969,10891 956,10866 949,10834 942,10802 944,10773 954,10742 964,10711 979,10687 1004,10666 1028,10644 1053,10631 1085,10624 1117,10617 1146,10619 1177,10629 1208,10639 1232,10654 1254,10679 1275,10703 1288,10728 1295,10760 1302,10792 1300,10821 1290,10852 1280,10883 1265,10907 1240,10929 L 1240,10929 Z"/>
       </g>
      </g>
      <g class="com.sun.star.drawing.EllipseShape">
       <g id="id22">
        <path fill="rgb(255,255,255)" stroke="none" d="M 270,8175 C 239,8185 210,8187 178,8180 146,8173 121,8160 97,8138 72,8116 57,8092 47,8061 37,8030 35,8002 42,7970 49,7938 62,7912 83,7888 105,7864 129,7848 160,7838 191,7828 220,7827 252,7834 284,7840 309,7853 333,7875 358,7897 373,7921 383,7952 393,7983 395,8012 388,8044 381,8075 368,8101 347,8125 325,8149 301,8165 270,8175 L 270,8175 Z"/>
        <path fill="none" stroke="rgb(0,0,0)" stroke-width="71" d="M 270,8175 C 239,8185 210,8187 178,8180 146,8173 121,8160 97,8138 72,8116 57,8092 47,8061 37,8030 35,8002 42,7970 49,7938 62,7912 83,7888 105,7864 129,7848 160,7838 191,7828 220,7827 252,7834 284,7840 309,7853 333,7875 358,7897 373,7921 383,7952 393,7983 395,8012 388,8044 381,8075 368,8101 347,8125 325,8149 301,8165 270,8175 L 270,8175 Z"/>
       </g>
      </g>
      <g class="com.sun.star.drawing.EllipseShape">
       <g id="id23">
        <path fill="rgb(255,255,255)" stroke="none" d="M 503,5266 C 470,5262 444,5252 417,5233 391,5214 373,5191 360,5162 346,5132 342,5103 345,5071 349,5039 359,5012 378,4986 397,4959 420,4941 450,4928 479,4915 508,4910 540,4914 572,4917 599,4927 626,4946 652,4966 670,4988 683,5018 696,5047 701,5076 697,5108 694,5141 684,5167 665,5194 645,5220 623,5238 593,5251 564,5265 535,5269 503,5266 L 503,5266 Z"/>
        <path fill="none" stroke="rgb(0,0,0)" stroke-width="71" d="M 503,5266 C 470,5262 444,5252 417,5233 391,5214 373,5191 360,5162 346,5132 342,5103 345,5071 349,5039 359,5012 378,4986 397,4959 420,4941 450,4928 479,4915 508,4910 540,4914 572,4917 599,4927 626,4946 652,4966 670,4988 683,5018 696,5047 701,5076 697,5108 694,5141 684,5167 665,5194 645,5220 623,5238 593,5251 564,5265 535,5269 503,5266 L 503,5266 Z"/>
       </g>
      </g>
      <g class="com.sun.star.drawing.EllipseShape">
       <g id="id24">
        <path fill="rgb(255,255,255)" stroke="none" d="M 1899,2699 C 1870,2683 1850,2663 1834,2634 1817,2606 1810,2578 1810,2546 1810,2513 1817,2486 1834,2457 1850,2429 1870,2409 1898,2393 1927,2376 1954,2369 1987,2369 2019,2369 2047,2376 2075,2392 2104,2409 2124,2429 2140,2457 2156,2485 2164,2513 2164,2546 2164,2578 2157,2606 2140,2634 2124,2662 2104,2683 2076,2699 2047,2715 2020,2723 1987,2723 1954,2723 1927,2715 1899,2699 L 1899,2699 Z"/>
        <path fill="none" stroke="rgb(0,0,0)" stroke-width="71" d="M 1899,2699 C 1870,2683 1850,2663 1834,2634 1817,2606 1810,2578 1810,2546 1810,2513 1817,2486 1834,2457 1850,2429 1870,2409 1898,2393 1927,2376 1954,2369 1987,2369 2019,2369 2047,2376 2075,2392 2104,2409 2124,2429 2140,2457 2156,2485 2164,2513 2164,2546 2164,2578 2157,2606 2140,2634 2124,2662 2104,2683 2076,2699 2047,2715 2020,2723 1987,2723 1954,2723 1927,2715 1899,2699 L 1899,2699 Z"/>
       </g>
      </g>
      <g class="com.sun.star.drawing.EllipseShape">
       <g id="id25">
        <path fill="rgb(255,255,255)" stroke="none" d="M 4218,926 C 4198,900 4188,873 4185,841 4181,808 4186,780 4199,750 4212,720 4230,698 4257,679 4283,660 4310,650 4342,646 4375,643 4403,647 4433,661 4463,674 4485,692 4504,718 4523,745 4533,771 4537,804 4540,836 4536,865 4522,894 4509,924 4491,946 4465,965 4438,985 4412,995 4379,998 4347,1002 4318,997 4289,984 4259,971 4237,953 4218,926 L 4218,926 Z"/>
        <path fill="none" stroke="rgb(0,0,0)" stroke-width="71" d="M 4218,926 C 4198,900 4188,873 4185,841 4181,808 4186,780 4199,750 4212,720 4230,698 4257,679 4283,660 4310,650 4342,646 4375,643 4403,647 4433,661 4463,674 4485,692 4504,718 4523,745 4533,771 4537,804 4540,836 4536,865 4522,894 4509,924 4491,946 4465,965 4438,985 4412,995 4379,998 4347,1002 4318,997 4289,984 4259,971 4237,953 4218,926 L 4218,926 Z"/>
       </g>
      </g>
     </g>
    </g>
   </g>
  </g>
 </g>
</svg>