<?xml version="1.0" encoding="UTF-8"?>
<!DOCTYPE svg PUBLIC "-//W3C//DTD SVG 1.1//EN" "http://www.w3.org/Graphics/SVG/1.1/DTD/svg11.dtd">
<svg version="1.1" width="144.76mm" height="144.15mm" viewBox="0 0 14476 14415" preserveAspectRatio="xMidYMid" fill-rule="evenodd" clip-path="url(#presentation_clip_path)" stroke-width="28.222" stroke-linejoin="round" xmlns="http://www.w3.org/2000/svg" xmlns:ooo="http://xml.openoffice.org/svg/export" xmlns:xlink="http://www.w3.org/1999/xlink" xml:space="preserve">
 <defs class="ClipPathGroup">
  <clipPath id="presentation_clip_path" clipPathUnits="userSpaceOnUse">
   <rect x="0" y="0" width="14476" height="14415"/>
  </clipPath>
 </defs>
 <defs class="TextShapeIndex">
  
 </defs>
 <defs class="EmbeddedBulletChars">
  <g id="bullet-char-template57356" transform="scale(0.00048828125,-0.00048828125)">
   <path d="M 580,1141 L 1163,571 580,0 -4,571 580,1141 Z"/>
  </g>
  <g id="bullet-char-template57354" transform="scale(0.00048828125,-0.00048828125)">
   <path d="M 8,1128 L 1137,1128 1137,0 8,0 8,1128 Z"/>
  </g>
  <g id="bullet-char-template10146" transform="scale(0.00048828125,-0.00048828125)">
   <path d="M 174,0 L 602,739 174,1481 1456,739 174,0 Z M 1358,739 L 309,1346 659,739 1358,739 Z"/>
  </g>
  <g id="bullet-char-template10132" transform="scale(0.00048828125,-0.00048828125)">
   <path d="M 2015,739 L 1276,0 717,0 1260,543 174,543 174,936 1260,936 717,1481 1274,1481 2015,739 Z"/>
  </g>
  <g id="bullet-char-template10007" transform="scale(0.00048828125,-0.00048828125)">
   <path d="M 0,-2 C -7,14 -16,27 -25,37 L 356,567 C 262,823 215,952 215,954 215,979 228,992 255,992 264,992 276,990 289,987 310,991 331,999 354,1012 L 381,999 492,748 772,1049 836,1024 860,1049 C 881,1039 901,1025 922,1006 886,937 835,863 770,784 769,783 710,716 594,584 L 774,223 C 774,196 753,168 711,139 L 727,119 C 717,90 699,76 672,76 641,76 570,178 457,381 L 164,-76 C 142,-110 111,-127 72,-127 30,-127 9,-110 8,-76 1,-67 -2,-52 -2,-32 -2,-23 -1,-13 0,-2 Z"/>
  </g>
  <g id="bullet-char-template10004" transform="scale(0.00048828125,-0.00048828125)">
   <path d="M 285,-33 C 182,-33 111,30 74,156 52,228 41,333 41,471 41,549 55,616 82,672 116,743 169,778 240,778 293,778 328,747 346,684 L 369,508 C 377,444 397,411 428,410 L 1163,1116 C 1174,1127 1196,1133 1229,1133 1271,1133 1292,1118 1292,1087 L 1292,965 C 1292,929 1282,901 1262,881 L 442,47 C 390,-6 338,-33 285,-33 Z"/>
  </g>
  <g id="bullet-char-template9679" transform="scale(0.00048828125,-0.00048828125)">
   <path d="M 813,0 C 632,0 489,54 383,161 276,268 223,411 223,592 223,773 276,916 383,1023 489,1130 632,1184 813,1184 992,1184 1136,1130 1245,1023 1353,916 1407,772 1407,592 1407,412 1353,268 1245,161 1136,54 992,0 813,0 Z"/>
  </g>
  <g id="bullet-char-template8226" transform="scale(0.00048828125,-0.00048828125)">
   <path d="M 346,457 C 273,457 209,483 155,535 101,586 74,649 74,723 74,796 101,859 155,911 209,963 273,989 346,989 419,989 480,963 531,910 582,859 608,796 608,723 608,648 583,586 532,535 482,483 420,457 346,457 Z"/>
  </g>
  <g id="bullet-char-template8211" transform="scale(0.00048828125,-0.00048828125)">
   <path d="M -4,459 L 1135,459 1135,606 -4,606 -4,459 Z"/>
  </g>
 </defs>
 <defs class="TextEmbeddedBitmaps"/>
 <g>
  <g id="id2" class="Master_Slide">
   <g id="bg-id2" class="Background"/>
   <g id="bo-id2" class="BackgroundObjects"/>
  </g>
 </g>
 <g class="SlideGroup">
  <g>
   <g id="id1" class="Slide" clip-path="url(#presentation_clip_path)">
    <g class="Page">
     <g class="Group">
      <g class="com.sun.star.drawing.EllipseShape">
       <g id="id3">
        <path fill="rgb(255,255,255)" stroke="none" d="M 7234,14321 C 5935,14321 4831,14025 3706,13376 2581,12726 1773,11918 1123,10793 474,9668 178,8564 178,7265 178,5966 474,4862 1123,3737 1773,2612 2581,1804 3706,1154 4831,505 5935,209 7234,209 8533,209 9637,505 10762,1154 11887,1804 12695,2612 13345,3737 13994,4862 14290,5966 14290,7265 14290,8564 13994,9668 13345,10793 12695,11918 11887,12726 10762,13376 9637,14025 8533,14321 7234,14321 L 7234,14321 Z"/>
        <path fill="none" stroke="rgb(192,192,192)" stroke-width="71" d="M 7234,14321 C 5935,14321 4831,14025 3706,13376 2581,12726 1773,11918 1123,10793 474,9668 178,8564 178,7265 178,5966 474,4862 1123,3737 1773,2612 2581,1804 3706,1154 4831,505 5935,209 7234,209 8533,209 9637,505 10762,1154 11887,1804 12695,2612 13345,3737 13994,4862 14290,5966 14290,7265 14290,8564 13994,9668 13345,10793 12695,11918 11887,12726 10762,13376 9637,14025 8533,14321 7234,14321 L 7234,14321 Z"/>
       </g>
      </g>
      <g class="com.sun.star.drawing.EllipseShape">
       <g id="id4">
        <path fill="rgb(255,255,255)" stroke="none" d="M 7234,7265 L 12819,6746 C 12836,6928 12843,7082 12843,7264 12843,7811 12779,8273 12629,8798 L 7234,7265 Z"/>
        <path fill="none" stroke="rgb(192,192,192)" stroke-width="71" d="M 7234,7265 L 12819,6746 C 12836,6928 12843,7082 12843,7264 12843,7811 12779,8273 12629,8798 L 7234,7265 Z"/>
       </g>
      </g>
      <g class="com.sun.star.drawing.TextShape">
       <g id="id5">
        <text class="TextShape"><tspan class="TextParagraph" font-family="DejaVu Sans, sans-serif" font-size="635px" font-weight="400"><tspan class="TextPosition" x="10538" y="8004"><tspan fill="rgb(192,192,192)" stroke="none">21³⁄₁₇°</tspan></tspan></tspan></text>
       </g>
      </g>
      <g class="com.sun.star.drawing.PolyLineShape">
       <g id="id6">
        <path fill="none" stroke="rgb(192,192,192)" stroke-width="71" d="M 7236,7266 L 7236,211 7236,7266 9784,687 7236,7266 11989,2052 7236,7266 13552,4123 7236,7266 14261,6617 7236,7266 14021,9200 7236,7266 12864,11521 7236,7266 10947,13267 7236,7266 8529,14202 7236,7266 5936,14200 7236,7266 3517,13264 7236,7266 1602,11514 7236,7266 448,9193 7236,7266 210,6610 7236,7266 923,4116 7236,7266 2487,2047 7236,7266 4694,685 7236,7266 Z"/>
       </g>
      </g>
      <g class="com.sun.star.drawing.EllipseShape">
       <g id="id7">
        <path fill="rgb(255,255,255)" stroke="none" d="M 7236,7444 C 7203,7444 7176,7437 7148,7420 7119,7404 7099,7384 7083,7356 7066,7327 7059,7300 7059,7267 7059,7234 7066,7207 7083,7179 7099,7150 7119,7130 7148,7114 7176,7097 7203,7090 7236,7090 7269,7090 7296,7097 7325,7114 7353,7130 7373,7150 7389,7179 7406,7207 7413,7234 7413,7267 7413,7300 7406,7327 7389,7356 7373,7384 7353,7404 7325,7420 7296,7437 7269,7444 7236,7444 L 7236,7444 Z"/>
        <path fill="none" stroke="rgb(192,192,192)" stroke-width="71" d="M 7236,7444 C 7203,7444 7176,7437 7148,7420 7119,7404 7099,7384 7083,7356 7066,7327 7059,7300 7059,7267 7059,7234 7066,7207 7083,7179 7099,7150 7119,7130 7148,7114 7176,7097 7203,7090 7236,7090 7269,7090 7296,7097 7325,7114 7353,7130 7373,7150 7389,7179 7406,7207 7413,7234 7413,7267 7413,7300 7406,7327 7389,7356 7373,7384 7353,7404 7325,7420 7296,7437 7269,7444 7236,7444 L 7236,7444 Z"/>
       </g>
      </g>
      <g class="com.sun.star.drawing.EllipseShape">
       <g id="id8">
        <path fill="rgb(255,255,255)" stroke="none" d="M 7234,211 L 9075,554 C 9034,774 8968,954 8856,1147 8684,1446 8469,1661 8170,1833 7872,2005 7578,2084 7234,2084 6889,2084 6595,2005 6297,1833 5998,1661 5783,1446 5611,1147 5499,954 5433,774 5392,555 L 7234,211 Z"/>
        <path fill="none" stroke="rgb(0,0,0)" stroke-width="71" d="M 7234,211 L 9075,554 C 9034,774 8968,954 8856,1147 8684,1446 8469,1661 8170,1833 7872,2005 7578,2084 7234,2084 6889,2084 6595,2005 6297,1833 5998,1661 5783,1446 5611,1147 5499,954 5433,774 5392,555 L 7234,211 Z"/>
       </g>
      </g>
      <g class="com.sun.star.drawing.TextShape">
       <g id="id9">
        <text class="TextShape"><tspan class="TextParagraph" font-family="DejaVu Sans, sans-serif" font-size="635px" font-weight="400"><tspan class="TextPosition" x="5845" y="1403"><tspan fill="rgb(0,0,0)" stroke="none">158 ¹⁴⁄₁₇°</tspan></tspan></tspan></text>
       </g>
      </g>
      <g class="com.sun.star.drawing.PolyLineShape">
       <g id="id10">
        <path fill="none" stroke="rgb(0,0,0)" stroke-width="141" d="M 7237,214 L 9784,688 11989,2054 13550,4123 14259,6617 14019,9200 12862,11519 10946,13265 8528,14200 5935,14200 3517,13261 1602,11513 446,9192 210,6606 922,4113 2487,2045 4694,683 7235,211"/>
       </g>
      </g>
      <g class="com.sun.star.drawing.EllipseShape">
       <g id="id11">
        <path fill="rgb(255,255,255)" stroke="none" d="M 7077,135 C 7092,106 7111,84 7138,66 7165,48 7192,39 7225,37 7257,36 7286,41 7315,56 7344,70 7365,89 7383,117 7401,144 7410,171 7412,204 7414,236 7408,264 7394,293 7379,322 7360,344 7333,362 7306,380 7279,389 7246,391 7214,393 7185,387 7156,372 7127,358 7106,339 7088,312 7070,284 7061,257 7059,225 7057,192 7063,164 7077,135 L 7077,135 Z"/>
        <path fill="none" stroke="rgb(0,0,0)" stroke-width="71" d="M 7077,135 C 7092,106 7111,84 7138,66 7165,48 7192,39 7225,37 7257,36 7286,41 7315,56 7344,70 7365,89 7383,117 7401,144 7410,171 7412,204 7414,236 7408,264 7394,293 7379,322 7360,344 7333,362 7306,380 7279,389 7246,391 7214,393 7185,387 7156,372 7127,358 7106,339 7088,312 7070,284 7061,257 7059,225 7057,192 7063,164 7077,135 L 7077,135 Z"/>
       </g>
      </g>
      <g class="com.sun.star.drawing.EllipseShape">
       <g id="id12">
        <path fill="rgb(255,255,255)" stroke="none" d="M 9611,660 C 9617,628 9630,602 9651,577 9672,552 9696,536 9727,525 9757,515 9786,512 9818,518 9850,524 9876,537 9901,558 9925,579 9942,603 9952,634 9963,664 9965,693 9959,725 9953,757 9941,783 9920,808 9899,832 9875,849 9844,859 9814,870 9785,872 9753,866 9721,860 9695,848 9670,827 9646,806 9629,782 9619,751 9608,720 9605,692 9611,660 L 9611,660 Z"/>
        <path fill="none" stroke="rgb(0,0,0)" stroke-width="71" d="M 9611,660 C 9617,628 9630,602 9651,577 9672,552 9696,536 9727,525 9757,515 9786,512 9818,518 9850,524 9876,537 9901,558 9925,579 9942,603 9952,634 9963,664 9965,693 9959,725 9953,757 9941,783 9920,808 9899,832 9875,849 9844,859 9814,870 9785,872 9753,866 9721,860 9695,848 9670,827 9646,806 9629,782 9619,751 9608,720 9605,692 9611,660 L 9611,660 Z"/>
       </g>
      </g>
      <g class="com.sun.star.drawing.EllipseShape">
       <g id="id13">
        <path fill="rgb(255,255,255)" stroke="none" d="M 11840,1963 C 11857,1935 11878,1916 11907,1900 11935,1885 11963,1878 11996,1879 12028,1880 12056,1889 12084,1906 12111,1923 12131,1944 12146,1973 12162,2001 12168,2029 12167,2062 12166,2094 12158,2122 12141,2149 12124,2177 12103,2197 12074,2212 12045,2228 12017,2234 11985,2233 11952,2232 11925,2224 11897,2207 11869,2190 11850,2169 11834,2140 11819,2111 11812,2083 11813,2051 11814,2018 11823,1991 11840,1963 L 11840,1963 Z"/>
        <path fill="none" stroke="rgb(0,0,0)" stroke-width="71" d="M 11840,1963 C 11857,1935 11878,1916 11907,1900 11935,1885 11963,1878 11996,1879 12028,1880 12056,1889 12084,1906 12111,1923 12131,1944 12146,1973 12162,2001 12168,2029 12167,2062 12166,2094 12158,2122 12141,2149 12124,2177 12103,2197 12074,2212 12045,2228 12017,2234 11985,2233 11952,2232 11925,2224 11897,2207 11869,2190 11850,2169 11834,2140 11819,2111 11812,2083 11813,2051 11814,2018 11823,1991 11840,1963 L 11840,1963 Z"/>
       </g>
      </g>
      <g class="com.sun.star.drawing.EllipseShape">
       <g id="id14">
        <path fill="rgb(255,255,255)" stroke="none" d="M 13445,3984 C 13471,3964 13497,3954 13529,3950 13562,3946 13590,3950 13620,3962 13650,3975 13673,3993 13692,4019 13712,4045 13723,4071 13727,4104 13731,4136 13727,4164 13714,4194 13701,4224 13684,4247 13658,4267 13632,4286 13605,4297 13573,4301 13540,4305 13512,4301 13482,4288 13452,4276 13429,4258 13410,4232 13390,4206 13379,4179 13375,4147 13371,4115 13375,4086 13388,4056 13401,4026 13418,4004 13445,3984 L 13445,3984 Z"/>
        <path fill="none" stroke="rgb(0,0,0)" stroke-width="71" d="M 13445,3984 C 13471,3964 13497,3954 13529,3950 13562,3946 13590,3950 13620,3962 13650,3975 13673,3993 13692,4019 13712,4045 13723,4071 13727,4104 13731,4136 13727,4164 13714,4194 13701,4224 13684,4247 13658,4267 13632,4286 13605,4297 13573,4301 13540,4305 13512,4301 13482,4288 13452,4276 13429,4258 13410,4232 13390,4206 13379,4179 13375,4147 13371,4115 13375,4086 13388,4056 13401,4026 13418,4004 13445,3984 L 13445,3984 Z"/>
       </g>
      </g>
      <g class="com.sun.star.drawing.EllipseShape">
       <g id="id15">
        <path fill="rgb(255,255,255)" stroke="none" d="M 14212,6449 C 14243,6440 14272,6440 14304,6448 14335,6455 14360,6469 14384,6492 14407,6515 14422,6539 14431,6571 14440,6602 14440,6631 14432,6662 14424,6694 14410,6719 14387,6742 14365,6766 14340,6780 14309,6789 14277,6798 14249,6799 14217,6791 14186,6783 14160,6769 14137,6746 14114,6724 14099,6699 14090,6668 14081,6636 14081,6608 14089,6576 14097,6544 14111,6519 14133,6496 14156,6473 14181,6458 14212,6449 L 14212,6449 Z"/>
        <path fill="none" stroke="rgb(0,0,0)" stroke-width="71" d="M 14212,6449 C 14243,6440 14272,6440 14304,6448 14335,6455 14360,6469 14384,6492 14407,6515 14422,6539 14431,6571 14440,6602 14440,6631 14432,6662 14424,6694 14410,6719 14387,6742 14365,6766 14340,6780 14309,6789 14277,6798 14249,6799 14217,6791 14186,6783 14160,6769 14137,6746 14114,6724 14099,6699 14090,6668 14081,6636 14081,6608 14089,6576 14097,6544 14111,6519 14133,6496 14156,6473 14181,6458 14212,6449 L 14212,6449 Z"/>
       </g>
      </g>
      <g class="com.sun.star.drawing.EllipseShape">
       <g id="id16">
        <path fill="rgb(255,255,255)" stroke="none" d="M 14037,9024 C 14069,9027 14096,9037 14122,9056 14149,9075 14167,9097 14181,9126 14195,9156 14199,9184 14196,9217 14193,9249 14183,9276 14165,9303 14146,9329 14124,9348 14094,9361 14064,9375 14036,9380 14004,9377 13971,9374 13944,9364 13918,9345 13891,9326 13873,9304 13859,9274 13846,9245 13841,9216 13844,9184 13847,9152 13857,9125 13876,9098 13895,9071 13917,9053 13946,9040 13976,9026 14004,9021 14037,9024 L 14037,9024 Z"/>
        <path fill="none" stroke="rgb(0,0,0)" stroke-width="71" d="M 14037,9024 C 14069,9027 14096,9037 14122,9056 14149,9075 14167,9097 14181,9126 14195,9156 14199,9184 14196,9217 14193,9249 14183,9276 14165,9303 14146,9329 14124,9348 14094,9361 14064,9375 14036,9380 14004,9377 13971,9374 13944,9364 13918,9345 13891,9326 13873,9304 13859,9274 13846,9245 13841,9216 13844,9184 13847,9152 13857,9125 13876,9098 13895,9071 13917,9053 13946,9040 13976,9026 14004,9021 14037,9024 L 14037,9024 Z"/>
       </g>
      </g>
      <g class="com.sun.star.drawing.EllipseShape">
       <g id="id17">
        <path fill="rgb(255,255,255)" stroke="none" d="M 12943,11361 C 12972,11376 12993,11395 13011,11422 13029,11449 13038,11476 13040,11509 13042,11541 13037,11569 13022,11599 13007,11628 12988,11649 12961,11667 12934,11685 12907,11694 12874,11696 12842,11698 12814,11693 12785,11678 12755,11663 12734,11644 12716,11617 12698,11590 12689,11563 12687,11530 12685,11498 12691,11470 12705,11441 12720,11411 12739,11390 12766,11372 12793,11354 12820,11345 12853,11343 12885,11341 12913,11347 12943,11361 L 12943,11361 Z"/>
        <path fill="none" stroke="rgb(0,0,0)" stroke-width="71" d="M 12943,11361 C 12972,11376 12993,11395 13011,11422 13029,11449 13038,11476 13040,11509 13042,11541 13037,11569 13022,11599 13007,11628 12988,11649 12961,11667 12934,11685 12907,11694 12874,11696 12842,11698 12814,11693 12785,11678 12755,11663 12734,11644 12716,11617 12698,11590 12689,11563 12687,11530 12685,11498 12691,11470 12705,11441 12720,11411 12739,11390 12766,11372 12793,11354 12820,11345 12853,11343 12885,11341 12913,11347 12943,11361 L 12943,11361 Z"/>
       </g>
      </g>
      <g class="com.sun.star.drawing.EllipseShape">
       <g id="id18">
        <path fill="rgb(255,255,255)" stroke="none" d="M 11078,13147 C 11100,13171 11113,13196 11120,13228 11127,13260 11126,13289 11116,13320 11106,13351 11091,13375 11067,13397 11043,13419 11017,13432 10985,13439 10954,13446 10925,13445 10894,13435 10863,13425 10839,13409 10817,13385 10795,13361 10782,13336 10775,13304 10768,13272 10769,13243 10779,13212 10789,13181 10804,13157 10828,13135 10852,13113 10878,13100 10910,13093 10941,13086 10970,13087 11001,13097 11032,13107 11056,13123 11078,13147 L 11078,13147 Z"/>
        <path fill="none" stroke="rgb(0,0,0)" stroke-width="71" d="M 11078,13147 C 11100,13171 11113,13196 11120,13228 11127,13260 11126,13289 11116,13320 11106,13351 11091,13375 11067,13397 11043,13419 11017,13432 10985,13439 10954,13446 10925,13445 10894,13435 10863,13425 10839,13409 10817,13385 10795,13361 10782,13336 10775,13304 10768,13272 10769,13243 10779,13212 10789,13181 10804,13157 10828,13135 10852,13113 10878,13100 10910,13093 10941,13086 10970,13087 11001,13097 11032,13107 11056,13123 11078,13147 L 11078,13147 Z"/>
       </g>
      </g>
      <g class="com.sun.star.drawing.EllipseShape">
       <g id="id19">
        <path fill="rgb(255,255,255)" stroke="none" d="M 8695,14136 C 8707,14167 8710,14195 8705,14227 8700,14260 8689,14286 8668,14311 8648,14337 8624,14353 8594,14365 8564,14377 8535,14380 8503,14375 8471,14370 8445,14358 8419,14338 8394,14317 8377,14294 8365,14264 8353,14234 8350,14205 8355,14173 8360,14141 8372,14114 8392,14089 8413,14064 8436,14047 8466,14035 8497,14023 8525,14020 8558,14025 8590,14030 8616,14042 8641,14062 8667,14083 8684,14106 8695,14136 L 8695,14136 Z"/>
        <path fill="none" stroke="rgb(0,0,0)" stroke-width="71" d="M 8695,14136 C 8707,14167 8710,14195 8705,14227 8700,14260 8689,14286 8668,14311 8648,14337 8624,14353 8594,14365 8564,14377 8535,14380 8503,14375 8471,14370 8445,14358 8419,14338 8394,14317 8377,14294 8365,14264 8353,14234 8350,14205 8355,14173 8360,14141 8372,14114 8392,14089 8413,14064 8436,14047 8466,14035 8497,14023 8525,14020 8558,14025 8590,14030 8616,14042 8641,14062 8667,14083 8684,14106 8695,14136 L 8695,14136 Z"/>
       </g>
      </g>
      <g class="com.sun.star.drawing.EllipseShape">
       <g id="id20">
        <path fill="rgb(255,255,255)" stroke="none" d="M 6115,14201 C 6115,14234 6108,14261 6091,14290 6075,14318 6055,14338 6027,14354 5998,14371 5971,14378 5938,14378 5905,14378 5878,14371 5850,14354 5821,14338 5801,14318 5785,14290 5768,14261 5761,14234 5761,14201 5761,14168 5768,14141 5785,14113 5801,14084 5821,14064 5850,14048 5878,14031 5905,14024 5938,14024 5971,14024 5998,14031 6027,14048 6055,14064 6075,14084 6091,14113 6108,14141 6115,14168 6115,14201 L 6115,14201 Z"/>
        <path fill="none" stroke="rgb(0,0,0)" stroke-width="71" d="M 6115,14201 C 6115,14234 6108,14261 6091,14290 6075,14318 6055,14338 6027,14354 5998,14371 5971,14378 5938,14378 5905,14378 5878,14371 5850,14354 5821,14338 5801,14318 5785,14290 5768,14261 5761,14234 5761,14201 5761,14168 5768,14141 5785,14113 5801,14084 5821,14064 5850,14048 5878,14031 5905,14024 5938,14024 5971,14024 5998,14031 6027,14048 6055,14064 6075,14084 6091,14113 6108,14141 6115,14168 6115,14201 L 6115,14201 Z"/>
       </g>
      </g>
      <g class="com.sun.star.drawing.EllipseShape">
       <g id="id21">
        <path fill="rgb(255,255,255)" stroke="none" d="M 3685,13329 C 3673,13359 3656,13383 3631,13403 3606,13423 3579,13435 3547,13440 3515,13445 3486,13442 3456,13430 3426,13418 3403,13401 3382,13376 3362,13351 3350,13324 3345,13292 3340,13260 3343,13231 3355,13201 3367,13171 3384,13147 3409,13127 3435,13107 3461,13095 3493,13090 3525,13085 3554,13088 3584,13100 3614,13112 3638,13129 3658,13154 3678,13179 3690,13206 3695,13238 3700,13270 3697,13299 3685,13329 L 3685,13329 Z"/>
        <path fill="none" stroke="rgb(0,0,0)" stroke-width="71" d="M 3685,13329 C 3673,13359 3656,13383 3631,13403 3606,13423 3579,13435 3547,13440 3515,13445 3486,13442 3456,13430 3426,13418 3403,13401 3382,13376 3362,13351 3350,13324 3345,13292 3340,13260 3343,13231 3355,13201 3367,13171 3384,13147 3409,13127 3435,13107 3461,13095 3493,13090 3525,13085 3554,13088 3584,13100 3614,13112 3638,13129 3658,13154 3678,13179 3690,13206 3695,13238 3700,13270 3697,13299 3685,13329 L 3685,13329 Z"/>
       </g>
      </g>
      <g class="com.sun.star.drawing.EllipseShape">
       <g id="id22">
        <path fill="rgb(255,255,255)" stroke="none" d="M 1735,11636 C 1713,11660 1689,11675 1658,11685 1627,11695 1598,11696 1566,11689 1534,11682 1509,11669 1485,11647 1461,11625 1445,11601 1435,11570 1425,11539 1424,11510 1431,11479 1438,11447 1451,11421 1473,11397 1495,11373 1519,11358 1551,11348 1582,11338 1610,11337 1642,11344 1674,11351 1699,11364 1723,11386 1747,11408 1763,11432 1773,11463 1783,11494 1784,11523 1777,11555 1770,11586 1757,11612 1735,11636 L 1735,11636 Z"/>
        <path fill="none" stroke="rgb(0,0,0)" stroke-width="71" d="M 1735,11636 C 1713,11660 1689,11675 1658,11685 1627,11695 1598,11696 1566,11689 1534,11682 1509,11669 1485,11647 1461,11625 1445,11601 1435,11570 1425,11539 1424,11510 1431,11479 1438,11447 1451,11421 1473,11397 1495,11373 1519,11358 1551,11348 1582,11338 1610,11337 1642,11344 1674,11351 1699,11364 1723,11386 1747,11408 1763,11432 1773,11463 1783,11494 1784,11523 1777,11555 1770,11586 1757,11612 1735,11636 L 1735,11636 Z"/>
       </g>
      </g>
      <g class="com.sun.star.drawing.EllipseShape">
       <g id="id23">
        <path fill="rgb(255,255,255)" stroke="none" d="M 527,9353 C 498,9368 470,9373 437,9371 405,9369 378,9360 351,9342 323,9324 304,9303 290,9273 275,9244 270,9216 272,9184 274,9151 283,9124 301,9097 319,9070 340,9051 369,9036 399,9022 427,9016 459,9018 492,9020 519,9029 546,9047 573,9065 592,9087 607,9116 621,9145 627,9173 625,9206 623,9238 614,9265 596,9292 578,9320 556,9339 527,9353 L 527,9353 Z"/>
        <path fill="none" stroke="rgb(0,0,0)" stroke-width="71" d="M 527,9353 C 498,9368 470,9373 437,9371 405,9369 378,9360 351,9342 323,9324 304,9303 290,9273 275,9244 270,9216 272,9184 274,9151 283,9124 301,9097 319,9070 340,9051 369,9036 399,9022 427,9016 459,9018 492,9020 519,9029 546,9047 573,9065 592,9087 607,9116 621,9145 627,9173 625,9206 623,9238 614,9265 596,9292 578,9320 556,9339 527,9353 L 527,9353 Z"/>
       </g>
      </g>
      <g class="com.sun.star.drawing.EllipseShape">
       <g id="id24">
        <path fill="rgb(255,255,255)" stroke="none" d="M 229,6787 C 197,6790 169,6786 139,6772 110,6758 88,6740 69,6713 50,6687 40,6660 37,6627 34,6595 39,6567 53,6537 66,6507 85,6485 111,6467 138,6448 165,6438 197,6435 230,6432 258,6437 288,6450 317,6464 339,6482 358,6509 377,6536 387,6563 390,6595 393,6628 388,6656 374,6685 360,6715 342,6737 315,6756 289,6775 262,6784 229,6787 L 229,6787 Z"/>
        <path fill="none" stroke="rgb(0,0,0)" stroke-width="71" d="M 229,6787 C 197,6790 169,6786 139,6772 110,6758 88,6740 69,6713 50,6687 40,6660 37,6627 34,6595 39,6567 53,6537 66,6507 85,6485 111,6467 138,6448 165,6438 197,6435 230,6432 258,6437 288,6450 317,6464 339,6482 358,6509 377,6536 387,6563 390,6595 393,6628 388,6656 374,6685 360,6715 342,6737 315,6756 289,6775 262,6784 229,6787 L 229,6787 Z"/>
       </g>
      </g>
      <g class="com.sun.star.drawing.EllipseShape">
       <g id="id25">
        <path fill="rgb(255,255,255)" stroke="none" d="M 875,4286 C 844,4277 819,4262 796,4239 774,4215 760,4190 752,4159 744,4127 744,4099 753,4067 762,4036 777,4011 801,3989 824,3966 849,3952 881,3944 912,3936 941,3937 972,3946 1004,3955 1028,3969 1051,3993 1073,4016 1087,4041 1095,4073 1103,4104 1103,4133 1094,4164 1085,4196 1070,4220 1047,4243 1023,4266 998,4280 967,4287 935,4295 906,4295 875,4286 L 875,4286 Z"/>
        <path fill="none" stroke="rgb(0,0,0)" stroke-width="71" d="M 875,4286 C 844,4277 819,4262 796,4239 774,4215 760,4190 752,4159 744,4127 744,4099 753,4067 762,4036 777,4011 801,3989 824,3966 849,3952 881,3944 912,3936 941,3937 972,3946 1004,3955 1028,3969 1051,3993 1073,4016 1087,4041 1095,4073 1103,4104 1103,4133 1094,4164 1085,4196 1070,4220 1047,4243 1023,4266 998,4280 967,4287 935,4295 906,4295 875,4286 L 875,4286 Z"/>
       </g>
      </g>
      <g class="com.sun.star.drawing.EllipseShape">
       <g id="id26">
        <path fill="rgb(255,255,255)" stroke="none" d="M 2383,2189 C 2357,2169 2339,2147 2326,2117 2314,2087 2310,2058 2314,2026 2318,1994 2329,1967 2348,1941 2368,1915 2391,1898 2421,1885 2451,1872 2479,1868 2511,1872 2544,1876 2570,1887 2596,1907 2622,1926 2640,1949 2652,1979 2665,2009 2669,2037 2665,2070 2661,2102 2650,2129 2631,2155 2611,2181 2588,2198 2558,2211 2528,2224 2500,2228 2468,2224 2435,2220 2409,2209 2383,2189 L 2383,2189 Z"/>
        <path fill="none" stroke="rgb(0,0,0)" stroke-width="71" d="M 2383,2189 C 2357,2169 2339,2147 2326,2117 2314,2087 2310,2058 2314,2026 2318,1994 2329,1967 2348,1941 2368,1915 2391,1898 2421,1885 2451,1872 2479,1868 2511,1872 2544,1876 2570,1887 2596,1907 2622,1926 2640,1949 2652,1979 2665,2009 2669,2037 2665,2070 2661,2102 2650,2129 2631,2155 2611,2181 2588,2198 2558,2211 2528,2224 2500,2228 2468,2224 2435,2220 2409,2209 2383,2189 L 2383,2189 Z"/>
       </g>
      </g>
      <g class="com.sun.star.drawing.EllipseShape">
       <g id="id27">
        <path fill="rgb(255,255,255)" stroke="none" d="M 4545,778 C 4527,751 4519,723 4518,691 4517,658 4524,630 4539,602 4555,573 4575,552 4602,535 4630,518 4658,510 4690,509 4723,508 4751,514 4779,530 4808,545 4829,565 4846,593 4863,620 4871,648 4872,680 4873,713 4866,741 4851,770 4836,798 4816,819 4788,836 4760,853 4733,862 4700,862 4668,863 4640,857 4611,841 4583,826 4562,806 4545,778 L 4545,778 Z"/>
        <path fill="none" stroke="rgb(0,0,0)" stroke-width="71" d="M 4545,778 C 4527,751 4519,723 4518,691 4517,658 4524,630 4539,602 4555,573 4575,552 4602,535 4630,518 4658,510 4690,509 4723,508 4751,514 4779,530 4808,545 4829,565 4846,593 4863,620 4871,648 4872,680 4873,713 4866,741 4851,770 4836,798 4816,819 4788,836 4760,853 4733,862 4700,862 4668,863 4640,857 4611,841 4583,826 4562,806 4545,778 L 4545,778 Z"/>
       </g>
      </g>
     </g>
    </g>
   </g>
  </g>
 </g>
</svg>