<?xml version="1.0" encoding="UTF-8" standalone="no"?>
<!-- Created with Inkscape (http://www.inkscape.org/) -->
<svg
   xmlns:svg="http://www.w3.org/2000/svg"
   xmlns="http://www.w3.org/2000/svg"
   version="1.0"
   width="560"
   height="620"
   id="svg2">
  <defs
     id="defs4" />
  <g
     transform="translate(-106,-58.971814)"
     id="layer1">
    <g
       transform="translate(15.75,13.5)"
       id="g4866">
      <g
         id="g3449">
        <path
           d="M 454.88537,326.57735 L 616.2963,239.66377 L 598.80071,447.35336 L 437.38977,548.94067 L 454.88537,326.57735 z "
           style="fill:#7f913a;fill-opacity:1;fill-rule:evenodd;stroke:none;stroke-width:1px;stroke-linecap:butt;stroke-linejoin:miter;stroke-opacity:1"
           id="path2386" />
        <path
           d="M 440.49383,548.09411 L 600.49383,449.61086 L 630.40564,515.07823 L 491.56966,605.37806 L 440.49383,548.09411 z "
           style="fill:#726f3c;fill-opacity:1;fill-rule:evenodd;stroke:none;stroke-width:1px;stroke-linecap:butt;stroke-linejoin:miter;stroke-opacity:1"
           id="path3357" />
        <path
           d="M 599.92945,448.48211 L 617.98942,243.61439 L 648.46561,329.96359 L 629.84127,513.38511 L 599.92945,448.48211 z "
           style="fill:#7f6642;fill-opacity:1;fill-rule:evenodd;stroke:none;stroke-width:1px;stroke-linecap:butt;stroke-linejoin:miter;stroke-opacity:1"
           id="path3359" />
        <path
           d="M 394.97707,62.175234 L 435.13228,132.43273 L 617.42504,239.0994 L 555.90829,156.75019 L 394.97707,62.175234 z "
           style="fill:#97895b;fill-opacity:1;fill-rule:evenodd;stroke:none;stroke-width:1px;stroke-linecap:butt;stroke-linejoin:miter;stroke-opacity:1"
           id="path3361" />
        <path
           d="M 239.85891,124.53149 L 262.43386,210.31633 L 433.43915,132.43273 L 396.07054,61.490931 L 239.85891,124.53149 z "
           style="fill:#6ca058;fill-opacity:1;fill-rule:evenodd;stroke:none;stroke-width:1px;stroke-linecap:butt;stroke-linejoin:miter;stroke-opacity:1"
           id="path3363" />
        <path
           d="M 120.53616,209.80134 L 238.16578,126.22462 L 261.86949,211.44508 L 127.10406,298.40804 L 120.53616,209.80134 z "
           style="fill:#5fa978;fill-opacity:1;fill-rule:evenodd;stroke:none;stroke-width:1px;stroke-linecap:butt;stroke-linejoin:miter;stroke-opacity:1"
           id="path3365" />
        <path
           d="M 260.74074,212.57382 L 247.76014,434.37276 L 115.45679,500.24931 L 126.41975,295.53679 L 260.74074,212.57382 z "
           style="fill:#58a350;fill-opacity:1;fill-rule:evenodd;stroke:none;stroke-width:1px;stroke-linecap:butt;stroke-linejoin:miter;stroke-opacity:1"
           id="path3367" />
        <path
           d="M 261.86949,210.8807 L 455.44974,327.14172 L 616.86067,239.66377 L 433.43915,131.86836 L 261.86949,210.8807 z "
           style="fill:#78b03e;fill-opacity:1;fill-rule:evenodd;stroke:none;stroke-width:1px;stroke-linecap:butt;stroke-linejoin:miter;stroke-opacity:1"
           id="path3371" />
        <path
           d="M 285.57319,607.07118 L 436.6843,549.22285 L 491.00529,606.5068 L 352.16931,652.22109 L 285.57319,607.07118 z "
           style="fill:#85897a;fill-opacity:1;fill-rule:evenodd;stroke:none;stroke-width:1px;stroke-linecap:butt;stroke-linejoin:miter;stroke-opacity:1"
           id="path3373" />
        <path
           d="M 262.99824,214.26694 L 453.19224,326.57735 L 438.51852,547.24754 L 247.76014,433.80839 L 262.99824,214.26694 z "
           style="fill:#71af3f;fill-opacity:1;fill-rule:evenodd;stroke:none;stroke-width:1px;stroke-linecap:butt;stroke-linejoin:miter;stroke-opacity:1"
           id="path3393" />
        <path
           d="M 113.43916,499.27576 L 288.39506,603.68493 L 436.26102,548.37629 L 246.63139,434.93714 L 113.43916,499.27576 z "
           style="fill:#61a75d;fill-opacity:1;fill-rule:evenodd;stroke:none;stroke-width:1px;stroke-linecap:butt;stroke-linejoin:miter;stroke-opacity:1"
           id="path3395" />
        <path
           d="M 133.19224,513.94948 L 351.60494,654.30927 L 364.61376,648.43978 L 133.19224,513.94948 z "
           style="fill:#43634e;fill-opacity:1;fill-rule:evenodd;stroke:none;stroke-width:1px;stroke-linecap:butt;stroke-linejoin:miter;stroke-opacity:1"
           id="path3397" />
        <path
           d="M 119.07544,208.66397 L 106,394.36219 L 114,497.69552 L 126,293.69552 L 119.07544,208.66397 z "
           style="fill:#447d62;fill-opacity:1;fill-rule:evenodd;stroke:none;stroke-width:1px;stroke-linecap:butt;stroke-linejoin:miter;stroke-opacity:1"
           id="path3447" />
      </g>
      <g
         transform="translate(588,0)"
         id="g3431">
        <path
           d="M -264.625,250.5 L -273.15625,381.3125 L -338.0625,415.75 L -339.1875,422.53125 L -270.90625,385.28125 L -145.59375,462.59375 L -144.46875,456.375 L -269.21875,381.3125 L -259.6875,252.34375 L -264.625,250.5 z M -148.4375,465.40625 L -214.8125,506 L -210.0625,509.5625 L -146.0625,469.5625 L -148.4375,465.40625 z "
           style="fill:#427c14;fill-opacity:1;fill-rule:evenodd;stroke:none;stroke-width:1px;stroke-linecap:butt;stroke-linejoin:miter;stroke-opacity:1"
           id="path3399" />
        <path
           d="M -327.08603,256.21874 L -288.7086,237.40627 L -281.93612,241.4196 L -327.58769,262.74039 L -327.08603,256.21874 z "
           style="fill:#427c14;fill-opacity:1;fill-rule:evenodd;stroke:none;stroke-width:1px;stroke-linecap:butt;stroke-linejoin:miter;stroke-opacity:1"
           id="path3401" />
        <path
           d="M -153.5,132.125 L -159.28125,134.375 L -146.75,156.6875 L -257.34375,222.90625 L -260.625,222.15625 L -280.9375,191.5625 L -285.9375,194.5625 L -264.625,225.1875 L -285.3233,235.33912 L -283.0733,240.08912 L -263.625,230.6875 L -265.95833,249.5 L -259.80208,254.3125 L -259.4375,229.6875 L -129.25,308.71875 L -130.375,321.125 L -124.15625,319.4375 L -124.15625,309.28125 L -3,248.75 L -4.1944444,256.78125 L 10.03125,252.27778 L 3,242.25 L -3,222.40625 L -13.03125,216.15625 L -5.78125,237.46875 L -142.96875,154.9375 L -153.5,132.125 z M -144.40625,161.46875 L -5.28125,244.6875 L -125.65625,304.375 L -255.59375,227.375 L -144.40625,161.46875 z "
           style="fill:#517d0e;fill-opacity:1;fill-rule:evenodd;stroke:none;stroke-width:1px;stroke-linecap:butt;stroke-linejoin:miter;stroke-opacity:1"
           id="path3403" />
        <path
           d="M -35.869097,152.62477 L -13.96747,215.7641 L -5.9408192,220.02826 L -30.85244,155.1331 L -35.869097,152.62477 z "
           style="fill:#665424;fill-opacity:1;fill-rule:evenodd;stroke:none;stroke-width:1px;stroke-linecap:butt;stroke-linejoin:miter;stroke-opacity:1"
           id="path3408" />
        <path
           d="M -342.41976,149.4486 L -319.43563,140.33396 L -207.22399,66.090577 L -193.58025,62.450366 L -313.79189,143.15583 L -280.97354,191.29693 L -285.48853,194.68317 L -318.87125,145.9777 L -338.62434,155.36748 L -342.41976,149.4486 z "
           style="fill:#3c6f2c;fill-opacity:1;fill-rule:evenodd;stroke:none;stroke-width:1px;stroke-linecap:butt;stroke-linejoin:miter;stroke-opacity:1"
           id="path3410" />
        <path
           d="M -345.67901,150.83132 L -453.0919,197.79977 L -468.08231,209.25656 L -466.37037,215.62144 L -417.28395,270.23872 L -411.75308,266.2881 L -463.20988,209.10292 L -342.91358,156.55971 L -345.67901,150.83132 z "
           style="fill:#35825e;fill-opacity:1;fill-rule:evenodd;stroke:none;stroke-width:1px;stroke-linecap:butt;stroke-linejoin:miter;stroke-opacity:1"
           id="path3412" />
        <path
           d="M -476.88889,396.80663 L -471.55556,480.80663 L -476.44444,485.25107 L -480.44444,385.25107 L -469.33333,393.69552 L -469.77778,399.91774 L -476.88889,396.80663 z "
           style="fill:#17503f;fill-opacity:1;fill-rule:evenodd;stroke:none;stroke-width:1px;stroke-linecap:butt;stroke-linejoin:miter;stroke-opacity:1"
           id="path3414" />
        <path
           d="M 21.069959,279.62144 L 22.255144,270.40333 L 8.4279835,251.96712 L -3.9506173,254.86424 L -16.888889,410.28811 L -136,459.76959 L -125.03704,321.69552 L -131.55556,326.13996 L -142.51852,467.177 L -139.25926,466.8807 L -116.59259,529.84366 L -111.7037,524.36218 L -135.11111,465.69552 L -14.814815,415.32515 L 3.5555556,448.80663 L 8.5925926,446.13996 L -11.555556,411.47329 L 2.0740741,255.62144 L 4.4444444,254.43626 L 21.069959,279.62144 z "
           style="fill:#535208;fill-opacity:1;fill-rule:evenodd;stroke:none;stroke-width:1px;stroke-linecap:butt;stroke-linejoin:miter;stroke-opacity:1"
           id="path3416" />
        <path
           d="M 24.888889,289.39922 L 55.111111,332.06589 L 55.111111,319.62144 L 25.777778,277.84366 L 24.888889,289.39922 z "
           style="fill:#4f2e0d;fill-opacity:1;fill-rule:evenodd;stroke:none;stroke-width:1px;stroke-linecap:butt;stroke-linejoin:miter;stroke-opacity:1"
           id="path3418" />
        <path
           d="M 37.037037,511.91774 L -98.074074,560.21403 L -112,525.25107 L -117.03704,527.62144 L -103.7037,562.5844 L -124.14815,576.21403 L -120,580.06589 L -98.962963,566.13996 L 39.407407,517.25107 L 37.037037,511.91774 z "
           style="fill:#484011;fill-opacity:1;fill-rule:evenodd;stroke:none;stroke-width:1px;stroke-linecap:butt;stroke-linejoin:miter;stroke-opacity:1"
           id="path3420" />
        <path
           d="M -129.48148,577.39922 L -235.55556,647.32515 L -248.88889,587.47329 L -254.51852,588.95478 L -240.88889,648.21403 L -234.96296,652.65848 L -124.44444,582.13996 L -129.48148,577.39922 z "
           style="fill:#595b43;fill-opacity:1;fill-rule:evenodd;stroke:none;stroke-width:1px;stroke-linecap:butt;stroke-linejoin:miter;stroke-opacity:1"
           id="path3425" />
        <path
           d="M -254.81481,586.28811 L -266.07407,539.76959 L -395.25926,461.54737 L -399.11111,463.62144 L -389.33333,549.54737 L -396.74074,544.21403 L -405.33333,463.32515 L -390.51852,456.51033 L -265.18519,535.02885 L -219.85185,507.177 L -213.62963,511.91774 L -261.33333,538.8807 L -249.48148,584.51033 L -254.81481,586.28811 z "
           style="fill:#2d7e32;fill-opacity:1;fill-rule:evenodd;stroke:none;stroke-width:1px;stroke-linecap:butt;stroke-linejoin:miter;stroke-opacity:1"
           id="path3427" />
        <path
           d="M -405.92593,447.91774 L -466.66667,396.36218 L -467.25926,404.65848 L -406.22222,455.02885 L -405.18519,466.13996 L -389.48148,457.54737 L -400,454.13996 L -339.40741,422.58441 L -338.81481,415.4733 L -401.48148,448.21403 L -390.81481,291.47329 L -331.85185,263.62144 L -331.85185,257.39922 L -391.7037,287.02885 L -410.96296,266.28811 L -417.48148,269.54737 L -396.14815,291.177 L -405.92593,447.91774 z "
           style="fill:#256f22;fill-opacity:1;fill-rule:evenodd;stroke:none;stroke-width:1px;stroke-linecap:butt;stroke-linejoin:miter;stroke-opacity:1"
           id="path3429" />
      </g>
      <g
         transform="translate(588,-33)"
         id="g4843">
        <path
           d="M -192,98.584405 L -33.777778,191.32515 L 25.481481,271.91774 C 25.481481,271.91774 31.407407,276.36218 30.814815,273.99181 C 30.222222,271.62144 -30.222222,188.36218 -30.222222,188.36218 L -192.59259,92.065886 L -192,98.584405 z "
           style="fill:#383c17;fill-opacity:1;fill-rule:evenodd;stroke:none;stroke-width:1px;stroke-linecap:butt;stroke-linejoin:miter;stroke-opacity:1"
           id="path4762" />
        <path
           d="M 5.3333333,487.02885 L 35.777778,550.36219 L -96.666667,637.02885 L -146,579.69551 L -155.25926,582.8807 C -155.25926,582.8807 -131.33333,615.69552 -121.33333,625.02885 C -111.33333,634.36218 -98,646.36218 -98,646.36218 C -98,646.36218 45.333333,554.36218 44.666667,550.36218 C 44,546.36218 12.888889,481.69552 12.888889,481.69552 L 5.3333333,487.02885 z "
           style="fill:#2a2209;fill-opacity:1;fill-rule:evenodd;stroke:none;stroke-width:1px;stroke-linecap:butt;stroke-linejoin:miter;stroke-opacity:1"
           id="path4775" />
        <path
           d="M 26.666667,277.69552 L 54.666667,368.36218 L 39.407407,539.76959 C 39.407407,539.76959 43.555556,552.51033 44.148148,550.13996 C 44.740741,547.76959 60.148148,370.28811 60.148148,370.28811 C 60.148148,370.28811 61.037037,365.54737 59.259259,361.69552 C 57.481481,357.84366 31.111111,273.10292 29.925926,273.10292 C 28.740741,273.10292 27.259259,277.84366 26.666667,277.69552 z "
           style="fill:#342508;fill-opacity:1;fill-rule:evenodd;stroke:none;stroke-width:1px;stroke-linecap:butt;stroke-linejoin:miter;stroke-opacity:1"
           id="path4773" />
        <path
           d="M 12.246914,483.86836 L 30.222222,280.80663 L 25.777778,276.06589 L 23.703704,280.21403 L 6.5185185,481.69552 L 12.246914,483.86836 z "
           style="fill:#375612;fill-opacity:1;fill-rule:evenodd;stroke:none;stroke-width:1px;stroke-linecap:butt;stroke-linejoin:miter;stroke-opacity:1"
           id="path4777" />
        <path
           d="M -194.37037,98.288109 L -345.77778,162.8807 C -345.77778,162.8807 -352.2963,159.62144 -347.25926,156.95478 C -342.22222,154.28811 -232.66175,106.54724 -194.19113,92.545081 C -191.26894,90.53429 -186.96296,94.13996 -194.37037,98.288109 z "
           style="fill:#29430c;fill-opacity:1;fill-rule:evenodd;stroke:none;stroke-width:1px;stroke-linecap:butt;stroke-linejoin:miter;stroke-opacity:1"
           id="path4758" />
        <path
           d="M -469.62962,241.39922 L -349.62963,157.54737 C -349.62963,157.54737 -348.44444,163.47329 -350.81481,164.95478 C -353.18519,166.43626 -466.96296,244.06589 -466.96296,244.06589 C -466.96296,244.06589 -464.88888,241.10292 -469.62962,241.39922 z "
           style="fill:#05330f;fill-opacity:1;fill-rule:evenodd;stroke:none;stroke-width:1px;stroke-linecap:butt;stroke-linejoin:miter;stroke-opacity:1"
           id="path4765" />
        <path
           d="M -462.41975,329.99181 C -462.41975,329.99181 -457.28395,333.25107 -457.87655,334.0412 C -458.46914,334.83132 -326.51852,252.36218 -326.51852,252.36218 L -326.12346,243.27576 C -326.12346,243.27576 -386.17284,281.99181 -462.41975,329.99181 z "
           style="fill:#134b26;fill-opacity:1;fill-rule:evenodd;stroke:none;stroke-width:1px;stroke-linecap:butt;stroke-linejoin:miter;stroke-opacity:1"
           id="path4793" />
        <path
           d="M -351.7037,163.177 L -330.37037,247.22638 L -323.25926,242.5844 L -346.66667,157.54737 C -346.66667,157.54737 -351.40741,156.65848 -351.7037,163.177 z "
           style="fill:#275143;fill-opacity:1;fill-rule:evenodd;stroke:none;stroke-width:1px;stroke-linecap:butt;stroke-linejoin:miter;stroke-opacity:1"
           id="path4760" />
        <path
           d="M -329.48148,247.91774 L -329.48148,247.91774 L -343.33333,466.36218 C -343.33333,466.36218 -338.96296,469.25107 -337.77778,467.47329 C -336.59259,465.69552 -323.25926,251.76959 -323.25926,251.76959 L -329.48148,247.91774 z "
           style="fill:#2f4911;fill-opacity:1;fill-rule:evenodd;stroke:none;stroke-width:1px;stroke-linecap:butt;stroke-linejoin:miter;stroke-opacity:1"
           id="path4769" />
        <path
           d="M -329.18519,251.177 C -329.18519,251.177 -330.66667,241.39922 -322.96296,243.47329 C -315.25926,245.54737 -319.38272,245.59675 -317.60494,247.07823 C -315.82716,248.55971 -129.33333,359.02885 -129.33333,359.02885 C -129.33333,359.02885 -132,375.02885 -133.33333,391.02885 C -134.66667,407.02885 -144.69959,578.30457 -144.69959,578.30457 L 8,480.80663 C 8,480.80663 13.62963,481.99181 11.851852,484.65848 C 10.074074,487.32515 -147.25926,583.91774 -147.25926,583.91774 L -155.25926,584.21403 L -341.03704,472.51033 C -341.03704,472.51033 -346.07407,466.5844 -344.2963,466.28811 C -342.51852,465.99181 -339.25926,466.28811 -337.77778,466.8807 C -336.2963,467.47329 -154.96296,576.51033 -154.96296,576.51033 L -137.33333,365.02885 L -329.18519,251.177 z "
           style="fill:#274c10;fill-opacity:1;fill-rule:evenodd;stroke:none;stroke-width:1px;stroke-linecap:butt;stroke-linejoin:miter;stroke-opacity:1"
           id="path4771" />
        <path
           d="M -325.33333,243.177 L -156.44444,166.13996 C -156.44444,166.13996 -157.92593,157.25107 -146.96296,166.73255 C -136,176.21403 26.962963,270.13996 26.962963,270.13996 C 26.962963,270.13996 34.962963,276.06589 26.074074,280.21403 C 17.185185,284.36218 -133.92593,365.54737 -133.92593,365.54737 C -133.92593,365.54737 -132.14815,361.39922 -136.2963,359.02885 C -140.44445,356.65848 21.62963,274.8807 21.62963,274.8807 L -152,171.47329 L -318.51852,247.32515 C -318.51852,247.32515 -322.96296,244.06589 -325.33333,243.177 z "
           style="fill:#29340a;fill-opacity:1;fill-rule:evenodd;stroke:none;stroke-width:1px;stroke-linecap:butt;stroke-linejoin:miter;stroke-opacity:1"
           id="path4767" />
        <path
           d="M -194.96296,97.991812 L -158.51852,165.54737 C -158.51852,165.54737 -153.18519,168.80663 -152.59259,163.47329 C -152,158.13996 -192.2963,92.658479 -192.2963,92.658479 C -192.2963,92.658479 -196.14815,92.065886 -194.96296,97.991812 z "
           style="fill:#25553f;fill-opacity:1;fill-rule:evenodd;stroke:none;stroke-width:1px;stroke-linecap:butt;stroke-linejoin:miter;stroke-opacity:1"
           id="path3787" />
        <path
           d="M -236,682.51033 L -100.14815,639.02885 C -100.14815,639.02885 -95.111111,645.25107 -97.777778,646.43626 C -100.44444,647.62144 -236.14815,689.02885 -236.14815,689.02885 L -236,682.51033 z "
           style="fill:#1b512b;fill-opacity:1;fill-rule:evenodd;stroke:none;stroke-width:1px;stroke-linecap:butt;stroke-linejoin:miter;stroke-opacity:1"
           id="path4779" />
        <path
           d="M -155.85185,581.54737 C -155.85185,581.54737 -303.40741,635.177 -301.92593,636.36218 C -300.44444,637.54737 -296,641.39922 -294.22222,640.80663 C -292.44444,640.21403 -144.74074,582.95478 -144.74074,582.95478 L -155.85185,581.54737 z "
           style="fill:#17431f;fill-opacity:1;fill-rule:evenodd;stroke:none;stroke-width:1px;stroke-linecap:butt;stroke-linejoin:miter;stroke-opacity:1"
           id="path4783" />
        <path
           d="M -294.51852,640.21403 L -232.79013,686.13996 C -232.79013,686.13996 -234.07407,691.177 -239.40741,689.10292 C -244.74074,687.02885 -297.77778,644.06589 -297.77778,644.06589 L -294.51852,640.21403 z "
           style="fill:#2f220c;fill-opacity:1;fill-rule:evenodd;stroke:none;stroke-width:1px;stroke-linecap:butt;stroke-linejoin:miter;stroke-opacity:1"
           id="path4781" />
        <path
           d="M -476.14815,533.54737 C -476.14815,533.54737 -365.33333,613.69552 -330.66667,634.36218 C -296,655.02885 -238,690.36218 -238,690.36218 C -238,690.36218 -327.85185,610.28811 -476.14815,533.54737 z "
           style="fill:#315e40;fill-opacity:1;fill-rule:evenodd;stroke:none;stroke-width:1px;stroke-linecap:butt;stroke-linejoin:miter;stroke-opacity:1"
           id="path4789" />
        <path
           d="M -475.85185,532.95477 L -390.51852,594.8807 L -389.03704,592.51032 L -475.85185,532.95477 z "
           style="fill:#1b1c17;fill-opacity:1;fill-rule:evenodd;stroke:none;stroke-width:1px;stroke-linecap:butt;stroke-linejoin:miter;stroke-opacity:1"
           id="path4787" />
        <path
           d="M -294.81482,646.13996 L -476.74074,533.25107 C -476.74074,533.25107 -353.48148,470.43626 -343.40741,465.99181 C -333.33333,461.54737 -342.22222,473.10292 -344.2963,474.28811 C -346.37037,475.47329 -465.48148,532.95478 -465.48148,532.95478 C -465.48148,532.95478 -470.22222,534.73255 -463.7037,537.99181 C -457.18519,541.25107 -292.83951,638.83131 -292.83951,640.0165 C -292.83951,641.20168 -294.51852,646.73255 -294.81482,646.13996 z "
           style="fill:#19300e;fill-opacity:1;fill-rule:evenodd;stroke:none;stroke-width:1px;stroke-linecap:butt;stroke-linejoin:miter;stroke-opacity:1"
           id="path4785" />
        <path
           d="M -469.92593,241.10292 L -462.61728,330.78194 C -462.61728,330.78194 -457.08642,329.00416 -457.28395,327.42391 C -457.48148,325.84366 -463.80247,240.90539 -463.80247,240.90539 L -469.92593,241.10292 z "
           style="fill:#2c5b42;fill-opacity:1;fill-rule:evenodd;stroke:none;stroke-width:1px;stroke-linecap:butt;stroke-linejoin:miter;stroke-opacity:1"
           id="path4791" />
        <path
           d="M -469.86008,241.69552 L -480.66667,421.69552 L -476.22222,533.69551 L -471.33333,531.02885 L -473.33333,425.02885 L -466,284.36218 C -466,284.36218 -462.66667,240.36218 -469.86008,241.69552 z "
           style="fill:#225a2b;fill-opacity:1;fill-rule:evenodd;stroke:none;stroke-width:1px;stroke-linecap:butt;stroke-linejoin:miter;stroke-opacity:1"
           id="path4795" />
        <path
           d="M -462.81481,329.69552 C -462.81481,329.69552 -475.55556,532.36218 -473.77778,532.36218 C -472,532.36218 -466.96296,531.76959 -467.55556,529.69552 C -468.14815,527.62144 -456.59259,331.177 -456.59259,331.177 L -462.81481,329.69552 z "
           style="fill:#2e5a11;fill-opacity:1;fill-rule:evenodd;stroke:none;stroke-width:1px;stroke-linecap:butt;stroke-linejoin:miter;stroke-opacity:1"
           id="path4797" />
      </g>
    </g>
  </g>
</svg>
