<?xml version="1.0" encoding="UTF-8" standalone="no"?>
<!-- Created with Inkscape (http://www.inkscape.org/) -->

<svg
   xmlns:dc="http://purl.org/dc/elements/1.1/"
   xmlns:cc="http://creativecommons.org/ns#"
   xmlns:rdf="http://www.w3.org/1999/02/22-rdf-syntax-ns#"
   xmlns:svg="http://www.w3.org/2000/svg"
   xmlns="http://www.w3.org/2000/svg"
   xmlns:sodipodi="http://sodipodi.sourceforge.net/DTD/sodipodi-0.dtd"
   xmlns:inkscape="http://www.inkscape.org/namespaces/inkscape"
   width="283.46457"
   height="177.16534"
   id="svg2"
   version="1.1"
   inkscape:version="0.92.4 (5da689c313, 2019-01-14)"
   sodipodi:docname="skalárszorzat-munka.svg">
  <defs
     id="defs4">
    <marker
       inkscape:stockid="TriangleOutM"
       orient="auto"
       refY="0"
       refX="0"
       id="TriangleOutM"
       style="overflow:visible">
      <path
         id="path3915"
         d="m 5.77,0 -8.65,5 0,-10 8.65,5 z"
         style="fill-rule:evenodd;stroke:#000000;stroke-width:1pt;marker-start:none"
         transform="scale(0.4,0.4)"
         inkscape:connector-curvature="0" />
    </marker>
    <marker
       inkscape:stockid="TriangleOutL"
       orient="auto"
       refY="0"
       refX="0"
       id="TriangleOutL"
       style="overflow:visible">
      <path
         id="path3912"
         d="m 5.77,0 -8.65,5 0,-10 8.65,5 z"
         style="fill-rule:evenodd;stroke:#000000;stroke-width:1pt;marker-start:none"
         transform="scale(0.8,0.8)"
         inkscape:connector-curvature="0" />
    </marker>
    <marker
       inkscape:stockid="Arrow2Lend"
       orient="auto"
       refY="0"
       refX="0"
       id="Arrow2Lend"
       style="overflow:visible">
      <path
         id="path3790"
         style="font-size:12px;fill-rule:evenodd;stroke-width:0.625;stroke-linejoin:round"
         d="M 8.7185878,4.0337352 -2.2072895,0.01601326 8.7185884,-4.0017078 c -1.7454984,2.3720609 -1.7354408,5.6174519 -6e-7,8.035443 z"
         transform="matrix(-1.1,0,0,-1.1,-1.1,0)"
         inkscape:connector-curvature="0" />
    </marker>
    <marker
       inkscape:stockid="Arrow1Lend"
       orient="auto"
       refY="0"
       refX="0"
       id="Arrow1Lend"
       style="overflow:visible">
      <path
         id="path3772"
         d="M 0,0 5,-5 -12.5,0 5,5 0,0 z"
         style="fill-rule:evenodd;stroke:#000000;stroke-width:1pt;marker-start:none"
         transform="matrix(-0.8,0,0,-0.8,-10,0)"
         inkscape:connector-curvature="0" />
    </marker>
    <marker
       inkscape:stockid="DotM"
       orient="auto"
       refY="0"
       refX="0"
       id="DotM"
       style="overflow:visible">
      <path
         id="path3834"
         d="m -2.5,-1 c 0,2.76 -2.24,5 -5,5 -2.76,0 -5,-2.24 -5,-5 0,-2.76 2.24,-5 5,-5 2.76,0 5,2.24 5,5 z"
         style="fill-rule:evenodd;stroke:#000000;stroke-width:1pt;marker-start:none;marker-end:none"
         transform="matrix(0.4,0,0,0.4,2.96,0.4)"
         inkscape:connector-curvature="0" />
    </marker>
    <marker
       inkscape:stockid="DotL"
       orient="auto"
       refY="0"
       refX="0"
       id="DotL"
       style="overflow:visible">
      <path
         id="path3831"
         d="m -2.5,-1 c 0,2.76 -2.24,5 -5,5 -2.76,0 -5,-2.24 -5,-5 0,-2.76 2.24,-5 5,-5 2.76,0 5,2.24 5,5 z"
         style="fill-rule:evenodd;stroke:#000000;stroke-width:1pt;marker-start:none;marker-end:none"
         transform="matrix(0.8,0,0,0.8,5.92,0.8)"
         inkscape:connector-curvature="0" />
    </marker>
    <marker
       inkscape:stockid="TriangleOutL"
       orient="auto"
       refY="0"
       refX="0"
       id="TriangleOutL-7"
       style="overflow:visible">
      <path
         inkscape:connector-curvature="0"
         id="path3912-4"
         d="m 5.77,0 -8.65,5 0,-10 8.65,5 z"
         style="fill-rule:evenodd;stroke:#000000;stroke-width:1pt;marker-start:none"
         transform="scale(0.8,0.8)" />
    </marker>
    <marker
       inkscape:stockid="TriangleOutM"
       orient="auto"
       refY="0"
       refX="0"
       id="TriangleOutM-9"
       style="overflow:visible">
      <path
         inkscape:connector-curvature="0"
         id="path3915-8"
         d="m 5.77,0 -8.65,5 0,-10 8.65,5 z"
         style="fill-rule:evenodd;stroke:#000000;stroke-width:1pt;marker-start:none"
         transform="scale(0.4,0.4)" />
    </marker>
    <marker
       inkscape:stockid="TriangleOutM"
       orient="auto"
       refY="0"
       refX="0"
       id="TriangleOutM-8"
       style="overflow:visible">
      <path
         id="path3915-0"
         d="m 5.77,0 -8.65,5 0,-10 8.65,5 z"
         style="fill-rule:evenodd;stroke:#000000;stroke-width:1pt;marker-start:none"
         transform="scale(0.4,0.4)"
         inkscape:connector-curvature="0" />
    </marker>
    <marker
       inkscape:stockid="TriangleOutM"
       orient="auto"
       refY="0"
       refX="0"
       id="TriangleOutM-1"
       style="overflow:visible">
      <path
         id="path3915-3"
         d="m 5.77,0 -8.65,5 0,-10 8.65,5 z"
         style="fill-rule:evenodd;stroke:#000000;stroke-width:1pt;marker-start:none"
         transform="scale(0.4,0.4)"
         inkscape:connector-curvature="0" />
    </marker>
    <marker
       inkscape:stockid="TriangleOutM"
       orient="auto"
       refY="0"
       refX="0"
       id="TriangleOutM-3"
       style="overflow:visible">
      <path
         id="path3915-5"
         d="M 5.77,0 -2.88,5 V -5 Z"
         style="fill-rule:evenodd;stroke:#000000;stroke-width:1.00000003pt;marker-start:none"
         transform="scale(0.4)"
         inkscape:connector-curvature="0" />
    </marker>
  </defs>
  <sodipodi:namedview
     id="base"
     pagecolor="#ffffff"
     bordercolor="#666666"
     borderopacity="1.0"
     inkscape:pageopacity="0.0"
     inkscape:pageshadow="2"
     inkscape:zoom="1.4"
     inkscape:cx="214.07629"
     inkscape:cy="56.656363"
     inkscape:document-units="px"
     inkscape:current-layer="g3904"
     showgrid="false"
     showguides="true"
     inkscape:guide-bbox="true"
     units="cm"
     inkscape:window-width="1366"
     inkscape:window-height="705"
     inkscape:window-x="-8"
     inkscape:window-y="-8"
     inkscape:window-maximized="1" />
  <metadata
     id="metadata7">
    <rdf:RDF>
      <cc:Work
         rdf:about="">
        <dc:format>image/svg+xml</dc:format>
        <dc:type
           rdf:resource="http://purl.org/dc/dcmitype/StillImage" />
        <dc:title></dc:title>
      </cc:Work>
    </rdf:RDF>
  </metadata>
  <g
     inkscape:label="Capa 1"
     inkscape:groupmode="layer"
     id="layer1"
     transform="translate(0,-875.19681)">
    <g
       id="g3904">
      <g
         id="text3098-1"
         style="font-style:normal;font-variant:normal;font-weight:500;font-stretch:normal;font-size:20px;line-height:125%;font-family:'Century Schoolbook L';-inkscape-font-specification:'Century Schoolbook L Medium';text-align:start;letter-spacing:0px;word-spacing:0px;writing-mode:lr-tb;text-anchor:start;fill:#000000;fill-opacity:1;stroke:none"
         transform="translate(-50.568575,128.29141)">
        <path
           id="path3141-4"
           style="font-style:italic;-inkscape-font-specification:'Century Schoolbook L Italic'"
           d="m 200.74572,894.70789 h -11.56 l -0.12,0.94 h 0.52 c 1.3,0 1.58,0.1 1.58,0.54 0,0.16 -0.08,0.58 -0.18,0.98 l -2.56,9.52 c -0.28,1.06 -0.3,1.08 -0.46,1.24 -0.22,0.2 -0.68,0.28 -1.66,0.28 h -0.1 l -0.1,0.94 h 6.36 l 0.1,-0.94 h -0.52 c -1.3,0 -1.58,-0.1 -1.58,-0.54 0,-0.16 0,-0.16 0.2,-0.98 l 1.24,-4.62 h 0.44 c 1.48,0 2.22,0.6 2.22,1.82 0,0.44 -0.04,0.74 -0.18,1.38 l 0.9,0.16 1.78,-6.68 -0.9,-0.12 c -0.58,1.76 -1.62,2.5 -3.56,2.5 h -0.46 l 1.1,-4.1 c 0.34,-1.28 0.5,-1.38 2,-1.38 h 1.04 c 0.86,0 1.54,0.22 2.04,0.66 0.56,0.5 0.74,1.14 0.74,2.52 v 0.7 h 0.9 l 0.78,-4.82"
           inkscape:connector-curvature="0" />
      </g>
      <path
         sodipodi:nodetypes="cc"
         inkscape:connector-curvature="0"
         id="path4580"
         d="m 203.5716,1016.2168 h 38.57164"
         style="fill:none;stroke:#000000;stroke-width:1px;stroke-linecap:butt;stroke-linejoin:miter;stroke-opacity:1;marker-end:url(#TriangleOutL)" />
      <path
         sodipodi:nodetypes="cc"
         inkscape:connector-curvature="0"
         id="path5956"
         d="m 100.50507,979.4554 c 10.53827,7.4893 13.78177,22.7806 8.04273,36.0714"
         style="fill:none;stroke:#000000;stroke-width:0.96214449px;stroke-linecap:butt;stroke-linejoin:miter;stroke-opacity:1" />
      <path
         sodipodi:nodetypes="cc"
         inkscape:connector-curvature="0"
         id="path5562"
         d="M 37.478336,1014.8521 215.42857,914.21933"
         style="fill:#e60000;stroke:#e60000;stroke-width:1px;stroke-linecap:round;stroke-linejoin:round;stroke-opacity:1;marker-mid:none;marker-end:url(#TriangleOutL-7);fill-opacity:1" />
      <path
         inkscape:connector-curvature="0"
         id="path5960"
         d="m 220.35714,1015.8622 0,-104.28573"
         style="fill:none;stroke:#e60000;stroke-width:1;stroke-linecap:butt;stroke-linejoin:miter;stroke-miterlimit:4;stroke-opacity:1;stroke-dasharray:2, 1;stroke-dashoffset:0" />
      <path
         inkscape:connector-curvature="0"
         id="path4580-1"
         d="m 37.478336,1014.8521 178.115324,1.0714"
         style="fill:none;stroke:#000000;stroke-width:1.0016042;stroke-linecap:butt;stroke-linejoin:miter;stroke-miterlimit:4;stroke-dasharray:none;stroke-opacity:1;marker-end:url(#TriangleOutL)" />
      <path
         inkscape:connector-curvature="0"
         id="path2996"
         d="m 36.528449,1014.9936 42.580997,0.1429 170.276214,0.5713"
         style="fill:none;stroke:#000000;stroke-width:1.04097855;stroke-linecap:butt;stroke-linejoin:miter;stroke-miterlimit:4;stroke-dasharray:none;stroke-opacity:1;marker-start:url(#DotM);marker-end:url(#DotM)"
         sodipodi:nodetypes="ccc" />
      <g
         id="text3047"
         style="font-size:28px;font-style:normal;font-variant:normal;font-weight:500;font-stretch:normal;text-align:start;line-height:125%;letter-spacing:0px;word-spacing:0px;writing-mode:lr-tb;text-anchor:start;fill:#000000;fill-opacity:1;stroke:none;font-family:Century Schoolbook L;-inkscape-font-specification:Century Schoolbook L Medium">
        <path
           id="path3149"
           style="font-size:20px;font-family:Century Schoolbook L;-inkscape-font-specification:Century Schoolbook L Medium"
           d="m 23.988572,1006.9279 -0.84,0 -4.6,11.66 c -0.4,1.04 -0.480001,1.18 -0.78,1.5 -0.32,0.38 -0.880001,0.62 -1.42,0.62 l -0.08,0 0,0.94 5.3,0 0,-0.94 -0.4,0 c -1.079999,0 -1.62,-0.38 -1.62,-1.14 0,-0.24 0.06,-0.52 0.18,-0.84 l 0.66,-1.76 5.3,0 1.08,2.68 c 0.12,0.3 0.16,0.44 0.16,0.54 0,0.32 -0.500001,0.52 -1.24,0.52 l -0.84,0 0,0.94 6.2,0 0,-0.94 -0.28,0 c -0.999999,0 -1.220001,-0.16 -1.68,-1.28 l -5.1,-12.5 m -0.98,3.28 2.26,5.68 -4.48,0 2.22,-5.68"
           inkscape:connector-curvature="0" />
      </g>
      <g
         id="text3053"
         style="font-style:normal;font-variant:normal;font-weight:500;font-stretch:normal;font-size:20px;line-height:125%;font-family:'Century Schoolbook L';-inkscape-font-specification:'Century Schoolbook L Medium';text-align:start;letter-spacing:0px;word-spacing:0px;writing-mode:lr-tb;text-anchor:start;fill:#000000;fill-opacity:1;stroke:none"
         transform="translate(15.714288)">
        <path
           id="path3146"
           d="m 240.09998,1007.2079 v 0.94 h 0.36 c 1.62,0 1.8,0.1 1.8,0.94 v 0.58 9.52 0.58 c 0,0.84 -0.18,0.94 -1.8,0.94 h -0.36 v 0.94 h 7.26 c 3.46,0 5.54,-1.48 5.54,-3.92 0,-1.98 -1.28,-3.14 -4,-3.62 0.96,-0.2 1.40001,-0.38 1.9,-0.76 0.84,-0.62 1.34,-1.6 1.34,-2.62 0,-1.28 -0.8,-2.54 -1.96,-3.04 -0.71999,-0.32 -1.72,-0.48 -2.9,-0.48 h -7.18 m 4.4,6.5 v -4.56 c 0,-0.78 0.28001,-1 1.32,-1 h 0.8 c 0.92,0 1.68001,0.14 2.1,0.42 0.72,0.44 1.1,1.3 1.1,2.42 0,1.96 -0.98,2.72 -3.54,2.72 h -1.78 m 0,0.94 h 1.76 c 1.28,0 2.14001,0.12 2.74,0.38 0.94,0.44 1.44,1.32 1.44,2.64 0,1.26 -0.44,2.2 -1.22,2.58 -0.61999,0.32 -1.46,0.46 -2.72,0.46 h -0.84 c -1.01999,0 -1.16,-0.16 -1.16,-1.26 v -4.8"
           inkscape:connector-curvature="0" />
      </g>
      <path
         sodipodi:nodetypes="cc"
         inkscape:connector-curvature="0"
         id="path6069-61-7"
         d="m 186.13845,890.93358 h 15.1454"
         style="fill:none;stroke:#000000;stroke-width:1.0790745;stroke-linecap:butt;stroke-linejoin:miter;stroke-miterlimit:4;stroke-dasharray:none;stroke-opacity:1;marker-end:url(#TriangleOutM)" />
      <g
         id="text3098"
         style="font-size:20px;font-style:normal;font-variant:normal;font-weight:500;font-stretch:normal;text-align:start;line-height:125%;letter-spacing:0px;word-spacing:0px;writing-mode:lr-tb;text-anchor:start;fill:#000000;fill-opacity:1;stroke:none;font-family:Century Schoolbook L;-inkscape-font-specification:Century Schoolbook L Medium">
        <path
           id="path3141"
           style="font-style:italic;-inkscape-font-specification:Century Schoolbook L Italic"
           d="m 200.74572,894.70789 -11.56,0 -0.12,0.94 0.52,0 c 1.3,0 1.58,0.1 1.58,0.54 0,0.16 -0.08,0.58 -0.18,0.98 l -2.56,9.52 c -0.28,1.06 -0.3,1.08 -0.46,1.24 -0.22,0.2 -0.68,0.28 -1.66,0.28 l -0.1,0 -0.1,0.94 6.36,0 0.1,-0.94 -0.52,0 c -1.3,0 -1.58,-0.1 -1.58,-0.54 0,-0.16 0,-0.16 0.2,-0.98 l 1.24,-4.62 0.44,0 c 1.48,0 2.22,0.6 2.22,1.82 0,0.44 -0.04,0.74 -0.18,1.38 l 0.9,0.16 1.78,-6.68 -0.9,-0.12 c -0.58,1.76 -1.62,2.5 -3.56,2.5 l -0.46,0 1.1,-4.1 c 0.34,-1.28 0.5,-1.38 2,-1.38 l 1.04,0 c 0.86,0 1.54,0.22 2.04,0.66 0.56,0.5 0.74,1.14 0.74,2.52 l 0,0.7 0.9,0 0.78,-4.82"
           inkscape:connector-curvature="0" />
      </g>
      <g
         id="text3104"
         style="font-size:20px;font-style:normal;font-variant:normal;font-weight:500;font-stretch:normal;text-align:start;line-height:125%;letter-spacing:0px;word-spacing:0px;writing-mode:lr-tb;text-anchor:start;fill:#000000;fill-opacity:1;stroke:none;font-family:Century Schoolbook L;-inkscape-font-specification:Century Schoolbook L Medium">
        <path
           id="path3132"
           d="m 161.42147,1033.7078 c -0.64,1.44 -1.32,2.02 -2.36,2.02 -1.6,0 -2.6,-1.46 -2.6,-3.8 0,-2.42 0.98,-4.04 2.46,-4.04 0.6,0 1.12,0.28 1.12,0.6 0,0.06 -0.04,0.12 -0.12,0.24 -0.32,0.38 -0.4,0.58 -0.4,0.92 0,0.66 0.5,1.12 1.2,1.12 0.7,0 1.22,-0.56 1.22,-1.36 0,-1.34 -1.34,-2.38 -3.12,-2.38 -2.6,0 -4.46,2.14 -4.46,5.12 0,2.84 1.7,4.8 4.18,4.8 1.78,0 2.8,-0.82 3.66,-2.94 l -0.78,-0.3"
           inkscape:connector-curvature="0" />
        <path
           id="path3134"
           d="m 167.58866,1027.0278 c -2.44,0 -4.36,2.18 -4.36,4.98 0,2.74 1.92,4.94 4.32,4.94 2.4,0 4.32,-2.2 4.32,-4.96 0,-2.74 -1.92,-4.96 -4.28,-4.96 m 0,0.86 c 1.4,0 2.18,1.46 2.18,4.1 0,2.66 -0.78,4.1 -2.22,4.1 -1.44,0 -2.22,-1.44 -2.22,-4.08 0,-2.72 0.76,-4.12 2.26,-4.12"
           inkscape:connector-curvature="0" />
        <path
           id="path3136"
           d="m 180.34866,1027.1078 -0.7,0 -0.58,0.72 c -0.72,-0.56 -1.44,-0.8 -2.44,-0.8 -1.76,0 -2.92,1.16 -2.92,2.9 0,0.78 0.26,1.44 0.7,1.84 0.46,0.42 0.92,0.62 2.12,0.9 l 1.06,0.24 c 1.58,0.38 2.14,0.78 2.14,1.58 0,0.94 -0.82,1.6 -2,1.6 -1.68,0 -2.88,-1.08 -3.36,-3.08 l -0.8,0 0,3.78 0.7,0 0.7,-0.82 c 0.82,0.66 1.74,0.98 2.74,0.98 1.96,0 3.26,-1.22 3.26,-3.08 0,-0.88 -0.28,-1.56 -0.84,-2.02 -0.48,-0.42 -0.88,-0.58 -2.1,-0.84 l -1,-0.22 c -1.1,-0.24 -1.1,-0.24 -1.46,-0.44 -0.44,-0.2 -0.7,-0.62 -0.7,-1.06 0,-0.8 0.76,-1.38 1.86,-1.38 0.76,0 1.38,0.26 1.94,0.8 0.44,0.44 0.66,0.84 0.98,1.76 l 0.7,0 0,-3.36"
           inkscape:connector-curvature="0" />
        <path
           id="path3138"
           style="font-style:italic;-inkscape-font-specification:Century Schoolbook L Italic"
           d="m 188.82647,1022.5678 c -1.32,0 -2.56,0.6 -3.66,1.78 -1.66,1.78 -2.78,4.86 -2.78,7.66 0,2.9 1.44,4.94 3.48,4.94 3.42,0 6.48,-4.44 6.48,-9.38 0,-2.98 -1.42,-5 -3.52,-5 m -0.04,0.8 c 1.06,0 1.62,0.92 1.62,2.66 0,1.92 -0.52,4.5 -1.32,6.54 -0.96,2.48 -1.92,3.58 -3.12,3.58 -1.06,0 -1.68,-0.96 -1.68,-2.66 0,-2.58 0.92,-6.08 2.2,-8.4 0.62,-1.12 1.42,-1.72 2.3,-1.72"
           inkscape:connector-curvature="0" />
      </g>
      <path
         inkscape:connector-curvature="0"
         id="path3116"
         d="m 183.57143,1029.505 8.21428,0.3572"
         style="fill:none;stroke:#000000;stroke-width:1px;stroke-linecap:butt;stroke-linejoin:miter;stroke-opacity:1" />
      <g
         id="text3118"
         style="font-size:20px;font-style:normal;font-variant:normal;font-weight:500;font-stretch:normal;text-align:start;line-height:125%;letter-spacing:0px;word-spacing:0px;writing-mode:lr-tb;text-anchor:start;fill:#000000;fill-opacity:1;stroke:none;font-family:Century Schoolbook L;-inkscape-font-specification:Century Schoolbook L Medium">
        <path
           id="path3125"
           style="font-style:italic;-inkscape-font-specification:Century Schoolbook L Italic"
           d="m 123.09143,984.35359 c -1.32,0 -2.56,0.6 -3.66,1.78 -1.66,1.78 -2.78,4.86001 -2.78,7.66 0,2.9 1.44,4.94 3.48,4.94 3.41999,0 6.48,-4.44 6.48,-9.38 0,-2.97999 -1.42001,-5 -3.52,-5 m -0.04,0.8 c 1.06,0 1.62,0.92001 1.62,2.66 0,1.92 -0.52,4.50001 -1.32,6.54 -0.96,2.48 -1.92,3.58 -3.12,3.58 -1.06,0 -1.68,-0.96 -1.68,-2.66 0,-2.57999 0.92,-6.08 2.2,-8.4 0.62,-1.12 1.42,-1.72 2.3,-1.72"
           inkscape:connector-curvature="0" />
      </g>
      <path
         sodipodi:nodetypes="cc"
         inkscape:connector-curvature="0"
         id="path3122"
         d="m 117.85714,991.92208 7.5,0.0829"
         style="fill:none;stroke:#000000;stroke-width:1px;stroke-linecap:butt;stroke-linejoin:miter;stroke-opacity:1" />
      <path
         sodipodi:nodetypes="cccc"
         transform="translate(0,875.19681)"
         inkscape:connector-curvature="0"
         id="path3902"
         d="m 210.35714,35.956814 5,8.887102 5.0424,-8.602996 z"
         style="fill:#e60000;fill-opacity:1;stroke:none" />
      <path
         sodipodi:nodetypes="cc"
         inkscape:connector-curvature="0"
         id="path6069-61-7-5"
         d="m 136.46035,1018.7136 h 17.52159"
         style="fill:none;stroke:#000000;stroke-width:1.16064072;stroke-linecap:butt;stroke-linejoin:miter;stroke-miterlimit:4;stroke-dasharray:none;stroke-opacity:1;marker-end:url(#TriangleOutM-3)" />
    </g>
  </g>
</svg>
