<?xml version="1.0" encoding="iso-8859-1"?>
<!-- Generator: Adobe Illustrator 12.0.1, SVG Export Plug-In . SVG Version: 6.00 Build 51448)  -->
<!DOCTYPE svg PUBLIC "-//W3C//DTD SVG 1.0//EN" "http://www.w3.org/TR/2001/REC-SVG-20010904/DTD/svg10.dtd" [
	<!ENTITY ns_svg "http://www.w3.org/2000/svg">
	<!ENTITY ns_xlink "http://www.w3.org/1999/xlink">
]>
<svg  version="1.0" id="Layer_1" xmlns="&ns_svg;" xmlns:xlink="&ns_xlink;" width="536.2" height="596.1"
	 viewBox="0 0 536.2 596.1" overflow="visible" enable-background="new 0 0 536.2 596.1" xml:space="preserve">
<g>
	<g id="Square">
		
			<rect x="53.2" y="83.2" transform="matrix(0.9659 -0.2588 0.2588 0.9659 -68.0184 79.5408)" fill="none" stroke="#000000" stroke-width="8" width="429.8" height="429.8"/>
		
			<rect x="53.2" y="83.2" transform="matrix(0.9659 -0.2588 0.2588 0.9659 -68.0184 79.5408)" fill="#FFFFFF" width="429.8" height="429.8"/>
	</g>
	<g id="Dashed_Lines__x3C_Group_x3E_">
		<g id="Dashed_Line_1">
			<line fill="none" stroke="#0000FF" stroke-width="2" stroke-dasharray="11" x1="116.7" y1="560.4" x2="420.6" y2="34"/>
		</g>
		<g id="Dashed_Line_2">
			<line fill="none" stroke="#0000FF" stroke-width="2" stroke-dasharray="11" x1="530.5" y1="449.6" x2="4.1" y2="145.6"/>
		</g>
	</g>
	<g id="Corners__x3C_Group_x3E_">
		<g id="Corner_1__x3C_Group_x3E_">
			<g id="Quarter_square_1">
				<polyline fill="none" stroke="#FF0000" stroke-width="2" points="507.5,456.4 501.1,432.5 525,426.1 				"/>
			</g>
			<g id="Quarter_circle_1">
				<path fill="none" stroke="#FF0000" stroke-width="2" d="M524.5,451.8c-0.9-3.5,2.3-7.4,5.2-8.1"/>
			</g>
		</g>
		<g id="Corner_2__x3C_Group_x3E_">
			<g id="Quarter_square_2_1_">
				<polyline fill="none" stroke="#FF0000" stroke-width="2" points="246.3,284.3 258.7,262.9 280.1,275.3 				"/>
			</g>
			<g id="Quarter_circle_2">
				<path fill="none" stroke="#FF0000" stroke-width="2" d="M261.6,293.1c1.8-3.1,6.8-3.6,9.4-2.1"/>
			</g>
		</g>
	</g>
	<g id="Text__x3C_Group_x3E_">
		<path id="D" d="M114.7,573.4h11.7c1.7,0,3.2,0.3,4.4,0.9c1.5,0.8,2.8,2.1,3.9,3.9c1.1,1.8,1.6,4,1.6,6.4c0,2-0.3,3.9-1,5.5
			c-0.5,1.3-1.2,2.4-2.2,3.3c-1,0.9-2.2,1.6-3.6,2.1c-1.1,0.3-2.5,0.5-4.3,0.5h-10.5v-1h2.2c0.5,0,0.9-0.1,1.1-0.3s0.3-0.4,0.3-0.8
			v-18.3c0-0.3-0.1-0.6-0.3-0.8s-0.5-0.3-0.9-0.3h-2.3L114.7,573.4L114.7,573.4z M122.9,574.6c-0.5,0-0.8,0.1-1,0.3
			c-0.2,0.2-0.3,0.5-0.3,0.9v18.1c0,0.4,0.1,0.6,0.4,0.8s0.7,0.3,1.3,0.3h1.9c1.7,0,3.3-0.4,4.6-1.3c0.9-0.6,1.5-1.4,1.9-2.5
			c0.6-1.5,0.9-3.5,0.9-6c0-3.8-0.7-6.6-2-8.3c-1.1-1.5-2.8-2.2-5.1-2.2h-2.6V574.6z"/>
		<path id="C" d="M532.6,466.8l1-2.2h1l0.4,9.2h-1c-0.7-2.6-1.5-4.5-2.5-5.7c-1.3-1.5-2.8-2.3-4.5-2.3c-1.9,0-3.5,0.9-4.6,2.6
			c-1.2,1.7-1.8,4.6-1.8,8.7c0,3.4,0.7,6,2.1,7.8c1.2,1.5,2.8,2.3,4.9,2.3c1.8,0,3.4-0.6,4.6-1.8c1.2-1.2,2.1-3,2.4-5.4h1.1
			c-0.3,2.7-1.2,4.8-2.8,6.2c-1.5,1.5-3.5,2.2-5.8,2.2c-1.9,0-3.6-0.5-5.2-1.4c-1.6-1-2.8-2.3-3.8-4.1c-0.9-1.8-1.4-3.7-1.4-5.9
			c0-2.3,0.5-4.4,1.5-6.4s2.2-3.5,3.8-4.5c1.5-1,3.2-1.5,4.9-1.5c1,0,1.9,0.2,2.9,0.5C530.5,465.4,531.5,466,532.6,466.8z"/>
		<path id="B" d="M402.3,0h11.8c2.3,0,4.1,0.5,5.3,1.5c1.2,1,1.9,2.3,1.9,3.9c0,1.3-0.4,2.4-1.3,3.3c-0.9,0.9-2.2,1.6-3.9,2.1
			c2.1,0.5,3.8,1.2,4.8,2.1c1.1,1,1.6,2.2,1.6,3.7c0,1.1-0.3,2.1-0.9,3s-1.6,1.6-3,2.2c-1.4,0.6-3,0.9-4.8,0.9h-11.5v-1.1h1.9
			c0.6,0,1-0.1,1.2-0.3c0.3-0.2,0.4-0.4,0.4-0.6V2.5c0-0.4-0.1-0.8-0.4-1c-0.3-0.2-0.6-0.3-1.1-0.3h-2V0z M409,10.4h4.3
			c1.3,0,2.4-0.4,3.2-1.2c0.8-0.8,1.2-2,1.2-3.8c0-1.1-0.2-1.9-0.6-2.6c-0.4-0.6-0.9-1.1-1.6-1.3c-0.7-0.3-1.9-0.4-3.7-0.4
			c-1.2,0-2,0.1-2.3,0.3c-0.3,0.2-0.4,0.5-0.4,0.9L409,10.4L409,10.4z M409,11.6v8.8c0,0.4,0.1,0.7,0.4,0.9c0.2,0.2,0.7,0.3,1.3,0.3
			h2.8c1.8,0,3.2-0.4,4.1-1.2c0.9-0.8,1.3-2.1,1.3-3.8c0-1.6-0.5-2.8-1.4-3.7s-2.2-1.3-3.7-1.3H409z"/>
		<path id="A" d="M11.8,110h1.1l8.1,20.8c0.3,0.8,1,1.3,2,1.3h0.7v1.1h-9.1V132h0.7c0.9,0,1.6-0.1,2-0.3c0.3-0.1,0.4-0.4,0.4-0.7
			c0-0.2,0-0.4-0.1-0.6l-1.9-4.8h-9l-1.1,2.8c-0.3,0.7-0.4,1.3-0.4,1.7c0,0.5,0.2,0.9,0.7,1.3s1.1,0.5,2,0.5h0.8v1.1H0.6v-1
			c0.9,0,1.6-0.2,2.1-0.6s1-1.1,1.4-2.2L11.8,110z M11.4,114.3l-4.1,10.1h8L11.4,114.3z"/>
	</g>
</g>
</svg>
